<svg width="100" height="40" viewBox="0 0 100 40" fill="none" xmlns="http://www.w3.org/2000/svg">
<rect width="100" height="40" rx="8" fill="#90C12C"/>
<path d="M52.312 13.544H56.792C57.432 13.544 58.0187 13.6773 58.552 13.944C59.096 14.2107 59.5227 14.5733 59.832 15.032C60.1413 15.4907 60.296 15.992 60.296 16.536C60.296 17.112 60.152 17.6133 59.864 18.04C59.5867 18.456 59.2187 18.776 58.76 19V19.128C59.3573 19.3413 59.832 19.6827 60.184 20.152C60.536 20.6107 60.712 21.1653 60.712 21.816C60.712 22.4453 60.5413 23.0053 60.2 23.496C59.8693 23.976 59.416 24.3493 58.84 24.616C58.2747 24.872 57.6453 25 56.952 25H52.312V13.544ZM56.632 18.216C57.1013 18.216 57.4747 18.088 57.752 17.832C58.04 17.5653 58.184 17.2347 58.184 16.84C58.184 16.456 58.0453 16.136 57.768 15.88C57.5013 15.6133 57.144 15.48 56.696 15.48H54.472V18.216H56.632ZM56.872 23.032C57.3947 23.032 57.8 22.8987 58.088 22.632C58.3867 22.3547 58.536 21.9973 58.536 21.56C58.536 21.1227 58.3867 20.7653 58.088 20.488C57.7893 20.2107 57.3627 20.072 56.808 20.072H54.472V23.032H56.872ZM65.3274 25.256C64.346 25.256 63.5994 24.952 63.0874 24.344C62.5754 23.736 62.3194 22.888 62.3194 21.8V16.84H64.4154V21.544C64.4154 22.0987 64.5487 22.536 64.8154 22.856C65.082 23.1653 65.434 23.32 65.8714 23.32C66.4687 23.32 66.9434 23.1013 67.2954 22.664C67.6474 22.2267 67.8234 21.672 67.8234 21V16.84H69.9194V25H67.9514V23.976H67.8234C67.578 24.3707 67.2314 24.6853 66.7834 24.92C66.346 25.144 65.8607 25.256 65.3274 25.256ZM75.6434 28.712C74.6087 28.712 73.75 28.4773 73.0674 28.008C72.3847 27.5493 71.926 26.9947 71.6914 26.344L73.6594 25.544C73.83 25.9493 74.0914 26.2693 74.4434 26.504C74.7954 26.7387 75.1954 26.856 75.6434 26.856C76.3047 26.856 76.8274 26.6533 77.2114 26.248C77.606 25.8427 77.8034 25.2667 77.8034 24.52V23.88H77.6754C77.4194 24.2427 77.0834 24.52 76.6674 24.712C76.2514 24.904 75.7767 25 75.2434 25C74.5714 25 73.942 24.8293 73.3554 24.488C72.7794 24.136 72.3154 23.6453 71.9634 23.016C71.6114 22.376 71.4354 21.6347 71.4354 20.792C71.4354 19.9493 71.6114 19.2133 71.9634 18.584C72.3154 17.944 72.7794 17.4533 73.3554 17.112C73.942 16.76 74.5714 16.584 75.2434 16.584C75.7767 16.584 76.2514 16.68 76.6674 16.872C77.0834 17.064 77.4194 17.3413 77.6754 17.704H77.8034V16.84H79.8194V24.44C79.8194 25.3147 79.6487 26.072 79.3074 26.712C78.966 27.352 78.4807 27.8427 77.8514 28.184C77.222 28.536 76.486 28.712 75.6434 28.712ZM75.6754 23.096C76.262 23.096 76.7634 22.8933 77.1794 22.488C77.5954 22.072 77.8034 21.5067 77.8034 20.792C77.8034 20.056 77.5954 19.4907 77.1794 19.096C76.774 18.6907 76.2727 18.488 75.6754 18.488C75.078 18.488 74.5714 18.6907 74.1554 19.096C73.7394 19.5013 73.5314 20.0667 73.5314 20.792C73.5314 21.5173 73.7394 22.0827 74.1554 22.488C74.5714 22.8933 75.078 23.096 75.6754 23.096Z" fill="white"/>
<path d="M20 32C26.6274 32 32 26.6274 32 20C32 13.3726 26.6274 8 20 8C13.3726 8 8 13.3726 8 20C8 26.6274 13.3726 32 20 32Z" fill="#90C12C"/>
<path d="M24.6875 15.5C23.9507 17.2906 22.5294 17.7781 20.75 17.9375C19.6438 21.1869 20.8663 24.7756 23.1875 27.125C27.665 25.0081 28.4863 18.6875 24.6875 15.5Z" fill="white"/>
<path d="M21.5806 16.4956C22.4141 16.1457 23.1102 15.5326 23.5625 14.75C23.0733 14.4843 22.5548 14.2767 22.0175 14.1313L23.06 12.8563C23.1494 12.7404 23.1901 12.5942 23.1735 12.4488C23.1569 12.3034 23.0843 12.1702 22.971 12.0775C22.8578 11.9847 22.7129 11.9398 22.5671 11.9522C22.4212 11.9645 22.286 12.0333 22.19 12.1438L20.7744 13.8744C20.2603 13.8069 19.7397 13.8069 19.2256 13.8744L17.81 12.1438C17.764 12.0842 17.7066 12.0344 17.6411 11.9975C17.5755 11.9605 17.5032 11.937 17.4285 11.9285C17.3537 11.92 17.278 11.9265 17.2058 11.9478C17.1336 11.969 17.0665 12.0045 17.0082 12.0522C16.95 12.0999 16.902 12.1587 16.8669 12.2253C16.8319 12.2919 16.8105 12.3648 16.8042 12.4398C16.7978 12.5148 16.8065 12.5903 16.8299 12.6618C16.8532 12.7333 16.8907 12.7995 16.94 12.8563L17.9825 14.1313C17.4452 14.2767 16.9267 14.4843 16.4375 14.75C16.9415 15.6108 17.739 16.2612 18.6836 16.5818C19.6282 16.9024 20.6567 16.8718 21.5806 16.4956Z" fill="white"/>
<path d="M16.8125 17.375C16.1451 16.9046 15.6249 16.2544 15.3125 15.5C15.125 15.6631 12.4194 18.0106 12.875 21.6875C13.3362 25.4094 16.5987 27.0238 16.8125 27.125C19.1337 24.7756 20.3562 21.1869 19.25 17.9375C18.8619 17.9037 17.6544 17.9638 16.8125 17.375Z" fill="white"/>
</svg>
