<svg width="380" height="360" viewBox="0 0 380 360" fill="none" xmlns="http://www.w3.org/2000/svg">
<rect width="380" height="360" fill="#6CA100"/>
<mask id="mask0_58_939" style="mask-type:alpha" maskUnits="userSpaceOnUse" x="0" y="0" width="380" height="360">
<rect width="380" height="360" fill="#D9D9D9"/>
</mask>
<g mask="url(#mask0_58_939)">
<path d="M190 460C245.228 460 290 415.228 290 360C290 304.772 245.228 260 190 260C134.772 260 90 304.772 90 360C90 415.228 134.772 460 190 460Z" fill="#6CA100"/>
<path d="M229.061 322.5C222.92 337.422 211.076 341.484 196.248 342.812C187.029 369.891 197.217 399.797 216.561 419.375C253.873 401.734 260.717 349.062 229.061 322.5Z" fill="#98C739"/>
<path d="M203.172 330.796C210.118 327.881 215.918 322.772 219.688 316.25C215.611 314.036 211.29 312.305 206.813 311.093L215.5 300.468C216.245 299.503 216.584 298.285 216.446 297.073C216.308 295.861 215.702 294.751 214.759 293.978C213.815 293.206 212.608 292.831 211.392 292.934C210.177 293.037 209.05 293.61 208.25 294.531L196.453 308.953C192.169 308.39 187.831 308.39 183.547 308.953L171.75 294.531C171.367 294.034 170.888 293.62 170.342 293.312C169.796 293.004 169.194 292.808 168.571 292.737C167.948 292.666 167.317 292.72 166.715 292.897C166.114 293.074 165.554 293.37 165.069 293.768C164.584 294.165 164.183 294.656 163.891 295.21C163.599 295.765 163.421 296.373 163.368 296.998C163.315 297.623 163.388 298.252 163.582 298.848C163.777 299.444 164.089 299.995 164.5 300.468L173.188 311.093C168.71 312.305 164.389 314.036 160.312 316.25C164.513 323.423 171.158 328.843 179.03 331.514C186.902 334.186 195.473 333.931 203.172 330.796Z" fill="#98C739"/>
<path d="M163.436 338.125C157.875 334.205 153.54 328.787 150.936 322.5C149.374 323.859 126.827 343.422 130.624 374.062C134.468 405.078 161.655 418.531 163.436 419.375C182.78 399.797 192.968 369.891 183.749 342.812C180.515 342.531 170.452 343.031 163.436 338.125Z" fill="#98C739"/>
<circle cx="190" cy="-20.0001" r="200" transform="rotate(-45 190 -20.0001)" fill="#98C739"/>
<circle cx="190.002" cy="-20.0001" r="75" transform="rotate(-45 190.002 -20.0001)" fill="#6CA100"/>
<rect x="39.7397" y="112.582" width="400" height="25" transform="rotate(-45 39.7397 112.582)" fill="#6CA100"/>
<circle cx="189.997" cy="-19.9945" r="50" transform="rotate(-45 189.997 -19.9945)" fill="#98C739"/>
</g>
</svg>
