<svg width="60" height="60" viewBox="0 0 60 60" fill="none" xmlns="http://www.w3.org/2000/svg">
<path d="M30 60C46.5685 60 60 46.5685 60 30C60 13.4315 46.5685 0 30 0C13.4315 0 0 13.4315 0 30C0 46.5685 13.4315 60 30 60Z" fill="#90C12C"/>
<path d="M41.7187 18.75C39.8765 23.2266 36.3234 24.4453 31.875 24.8438C29.1094 32.9672 32.1656 41.9391 37.9687 47.8125C49.1625 42.5203 51.2156 26.7188 41.7187 18.75Z" fill="white"/>
<path d="M33.9516 21.2391C36.0353 20.3643 37.7754 18.8316 38.9062 16.875C37.6833 16.2108 36.3871 15.6917 35.0438 15.3281L37.65 12.1406C37.8735 11.8509 37.9753 11.4855 37.9338 11.122C37.8923 10.7585 37.7107 10.4255 37.4276 10.1937C37.1445 9.96183 36.7823 9.84946 36.4177 9.8804C36.0531 9.91134 35.715 10.0832 35.475 10.3594L31.9359 14.6859C30.6508 14.5172 29.3492 14.5172 28.0641 14.6859L24.525 10.3594C24.4101 10.2104 24.2665 10.0861 24.1026 9.99363C23.9388 9.9012 23.7581 9.84257 23.5712 9.82122C23.3843 9.79987 23.195 9.81624 23.0146 9.86935C22.8341 9.92246 22.6661 10.0112 22.5206 10.1304C22.3751 10.2496 22.2549 10.3968 22.1673 10.5632C22.0797 10.7297 22.0263 10.912 22.0104 11.0995C21.9945 11.2869 22.0163 11.4756 22.0747 11.6545C22.133 11.8333 22.2266 11.9986 22.35 12.1406L24.9563 15.3281C23.6129 15.6917 22.3167 16.2108 21.0938 16.875C22.3539 19.0271 24.3474 20.6529 26.709 21.4544C29.0705 22.256 31.6418 22.1795 33.9516 21.2391Z" fill="white"/>
<path d="M22.0311 23.4375C20.3626 22.2615 19.0622 20.636 18.2811 18.75C17.8124 19.1578 11.0483 25.0266 12.1874 34.2188C13.3405 43.5234 21.4968 47.5594 22.0311 47.8125C27.8343 41.9391 30.8905 32.9672 28.1249 24.8438C27.1546 24.7594 24.1358 24.9094 22.0311 23.4375Z" fill="white"/>
</svg>
