<?xml version="1.0" encoding="iso-8859-1"?>
<!-- Uploaded to: SVG Repo, www.svgrepo.com, Generator: SVG Repo Mixer Tools -->
<svg  version="1.1" id="Layer_1" xmlns="http://www.w3.org/2000/svg" xmlns:xlink="http://www.w3.org/1999/xlink" 
	 viewBox="0 0 512 512" xml:space="preserve">
<g>
	<g>
		<path d="M503.83,430.298H256v-24.511c0-21.024,17.104-38.128,38.128-38.128h19.064c4.512,0,8.17-3.657,8.17-8.17
			c0-21.024,17.104-38.128,38.128-38.128h32.681c21.024,0,38.128,17.104,38.128,38.128v46.298c0,4.513,3.658,8.17,8.17,8.17
			s8.17-3.657,8.17-8.17v-46.298c0-27.258-20.126-49.9-46.298-53.854v-22.402c0-21.024,17.104-38.128,38.128-38.128h32.681
			c4.512,0,8.17-3.657,8.17-8.17V73.532c0-4.513-3.658-8.17-8.17-8.17h-24.511V8.17c0-4.513-3.658-8.17-8.17-8.17
			s-8.17,3.657-8.17,8.17v130.723c0,4.506-3.665,8.17-8.17,8.17c-4.506,0-8.17-3.665-8.17-8.17V51.745c0-4.513-3.658-8.17-8.17-8.17
			s-8.17,3.657-8.17,8.17v13.617h-24.511c-4.512,0-8.17,3.657-8.17,8.17v130.723c0,4.506-3.665,8.17-8.17,8.17
			c-4.506,0-8.17-3.665-8.17-8.17V73.532c0-4.513-3.658-8.17-8.17-8.17h-32.681c-4.512,0-8.17,3.657-8.17,8.17v65.362
			c0,4.506-3.665,8.17-8.17,8.17c-4.506,0-8.17-3.665-8.17-8.17V8.17c0-4.513-3.658-8.17-8.17-8.17s-8.17,3.657-8.17,8.17v57.191
			h-84.426c-4.512,0-8.17,3.657-8.17,8.17v125.277c0,7.509-6.108,13.617-13.617,13.617s-13.617-6.108-13.617-13.617V73.543
			c0-0.021,0-65.373,0-65.373c0-4.513-3.658-8.17-8.17-8.17s-8.17,3.657-8.17,8.17v57.191h-24.511c-4.512,0-8.17,3.657-8.17,8.17
			v65.362c0,4.506-3.665,8.17-8.17,8.17c-4.506,0-8.17-3.665-8.17-8.17V8.17c0-4.513-3.658-8.17-8.17-8.17s-8.17,3.657-8.17,8.17
			v57.191H40.851c-4.512,0-8.17,3.657-8.17,8.17v163.404c0,4.499,3.636,8.151,8.134,8.17l19.1,0.083
			c21.024,0,38.128,17.104,38.128,38.128v146.981H8.17c-4.512,0-8.17,3.657-8.17,8.17s3.658,8.17,8.17,8.17h495.66
			c4.512,0,8.17-3.657,8.17-8.17S508.342,430.298,503.83,430.298z M196.085,430.298h-49.021V275.064
			c0-7.509,6.108-13.617,13.617-13.617s13.617,6.108,13.617,13.617v32.681c0,4.513,3.658,8.17,8.17,8.17
			c7.509,0,13.617,6.108,13.617,13.617V430.298z M239.66,405.787v24.511h-27.234V329.532c0-13.687-9.227-25.26-21.787-28.826
			v-25.642c0-16.518-13.438-29.957-29.957-29.957c-16.519,0-29.957,13.439-29.957,29.957v155.234h-16.34V283.317
			c0-30.034-24.434-54.468-54.432-54.468l-10.93-0.048V81.702h16.34v57.191c0,13.515,10.995,24.511,24.511,24.511
			c13.516,0,24.511-10.996,24.511-24.511V81.702h16.34v117.106c0,16.518,13.438,29.957,29.957,29.957
			c16.519,0,29.957-13.44,29.957-29.957V81.702h76.255v57.191c0,13.515,10.995,24.511,24.511,24.511
			c13.516,0,24.511-10.996,24.511-24.511V81.702h16.34v122.553c0,13.515,10.995,24.511,24.511,24.511
			c13.516,0,24.511-10.996,24.511-24.511V81.702h16.34v57.191c0,13.515,10.995,24.511,24.511,24.511
			c13.516,0,24.511-10.996,24.511-24.511V81.702h16.34v147.064h-24.511c-30.034,0-54.468,24.434-54.468,54.468v21.787h-24.511
			c-27.258,0-49.905,20.125-53.856,46.298h-11.506C264.094,351.319,239.66,375.754,239.66,405.787z"/>
	</g>
</g>
<g>
	<g>
		<path d="M51.745,462.979H40.851c-4.512,0-8.17,3.657-8.17,8.17s3.658,8.17,8.17,8.17h10.894c4.512,0,8.17-3.657,8.17-8.17
			S56.257,462.979,51.745,462.979z"/>
	</g>
</g>
<g>
	<g>
		<path d="M160.681,495.66h-10.894c-4.512,0-8.17,3.657-8.17,8.17s3.658,8.17,8.17,8.17h10.894c4.512,0,8.17-3.657,8.17-8.17
			S165.193,495.66,160.681,495.66z"/>
	</g>
</g>
<g>
	<g>
		<path d="M427.574,462.979h-10.894c-4.512,0-8.17,3.657-8.17,8.17s3.658,8.17,8.17,8.17h10.894c4.512,0,8.17-3.657,8.17-8.17
			S432.087,462.979,427.574,462.979z"/>
	</g>
</g>
<g>
	<g>
		<path d="M84.426,495.66H73.532c-4.512,0-8.17,3.657-8.17,8.17s3.658,8.17,8.17,8.17h10.894c4.512,0,8.17-3.657,8.17-8.17
			S88.938,495.66,84.426,495.66z"/>
	</g>
</g>
<g>
	<g>
		<path d="M471.149,462.979h-10.894c-4.512,0-8.17,3.657-8.17,8.17s3.658,8.17,8.17,8.17h10.894c4.512,0,8.17-3.657,8.17-8.17
			S475.661,462.979,471.149,462.979z"/>
	</g>
</g>
</svg>