<svg width="60" height="60" viewBox="0 0 60 60" fill="none" xmlns="http://www.w3.org/2000/svg">
<path d="M30 60C46.5685 60 60 46.5685 60 30C60 13.4315 46.5685 0 30 0C13.4315 0 0 13.4315 0 30C0 46.5685 13.4315 60 30 60Z" fill="#5A5366"/>
<path d="M45.0703 30C45.0712 32.3524 44.5098 34.671 43.433 36.7625C42.3562 38.8539 40.795 40.6578 38.8797 42.0236C36.9645 43.3894 34.7505 44.2777 32.4223 44.6145C30.0941 44.9512 27.7191 44.7266 25.4953 43.9594C28.4007 42.9577 30.9212 41.0745 32.7054 38.5722C34.4896 36.0699 35.4485 33.0732 35.4485 30C35.4485 26.9268 34.4896 23.9301 32.7054 21.4278C30.9212 18.9255 28.4007 17.0423 25.4953 16.0406C27.7191 15.2734 30.0941 15.0488 32.4223 15.3855C34.7505 15.7223 36.9645 16.6106 38.8797 17.9764C40.795 19.3422 42.3562 21.1461 43.433 23.2375C44.5098 25.329 45.0712 27.6476 45.0703 30ZM30 11.25C26.2916 11.25 22.6665 12.3497 19.5831 14.4099C16.4996 16.4702 14.0964 19.3986 12.6773 22.8247C11.2581 26.2508 10.8868 30.0208 11.6103 33.6579C12.3338 37.2951 14.1195 40.636 16.7418 43.2583C19.364 45.8805 22.7049 47.6663 26.3421 48.3897C29.9792 49.1132 33.7492 48.7419 37.1753 47.3227C40.6014 45.9036 43.5298 43.5004 45.5901 40.4169C47.6503 37.3335 48.75 33.7084 48.75 30C48.75 25.0272 46.7746 20.2581 43.2583 16.7417C39.742 13.2254 34.9728 11.25 30 11.25Z" fill="white"/>
</svg>
