<svg width="100" height="40" viewBox="0 0 100 40" fill="none" xmlns="http://www.w3.org/2000/svg">
<rect width="100" height="40" rx="8" fill="#5A5366"/>
<path d="M48.312 13.544H52.184C53.3787 13.544 54.4187 13.784 55.304 14.264C56.1893 14.744 56.872 15.416 57.352 16.28C57.832 17.144 58.072 18.1413 58.072 19.272C58.072 20.4027 57.832 21.4 57.352 22.264C56.872 23.128 56.1893 23.8 55.304 24.28C54.4187 24.76 53.3787 25 52.184 25H48.312V13.544ZM52.088 22.952C53.3253 22.952 54.2693 22.6267 54.92 21.976C55.5707 21.3147 55.896 20.4133 55.896 19.272C55.896 18.1307 55.5707 17.2347 54.92 16.584C54.2693 15.9227 53.3253 15.592 52.088 15.592H50.472V22.952H52.088ZM62.3325 25.256C61.4685 25.256 60.7592 25.0053 60.2045 24.504C59.6498 23.992 59.3725 23.3253 59.3725 22.504C59.3725 21.96 59.5165 21.48 59.8045 21.064C60.0925 20.648 60.4872 20.328 60.9885 20.104C61.4898 19.88 62.0445 19.768 62.6525 19.768C63.4952 19.768 64.2152 19.8907 64.8125 20.136V19.784C64.8125 19.336 64.6418 18.9733 64.3005 18.696C63.9698 18.4187 63.5218 18.28 62.9565 18.28C62.5725 18.28 62.1992 18.3707 61.8365 18.552C61.4845 18.7227 61.1912 18.952 60.9565 19.24L59.6125 18.184C60.0072 17.672 60.5032 17.2773 61.1005 17C61.6978 16.7227 62.3485 16.584 63.0525 16.584C64.3005 16.584 65.2498 16.872 65.9005 17.448C66.5512 18.024 66.8765 18.8667 66.8765 19.976V25H64.8125V24.168H64.6845C64.4392 24.488 64.1138 24.7493 63.7085 24.952C63.3138 25.1547 62.8552 25.256 62.3325 25.256ZM62.8285 23.624C63.4365 23.624 63.9165 23.432 64.2685 23.048C64.6312 22.6533 64.8125 22.1947 64.8125 21.672C64.2685 21.416 63.6978 21.288 63.1005 21.288C62.0125 21.288 61.4685 21.6933 61.4685 22.504C61.4685 22.8347 61.5858 23.1067 61.8205 23.32C62.0552 23.5227 62.3912 23.624 62.8285 23.624ZM68.8053 16.84H70.7733V17.928H70.9013C71.1039 17.544 71.4186 17.2293 71.8453 16.984C72.2719 16.728 72.7413 16.6 73.2533 16.6C73.6266 16.6 73.9679 16.6587 74.2773 16.776V18.872C73.9893 18.7653 73.7439 18.6907 73.5413 18.648C73.3493 18.5947 73.1413 18.568 72.9173 18.568C72.2986 18.568 71.8079 18.792 71.4453 19.24C71.0826 19.688 70.9013 20.2533 70.9013 20.936V25H68.8053V16.84ZM75.7115 13.544H77.8075V19.784H77.9195L80.8475 16.84H83.4235V16.968L80.3355 19.992L83.5675 24.872V25H81.0875L78.8635 21.432L77.8075 22.472V25H75.7115V13.544Z" fill="white"/>
<path d="M20 32C26.6274 32 32 26.6274 32 20C32 13.3726 26.6274 8 20 8C13.3726 8 8 13.3726 8 20C8 26.6274 13.3726 32 20 32Z" fill="#5A5366"/>
<path d="M26.0281 20C26.0285 20.941 25.8039 21.8684 25.3732 22.705C24.9425 23.5416 24.318 24.2631 23.5519 24.8094C22.7858 25.3558 21.9002 25.7111 20.9689 25.8458C20.0376 25.9805 19.0876 25.8906 18.1981 25.5837C19.3603 25.1831 20.3685 24.4298 21.0822 23.4289C21.7958 22.428 22.1794 21.2293 22.1794 20C22.1794 18.7707 21.7958 17.572 21.0822 16.5711C20.3685 15.5702 19.3603 14.8169 18.1981 14.4163C19.0876 14.1094 20.0376 14.0195 20.9689 14.1542C21.9002 14.2889 22.7858 14.6442 23.5519 15.1906C24.318 15.7369 24.9425 16.4584 25.3732 17.295C25.8039 18.1316 26.0285 19.059 26.0281 20ZM20 12.5C18.5166 12.5 17.0666 12.9399 15.8332 13.764C14.5999 14.5881 13.6386 15.7594 13.0709 17.1299C12.5032 18.5003 12.3547 20.0083 12.6441 21.4632C12.9335 22.918 13.6478 24.2544 14.6967 25.3033C15.7456 26.3522 17.082 27.0665 18.5368 27.3559C19.9917 27.6453 21.4997 27.4968 22.8701 26.9291C24.2406 26.3614 25.4119 25.4001 26.236 24.1668C27.0601 22.9334 27.5 21.4834 27.5 20C27.5 18.0109 26.7098 16.1032 25.3033 14.6967C23.8968 13.2902 21.9891 12.5 20 12.5Z" fill="white"/>
</svg>
