<svg width="380" height="360" viewBox="0 0 380 360" fill="none" xmlns="http://www.w3.org/2000/svg">
<rect width="380" height="360" fill="#31224B"/>
<mask id="mask0_58_973" style="mask-type:alpha" maskUnits="userSpaceOnUse" x="0" y="0" width="380" height="360">
<rect width="380" height="360" fill="#D9D9D9"/>
</mask>
<g mask="url(#mask0_58_973)">
<path d="M190 460C245.228 460 290 415.228 290 360C290 304.772 245.228 260 190 260C134.772 260 90 304.772 90 360C90 415.228 134.772 460 190 460Z" fill="#31224B"/>
<path d="M240.234 360C240.237 367.841 238.366 375.57 234.777 382.542C231.187 389.513 225.983 395.526 219.599 400.079C213.215 404.631 205.835 407.592 198.074 408.715C190.314 409.837 182.397 409.089 174.984 406.531C184.669 403.192 193.071 396.915 199.018 388.574C204.965 380.233 208.162 370.244 208.162 360C208.162 349.756 204.965 339.767 199.018 331.426C193.071 323.085 184.669 316.808 174.984 313.469C182.397 310.911 190.314 310.163 198.074 311.285C205.835 312.408 213.215 315.369 219.599 319.921C225.983 324.474 231.187 330.487 234.777 337.458C238.366 344.43 240.237 352.159 240.234 360ZM190 297.5C177.639 297.5 165.555 301.166 155.277 308.033C144.999 314.901 136.988 324.662 132.258 336.082C127.527 347.503 126.289 360.069 128.701 372.193C131.113 384.317 137.065 395.453 145.806 404.194C154.547 412.935 165.683 418.888 177.807 421.299C189.931 423.711 202.497 422.473 213.918 417.742C225.338 413.012 235.099 405.001 241.967 394.723C248.834 384.445 252.5 372.361 252.5 360C252.5 343.424 245.915 327.527 234.194 315.806C222.473 304.085 206.576 297.5 190 297.5Z" fill="#6B568F"/>
<circle cx="190" cy="-20.0001" r="200" transform="rotate(-45 190 -20.0001)" fill="#6B568F"/>
<circle cx="190.002" cy="-20.0001" r="75" transform="rotate(-45 190.002 -20.0001)" fill="#31224B"/>
<rect x="39.7397" y="112.582" width="400" height="25" transform="rotate(-45 39.7397 112.582)" fill="#31224B"/>
<circle cx="189.997" cy="-19.9945" r="50" transform="rotate(-45 189.997 -19.9945)" fill="#6B568F"/>
</g>
</svg>
