<svg width="100" height="40" viewBox="0 0 100 40" fill="none" xmlns="http://www.w3.org/2000/svg">
<rect width="100" height="40" rx="8" fill="#096DC4"/>
<path d="M38.312 13.544H42.184C43.3787 13.544 44.4187 13.784 45.304 14.264C46.1893 14.744 46.872 15.416 47.352 16.28C47.832 17.144 48.072 18.1413 48.072 19.272C48.072 20.4027 47.832 21.4 47.352 22.264C46.872 23.128 46.1893 23.8 45.304 24.28C44.4187 24.76 43.3787 25 42.184 25H38.312V13.544ZM42.088 22.952C43.3253 22.952 44.2693 22.6267 44.92 21.976C45.5707 21.3147 45.896 20.4133 45.896 19.272C45.896 18.1307 45.5707 17.2347 44.92 16.584C44.2693 15.9227 43.3253 15.592 42.088 15.592H40.472V22.952H42.088ZM49.524 16.84H51.492V17.928H51.62C51.8227 17.544 52.1373 17.2293 52.564 16.984C52.9907 16.728 53.46 16.6 53.972 16.6C54.3453 16.6 54.6867 16.6587 54.996 16.776V18.872C54.708 18.7653 54.4627 18.6907 54.26 18.648C54.068 18.5947 53.86 18.568 53.636 18.568C53.0173 18.568 52.5267 18.792 52.164 19.24C51.8013 19.688 51.62 20.2533 51.62 20.936V25H49.524V16.84ZM58.5981 25.256C57.7341 25.256 57.0248 25.0053 56.4701 24.504C55.9155 23.992 55.6381 23.3253 55.6381 22.504C55.6381 21.96 55.7821 21.48 56.0701 21.064C56.3581 20.648 56.7528 20.328 57.2541 20.104C57.7555 19.88 58.3101 19.768 58.9181 19.768C59.7608 19.768 60.4808 19.8907 61.0781 20.136V19.784C61.0781 19.336 60.9075 18.9733 60.5661 18.696C60.2355 18.4187 59.7875 18.28 59.2221 18.28C58.8381 18.28 58.4648 18.3707 58.1021 18.552C57.7501 18.7227 57.4568 18.952 57.2221 19.24L55.8781 18.184C56.2728 17.672 56.7688 17.2773 57.3661 17C57.9635 16.7227 58.6141 16.584 59.3181 16.584C60.5661 16.584 61.5155 16.872 62.1661 17.448C62.8168 18.024 63.1421 18.8667 63.1421 19.976V25H61.0781V24.168H60.9501C60.7048 24.488 60.3795 24.7493 59.9741 24.952C59.5795 25.1547 59.1208 25.256 58.5981 25.256ZM59.0941 23.624C59.7021 23.624 60.1821 23.432 60.5341 23.048C60.8968 22.6533 61.0781 22.1947 61.0781 21.672C60.5341 21.416 59.9635 21.288 59.3661 21.288C58.2781 21.288 57.7341 21.6933 57.7341 22.504C57.7341 22.8347 57.8515 23.1067 58.0861 23.32C58.3208 23.5227 58.6568 23.624 59.0941 23.624ZM68.7528 28.712C67.7181 28.712 66.8594 28.4773 66.1768 28.008C65.4941 27.5493 65.0354 26.9947 64.8008 26.344L66.7688 25.544C66.9394 25.9493 67.2008 26.2693 67.5528 26.504C67.9048 26.7387 68.3048 26.856 68.7528 26.856C69.4141 26.856 69.9368 26.6533 70.3208 26.248C70.7154 25.8427 70.9128 25.2667 70.9128 24.52V23.88H70.7848C70.5288 24.2427 70.1928 24.52 69.7768 24.712C69.3608 24.904 68.8861 25 68.3528 25C67.6808 25 67.0514 24.8293 66.4648 24.488C65.8888 24.136 65.4248 23.6453 65.0728 23.016C64.7208 22.376 64.5448 21.6347 64.5448 20.792C64.5448 19.9493 64.7208 19.2133 65.0728 18.584C65.4248 17.944 65.8888 17.4533 66.4648 17.112C67.0514 16.76 67.6808 16.584 68.3528 16.584C68.8861 16.584 69.3608 16.68 69.7768 16.872C70.1928 17.064 70.5288 17.3413 70.7848 17.704H70.9128V16.84H72.9288V24.44C72.9288 25.3147 72.7581 26.072 72.4167 26.712C72.0754 27.352 71.5901 27.8427 70.9608 28.184C70.3314 28.536 69.5954 28.712 68.7528 28.712ZM68.7848 23.096C69.3714 23.096 69.8728 22.8933 70.2888 22.488C70.7048 22.072 70.9128 21.5067 70.9128 20.792C70.9128 20.056 70.7048 19.4907 70.2888 19.096C69.8834 18.6907 69.3821 18.488 68.7848 18.488C68.1874 18.488 67.6808 18.6907 67.2648 19.096C66.8488 19.5013 66.6408 20.0667 66.6408 20.792C66.6408 21.5173 66.8488 22.0827 67.2648 22.488C67.6808 22.8933 68.1874 23.096 68.7848 23.096ZM78.803 25.256C77.9603 25.256 77.2083 25.0693 76.547 24.696C75.8857 24.312 75.3683 23.7947 74.995 23.144C74.6323 22.4827 74.451 21.7413 74.451 20.92C74.451 20.1093 74.6323 19.3733 74.995 18.712C75.3683 18.0507 75.8857 17.5333 76.547 17.16C77.2083 16.776 77.9603 16.584 78.803 16.584C79.635 16.584 80.3817 16.776 81.043 17.16C81.7043 17.5333 82.2163 18.0507 82.579 18.712C82.9523 19.3733 83.139 20.1093 83.139 20.92C83.139 21.7413 82.9523 22.4827 82.579 23.144C82.2163 23.7947 81.7043 24.312 81.043 24.696C80.3817 25.0693 79.635 25.256 78.803 25.256ZM78.803 23.32C79.2083 23.32 79.5817 23.224 79.923 23.032C80.2643 22.84 80.5363 22.5627 80.739 22.2C80.9417 21.8373 81.043 21.4107 81.043 20.92C81.043 20.44 80.9417 20.0187 80.739 19.656C80.5363 19.2933 80.2643 19.016 79.923 18.824C79.5817 18.632 79.2083 18.536 78.803 18.536C78.3977 18.536 78.0243 18.632 77.683 18.824C77.3417 19.016 77.0643 19.2933 76.851 19.656C76.6483 20.0187 76.547 20.44 76.547 20.92C76.547 21.4 76.6483 21.8267 76.851 22.2C77.0643 22.5627 77.3417 22.84 77.683 23.032C78.0243 23.224 78.3977 23.32 78.803 23.32ZM84.5865 16.84H86.5545V17.864H86.6825C86.9278 17.4693 87.2745 17.16 87.7225 16.936C88.1705 16.7013 88.6558 16.584 89.1785 16.584C90.1598 16.584 90.9065 16.8827 91.4185 17.48C91.9305 18.0773 92.1865 18.8933 92.1865 19.928V25H90.0905V20.184C90.0905 19.6613 89.9572 19.256 89.6905 18.968C89.4238 18.68 89.0505 18.536 88.5705 18.536C88.0052 18.536 87.5465 18.7547 87.1945 19.192C86.8532 19.6293 86.6825 20.1787 86.6825 20.84V25H84.5865V16.84Z" fill="white"/>
<path d="M20 32C26.6274 32 32 26.6274 32 20C32 13.3726 26.6274 8 20 8C13.3726 8 8 13.3726 8 20C8 26.6274 13.3726 32 20 32Z" fill="#096DC4"/>
<path d="M26.9168 18.7794C26.6071 17.2384 25.7886 15.8461 24.5927 14.826C23.3969 13.806 21.893 13.2173 20.3224 13.1544C20.6089 12.3644 20.5942 11.4966 20.2812 10.7169C19.9142 11.5441 19.3701 12.2808 18.6874 12.875C18.3965 13.1496 18.0652 13.3779 17.7049 13.5519C17.3478 13.6894 16.9986 13.8465 16.6587 14.0225C15.3354 14.7593 14.2837 15.9016 13.6587 17.2812C13.2986 18.0793 13.0919 18.938 13.0493 19.8125C13.8237 19.5702 14.6128 19.3779 15.4118 19.2369C16.1206 19.1131 16.8387 19.0494 17.5512 18.9537C18.8637 18.7662 19.8968 18.005 20.6206 16.8912C21.5355 17.1855 22.3013 17.8218 22.7583 18.6673C23.2153 19.5128 23.3281 20.5021 23.073 21.4287C22.818 22.3553 22.215 23.1476 21.3898 23.6403C20.5646 24.1329 19.581 24.2877 18.6443 24.0725C19.0054 24.8832 19.5755 25.5834 20.2962 26.1012C20.6631 26.3642 21.0643 26.5755 21.4887 26.7294C21.6768 26.8222 21.8846 26.8679 22.0943 26.8625C22.3368 26.8037 22.572 26.7181 22.7956 26.6075C24.2793 25.976 25.4999 24.8522 26.2514 23.4254C27.0028 21.9986 27.2392 20.3564 26.9206 18.7756L26.9168 18.7794ZM15.6518 16.4375C15.8551 16.235 16.1021 16.0819 16.3739 15.9899C16.6456 15.8979 16.9349 15.8695 17.2193 15.9069C17.253 16.1902 17.222 16.4774 17.1287 16.747C17.0354 17.0167 16.8822 17.2616 16.6807 17.4636C16.4791 17.6655 16.2344 17.8191 15.965 17.9129C15.6955 18.0067 15.4083 18.0381 15.1249 18.005C15.0871 17.7208 15.1149 17.4317 15.2062 17.16C15.2976 16.8883 15.45 16.6411 15.6518 16.4375ZM19.3268 27.1362C17.8639 26.9847 16.4857 26.3771 15.3871 25.3992C14.2884 24.4214 13.5251 23.123 13.2049 21.6875C14.7303 20.8569 16.4467 20.4405 18.1831 20.48C17.5908 21.3801 17.3114 22.4502 17.3881 23.525C17.4349 24.2304 17.6322 24.9176 17.9666 25.5404C18.301 26.1633 18.7648 26.7074 19.3268 27.1362Z" fill="white"/>
</svg>
