<svg width="380" height="360" viewBox="0 0 380 360" fill="none" xmlns="http://www.w3.org/2000/svg">
<rect width="380" height="360" fill="#004988"/>
<mask id="mask0_58_1003" style="mask-type:alpha" maskUnits="userSpaceOnUse" x="0" y="0" width="380" height="360">
<rect width="380" height="360" fill="#D9D9D9"/>
</mask>
<g mask="url(#mask0_58_1003)">
<path d="M190 460C245.228 460 290 415.228 290 360C290 304.772 245.228 260 190 260C134.772 260 90 304.772 90 360C90 415.228 134.772 460 190 460Z" fill="#004988"/>
<path d="M247.64 349.828C245.059 336.987 238.238 325.385 228.273 316.884C218.307 308.384 205.775 303.478 192.687 302.953C195.074 296.371 194.952 289.139 192.343 282.641C189.285 289.535 184.751 295.674 179.062 300.625C176.638 302.914 173.876 304.816 170.875 306.266C167.899 307.412 164.988 308.722 162.156 310.188C151.128 316.328 142.365 325.847 137.156 337.344C134.155 343.995 132.432 351.15 132.078 358.438C138.531 356.419 145.107 354.817 151.765 353.641C157.671 352.61 163.656 352.078 169.593 351.282C180.531 349.719 189.14 343.375 195.171 334.094C202.796 336.547 209.178 341.849 212.986 348.895C216.794 355.94 217.734 364.184 215.609 371.906C213.484 379.628 208.458 386.231 201.582 390.336C194.705 394.441 186.508 395.732 178.703 393.938C181.712 400.694 186.462 406.528 192.468 410.844C195.526 413.035 198.869 414.797 202.406 416.079C203.973 416.852 205.705 417.233 207.453 417.188C209.473 416.698 211.433 415.985 213.296 415.063C225.661 409.801 235.833 400.435 242.095 388.546C248.357 376.656 250.327 362.97 247.671 349.797L247.64 349.828ZM153.765 330.313C155.459 328.626 157.518 327.349 159.782 326.583C162.047 325.816 164.457 325.58 166.828 325.891C167.108 328.252 166.85 330.646 166.073 332.893C165.295 335.139 164.019 337.181 162.339 338.864C160.659 340.546 158.62 341.826 156.375 342.608C154.129 343.389 151.736 343.652 149.375 343.375C149.059 341.007 149.291 338.598 150.052 336.334C150.813 334.069 152.083 332.01 153.765 330.313ZM184.39 419.469C172.199 418.206 160.714 413.143 151.559 404.994C142.404 396.846 136.042 386.025 133.375 374.063C146.086 367.141 160.389 363.672 174.859 364C169.923 371.501 167.595 380.419 168.234 389.375C168.625 395.254 170.268 400.98 173.055 406.171C175.842 411.361 179.706 415.896 184.39 419.469Z" fill="#2B77B9"/>
<circle cx="190" cy="-20.0001" r="200" transform="rotate(-45 190 -20.0001)" fill="#2B77B9"/>
<circle cx="190.002" cy="-20.0001" r="75" transform="rotate(-45 190.002 -20.0001)" fill="#004988"/>
<rect x="39.7397" y="112.582" width="400" height="25" transform="rotate(-45 39.7397 112.582)" fill="#004988"/>
<circle cx="189.997" cy="-19.9945" r="50" transform="rotate(-45 189.997 -19.9945)" fill="#2B77B9"/>
</g>
</svg>
