<svg width="60" height="60" viewBox="0 0 60 60" fill="none" xmlns="http://www.w3.org/2000/svg">
<path d="M30 60C46.5685 60 60 46.5685 60 30C60 13.4315 46.5685 0 30 0C13.4315 0 0 13.4315 0 30C0 46.5685 13.4315 60 30 60Z" fill="#096DC4"/>
<path d="M47.2923 26.9484C46.5179 23.096 44.4717 19.6153 41.4821 17.0652C38.4925 14.515 34.7327 13.0432 30.8063 12.8859C31.5226 10.9111 31.4858 8.74163 30.7032 6.79219C29.7857 8.86038 28.4256 10.7021 26.7188 12.1875C25.9915 12.874 25.1631 13.4447 24.2626 13.8797C23.3698 14.2236 22.4966 14.6164 21.647 15.0563C18.3387 16.8983 15.7096 19.7541 14.147 23.2031C13.2467 25.1983 12.7299 27.345 12.6235 29.5313C14.5594 28.9255 16.5322 28.4449 18.5298 28.0922C20.3017 27.7828 22.097 27.6234 23.8782 27.3844C27.1595 26.9156 29.7423 25.0125 31.5517 22.2281C33.8389 22.9639 35.7536 24.5546 36.896 26.6683C38.0385 28.782 38.3204 31.2552 37.6829 33.5718C37.0454 35.8883 35.5377 37.8691 33.4747 39.1007C31.4117 40.3323 28.9527 40.7194 26.611 40.1813C27.5137 42.208 28.9389 43.9584 30.7407 45.2531C31.658 45.9105 32.6611 46.4389 33.722 46.8234C34.1922 47.0555 34.7118 47.1697 35.236 47.1563C35.8422 47.0092 36.4301 46.7954 36.9892 46.5188C40.6986 44.9402 43.7501 42.1304 45.6287 38.5635C47.5074 34.9967 48.0982 30.891 47.3017 26.9391L47.2923 26.9484ZM19.1298 21.0938C19.638 20.5876 20.2555 20.2047 20.9349 19.9747C21.6143 19.7448 22.3374 19.6738 23.0485 19.7672C23.1327 20.4755 23.0553 21.1936 22.822 21.8677C22.5888 22.5417 22.2059 23.1542 21.7019 23.659C21.198 24.1638 20.5863 24.5478 19.9127 24.7822C19.239 25.0167 18.521 25.0954 17.8126 25.0125C17.718 24.3021 17.7875 23.5794 18.0158 22.9001C18.2442 22.2207 18.6253 21.6028 19.1298 21.0938ZM28.3173 47.8406C24.66 47.4618 21.2144 45.9427 18.4679 43.4982C15.7214 41.0536 13.8129 37.8074 13.0126 34.2188C16.826 32.1422 21.117 31.1014 25.4579 31.2C23.9773 33.4503 23.2788 36.1256 23.4704 38.8125C23.5876 40.576 24.0807 42.294 24.9167 43.8512C25.7527 45.4083 26.9122 46.7686 28.3173 47.8406Z" fill="white"/>
</svg>
