<svg width="100" height="40" viewBox="0 0 100 40" fill="none" xmlns="http://www.w3.org/2000/svg">
<rect width="100" height="40" rx="8" fill="#F3D23B"/>
<path d="M37.312 13.544H44.576V15.592H39.472V18.248H44.064V20.296H39.472V22.952H44.576V25H37.312V13.544ZM46.5084 13.544H48.6044V25H46.5084V13.544ZM54.4105 25.256C53.5998 25.256 52.8692 25.0693 52.2185 24.696C51.5678 24.3227 51.0558 23.8107 50.6825 23.16C50.3198 22.4987 50.1385 21.7573 50.1385 20.936C50.1385 20.1573 50.3198 19.4373 50.6825 18.776C51.0452 18.104 51.5465 17.5707 52.1865 17.176C52.8265 16.7813 53.5412 16.584 54.3305 16.584C55.1732 16.584 55.8985 16.7653 56.5065 17.128C57.1145 17.4907 57.5732 17.9867 57.8825 18.616C58.2025 19.2453 58.3625 19.944 58.3625 20.712C58.3625 20.9573 58.3465 21.192 58.3145 21.416H52.1865C52.2932 22.0667 52.5492 22.5627 52.9545 22.904C53.3705 23.2347 53.8665 23.4 54.4425 23.4C54.9225 23.4 55.3332 23.2987 55.6745 23.096C56.0265 22.8827 56.3038 22.6 56.5065 22.248L58.2025 23.08C57.3705 24.5307 56.1065 25.256 54.4105 25.256ZM56.3465 19.928C56.3252 19.672 56.2292 19.4213 56.0585 19.176C55.8985 18.92 55.6692 18.712 55.3705 18.552C55.0825 18.3813 54.7412 18.296 54.3465 18.296C53.8452 18.296 53.4132 18.4453 53.0505 18.744C52.6985 19.032 52.4425 19.4267 52.2825 19.928H56.3465ZM63.8953 25.256C63.0739 25.256 62.3379 25.0747 61.6873 24.712C61.0366 24.3387 60.5246 23.8213 60.1513 23.16C59.7886 22.4987 59.6073 21.752 59.6073 20.92C59.6073 20.088 59.7886 19.3467 60.1513 18.696C60.5246 18.0347 61.0366 17.5173 61.6873 17.144C62.3379 16.7707 63.0739 16.584 63.8953 16.584C64.8019 16.584 65.5806 16.7813 66.2313 17.176C66.8819 17.56 67.3513 18.1093 67.6393 18.824L65.7193 19.624C65.3779 18.8987 64.7699 18.536 63.8953 18.536C63.2553 18.536 62.7273 18.7547 62.3113 19.192C61.9059 19.6293 61.7033 20.2053 61.7033 20.92C61.7033 21.6453 61.9059 22.2267 62.3113 22.664C62.7273 23.1013 63.2553 23.32 63.8953 23.32C64.7806 23.32 65.4206 22.936 65.8153 22.168L67.7193 23C67.3673 23.7147 66.8659 24.2693 66.2153 24.664C65.5646 25.0587 64.7913 25.256 63.8953 25.256ZM72.701 25.128C72.2957 25.128 71.9223 25.0693 71.581 24.952C71.2397 24.824 70.9623 24.6533 70.749 24.44C70.2477 23.96 69.997 23.2773 69.997 22.392V18.632H68.573V16.84H69.997V14.536H72.093V16.84H74.093V18.632H72.093V22.008C72.093 22.424 72.1837 22.7227 72.365 22.904C72.5143 23.0747 72.7703 23.16 73.133 23.16C73.3357 23.16 73.501 23.1333 73.629 23.08C73.7677 23.0267 73.9437 22.936 74.157 22.808V24.856C73.6983 25.0373 73.213 25.128 72.701 25.128ZM75.8365 16.84H77.8045V17.928H77.9325C78.1352 17.544 78.4498 17.2293 78.8765 16.984C79.3032 16.728 79.7725 16.6 80.2845 16.6C80.6578 16.6 80.9992 16.6587 81.3085 16.776V18.872C81.0205 18.7653 80.7752 18.6907 80.5725 18.648C80.3805 18.5947 80.1725 18.568 79.9485 18.568C79.3298 18.568 78.8392 18.792 78.4765 19.24C78.1138 19.688 77.9325 20.2533 77.9325 20.936V25H75.8365V16.84ZM83.8486 15.944C83.4753 15.944 83.1553 15.8107 82.8886 15.544C82.622 15.2773 82.4886 14.9573 82.4886 14.584C82.4886 14.2107 82.622 13.896 82.8886 13.64C83.1553 13.3733 83.4753 13.24 83.8486 13.24C84.222 13.24 84.5366 13.3733 84.7926 13.64C85.0593 13.896 85.1926 14.2107 85.1926 14.584C85.1926 14.9573 85.0593 15.2773 84.7926 15.544C84.5366 15.8107 84.222 15.944 83.8486 15.944ZM82.7926 16.84H84.8886V25H82.7926V16.84ZM90.8484 25.256C90.027 25.256 89.291 25.0747 88.6404 24.712C87.9897 24.3387 87.4777 23.8213 87.1044 23.16C86.7417 22.4987 86.5604 21.752 86.5604 20.92C86.5604 20.088 86.7417 19.3467 87.1044 18.696C87.4777 18.0347 87.9897 17.5173 88.6404 17.144C89.291 16.7707 90.027 16.584 90.8484 16.584C91.755 16.584 92.5337 16.7813 93.1844 17.176C93.835 17.56 94.3044 18.1093 94.5924 18.824L92.6724 19.624C92.331 18.8987 91.723 18.536 90.8484 18.536C90.2084 18.536 89.6804 18.7547 89.2644 19.192C88.859 19.6293 88.6564 20.2053 88.6564 20.92C88.6564 21.6453 88.859 22.2267 89.2644 22.664C89.6804 23.1013 90.2084 23.32 90.8484 23.32C91.7337 23.32 92.3737 22.936 92.7684 22.168L94.6724 23C94.3204 23.7147 93.819 24.2693 93.1684 24.664C92.5177 25.0587 91.7444 25.256 90.8484 25.256Z" fill="white"/>
<path d="M20 32C26.6274 32 32 26.6274 32 20C32 13.3726 26.6274 8 20 8C13.3726 8 8 13.3726 8 20C8 26.6274 13.3726 32 20 32Z" fill="#F3D23B"/>
<path d="M16.0625 13.4375H21.875L24.3125 21.125L20.5625 20.9375L22.8125 27.3125L13.8125 18.0312H18.125L16.0625 13.4375Z" fill="white"/>
</svg>
