<svg width="60" height="60" viewBox="0 0 60 60" fill="none" xmlns="http://www.w3.org/2000/svg">
<path d="M30 60C46.5685 60 60 46.5685 60 30C60 13.4315 46.5685 0 30 0C13.4315 0 0 13.4315 0 30C0 46.5685 13.4315 60 30 60Z" fill="#EC8FE6"/>
<path d="M52.0312 30L40.3125 23.5969L41.9344 18.0516L36.4031 19.6875L30 7.96875L23.5969 19.6875L18.0516 18.0516L19.6875 23.5969L7.96875 30L19.6875 36.4031L18.0516 41.9484L23.5969 40.3125L30 52.0312L36.4031 40.3125L41.9484 41.9344L40.3125 36.4031L52.0312 30ZM33.15 33.15L30 38.9062L26.85 33.15L21.0938 30L26.85 26.85L30 21.0938L33.15 26.85L38.9062 30L33.15 33.15Z" fill="white"/>
</svg>
