<svg width="100" height="40" viewBox="0 0 100 40" fill="none" xmlns="http://www.w3.org/2000/svg">
<rect width="100" height="40" rx="8" fill="#EC8FE6"/>
<path d="M47.312 13.544H54.576V15.592H49.472V18.376H54.064V20.424H49.472V25H47.312V13.544ZM58.3794 25.256C57.5154 25.256 56.806 25.0053 56.2514 24.504C55.6967 23.992 55.4194 23.3253 55.4194 22.504C55.4194 21.96 55.5634 21.48 55.8514 21.064C56.1394 20.648 56.534 20.328 57.0354 20.104C57.5367 19.88 58.0914 19.768 58.6994 19.768C59.542 19.768 60.262 19.8907 60.8594 20.136V19.784C60.8594 19.336 60.6887 18.9733 60.3474 18.696C60.0167 18.4187 59.5687 18.28 59.0034 18.28C58.6194 18.28 58.246 18.3707 57.8834 18.552C57.5314 18.7227 57.238 18.952 57.0034 19.24L55.6594 18.184C56.054 17.672 56.55 17.2773 57.1474 17C57.7447 16.7227 58.3954 16.584 59.0994 16.584C60.3474 16.584 61.2967 16.872 61.9474 17.448C62.598 18.024 62.9234 18.8667 62.9234 19.976V25H60.8594V24.168H60.7314C60.486 24.488 60.1607 24.7493 59.7554 24.952C59.3607 25.1547 58.902 25.256 58.3794 25.256ZM58.8754 23.624C59.4834 23.624 59.9634 23.432 60.3154 23.048C60.678 22.6533 60.8594 22.1947 60.8594 21.672C60.3154 21.416 59.7447 21.288 59.1474 21.288C58.0594 21.288 57.5154 21.6933 57.5154 22.504C57.5154 22.8347 57.6327 23.1067 57.8674 23.32C58.102 23.5227 58.438 23.624 58.8754 23.624ZM66.0361 15.944C65.6628 15.944 65.3428 15.8107 65.0761 15.544C64.8095 15.2773 64.6761 14.9573 64.6761 14.584C64.6761 14.2107 64.8095 13.896 65.0761 13.64C65.3428 13.3733 65.6628 13.24 66.0361 13.24C66.4095 13.24 66.7241 13.3733 66.9801 13.64C67.2468 13.896 67.3801 14.2107 67.3801 14.584C67.3801 14.9573 67.2468 15.2773 66.9801 15.544C66.7241 15.8107 66.4095 15.944 66.0361 15.944ZM64.9801 16.84H67.0761V25H64.9801V16.84ZM69.274 16.84H71.242V17.928H71.37C71.5727 17.544 71.8873 17.2293 72.314 16.984C72.7407 16.728 73.21 16.6 73.722 16.6C74.0953 16.6 74.4367 16.6587 74.746 16.776V18.872C74.458 18.7653 74.2127 18.6907 74.01 18.648C73.818 18.5947 73.61 18.568 73.386 18.568C72.7673 18.568 72.2767 18.792 71.914 19.24C71.5513 19.688 71.37 20.2533 71.37 20.936V25H69.274V16.84ZM79.0055 24.616L75.5655 16.84H77.9495L80.0615 21.912H80.1895L82.2215 16.84H84.5575L79.5175 28.456H77.2615L79.0055 24.616Z" fill="white"/>
<path d="M20 32C26.6274 32 32 26.6274 32 20C32 13.3726 26.6274 8 20 8C13.3726 8 8 13.3726 8 20C8 26.6274 13.3726 32 20 32Z" fill="#EC8FE6"/>
<path d="M28.8125 20L24.125 17.4388L24.7738 15.2206L22.5613 15.875L20 11.1875L17.4388 15.875L15.2206 15.2206L15.875 17.4388L11.1875 20L15.875 22.5613L15.2206 24.7794L17.4388 24.125L20 28.8125L22.5613 24.125L24.7794 24.7738L24.125 22.5613L28.8125 20ZM21.26 21.26L20 23.5625L18.74 21.26L16.4375 20L18.74 18.74L20 16.4375L21.26 18.74L23.5625 20L21.26 21.26Z" fill="white"/>
</svg>
