<svg width="60" height="60" viewBox="0 0 60 60" fill="none" xmlns="http://www.w3.org/2000/svg">
<path d="M30 60C46.5685 60 60 46.5685 60 30C60 13.4315 46.5685 0 30 0C13.4315 0 0 13.4315 0 30C0 46.5685 13.4315 60 30 60Z" fill="#CE4069"/>
<path d="M10.7484 38.0344L13.0922 43.7484C13.2642 44.1704 13.5776 44.5194 13.9787 44.7357C14.3797 44.952 14.8435 45.0221 15.2906 44.9341C15.7377 44.846 16.1403 44.6052 16.4293 44.2529C16.7184 43.9006 16.8759 43.4588 16.875 43.0031V26.3719C16.8759 25.9162 16.7184 25.4744 16.4293 25.1221C16.1403 24.7698 15.7377 24.529 15.2906 24.441C14.8435 24.3529 14.3797 24.423 13.9787 24.6393C13.5776 24.8556 13.2642 25.2046 13.0922 25.6266L10.7484 31.3406C9.86705 33.4848 9.86705 35.8902 10.7484 38.0344Z" fill="white"/>
<path d="M47.5781 42.7734V18.1641C47.5781 17.5114 47.3188 16.8854 46.8573 16.4239C46.3958 15.9624 45.7699 15.7031 45.1172 15.7031H43.9453C43.2926 15.7031 42.6667 15.9624 42.2052 16.4239C41.7437 16.8854 41.4844 17.5114 41.4844 18.1641V26.1703C41.4844 26.3779 41.4019 26.577 41.2551 26.7238C41.1083 26.8707 40.9092 26.9531 40.7016 26.9531C40.599 26.9531 40.4974 26.9328 40.4027 26.8934C40.308 26.8541 40.222 26.7963 40.1497 26.7236C40.0774 26.6508 40.0201 26.5645 39.9813 26.4695C39.9425 26.3746 39.9228 26.2729 39.9234 26.1703V18.1641C39.9234 17.5114 39.6642 16.8854 39.2026 16.4239C38.7411 15.9624 38.1152 15.7031 37.4625 15.7031H36.2906C35.6379 15.7031 35.012 15.9624 34.5505 16.4239C34.089 16.8854 33.8297 17.5114 33.8297 18.1641V26.1703C33.8297 26.3779 33.7472 26.577 33.6004 26.7238C33.4536 26.8707 33.2545 26.9531 33.0469 26.9531C32.8393 26.9531 32.6401 26.8707 32.4933 26.7238C32.3465 26.577 32.2641 26.3779 32.2641 26.1703V18.1641C32.2641 17.5114 32.0048 16.8854 31.5433 16.4239C31.0818 15.9624 30.4558 15.7031 29.8031 15.7031H28.6313C27.9786 15.7031 27.3526 15.9624 26.8911 16.4239C26.4296 16.8854 26.1703 17.5114 26.1703 18.1641V26.1703C26.1709 26.2729 26.1513 26.3746 26.1124 26.4695C26.0736 26.5645 26.0164 26.6508 25.9441 26.7236C25.8718 26.7963 25.7858 26.8541 25.691 26.8934C25.5963 26.9328 25.4948 26.9531 25.3922 26.9531C25.1846 26.9531 24.9855 26.8707 24.8387 26.7238C24.6918 26.577 24.6094 26.3779 24.6094 26.1703V18.1641C24.6094 17.5114 24.3501 16.8854 23.8886 16.4239C23.4271 15.9624 22.8011 15.7031 22.1484 15.7031H20.9766C20.3239 15.7031 19.6979 15.9624 19.2364 16.4239C18.7749 16.8854 18.5156 17.5114 18.5156 18.1641V42.7734C18.5156 43.4261 18.7749 44.0521 19.2364 44.5136C19.6979 44.9751 20.3239 45.2344 20.9766 45.2344H45.1172C45.7699 45.2344 46.3958 44.9751 46.8573 44.5136C47.3188 44.0521 47.5781 43.4261 47.5781 42.7734Z" fill="white"/>
</svg>
