<svg width="100" height="40" viewBox="0 0 100 40" fill="none" xmlns="http://www.w3.org/2000/svg">
<rect width="100" height="40" rx="8" fill="#CE4069"/>
<path d="M35.312 13.544H42.576V15.592H37.472V18.376H42.064V20.424H37.472V25H35.312V13.544ZM45.2236 15.944C44.8503 15.944 44.5303 15.8107 44.2636 15.544C43.997 15.2773 43.8636 14.9573 43.8636 14.584C43.8636 14.2107 43.997 13.896 44.2636 13.64C44.5303 13.3733 44.8503 13.24 45.2236 13.24C45.597 13.24 45.9116 13.3733 46.1676 13.64C46.4343 13.896 46.5676 14.2107 46.5676 14.584C46.5676 14.9573 46.4343 15.2773 46.1676 15.544C45.9116 15.8107 45.597 15.944 45.2236 15.944ZM44.1676 16.84H46.2636V25H44.1676V16.84ZM52.1434 28.712C51.1087 28.712 50.25 28.4773 49.5674 28.008C48.8847 27.5493 48.426 26.9947 48.1914 26.344L50.1594 25.544C50.33 25.9493 50.5914 26.2693 50.9434 26.504C51.2954 26.7387 51.6954 26.856 52.1434 26.856C52.8047 26.856 53.3274 26.6533 53.7114 26.248C54.106 25.8427 54.3034 25.2667 54.3034 24.52V23.88H54.1754C53.9194 24.2427 53.5834 24.52 53.1674 24.712C52.7514 24.904 52.2767 25 51.7434 25C51.0714 25 50.442 24.8293 49.8554 24.488C49.2794 24.136 48.8154 23.6453 48.4634 23.016C48.1114 22.376 47.9354 21.6347 47.9354 20.792C47.9354 19.9493 48.1114 19.2133 48.4634 18.584C48.8154 17.944 49.2794 17.4533 49.8554 17.112C50.442 16.76 51.0714 16.584 51.7434 16.584C52.2767 16.584 52.7514 16.68 53.1674 16.872C53.5834 17.064 53.9194 17.3413 54.1754 17.704H54.3034V16.84H56.3194V24.44C56.3194 25.3147 56.1487 26.072 55.8074 26.712C55.466 27.352 54.9807 27.8427 54.3514 28.184C53.722 28.536 52.986 28.712 52.1434 28.712ZM52.1754 23.096C52.762 23.096 53.2634 22.8933 53.6794 22.488C54.0954 22.072 54.3034 21.5067 54.3034 20.792C54.3034 20.056 54.0954 19.4907 53.6794 19.096C53.274 18.6907 52.7727 18.488 52.1754 18.488C51.578 18.488 51.0714 18.6907 50.6554 19.096C50.2394 19.5013 50.0314 20.0667 50.0314 20.792C50.0314 21.5173 50.2394 22.0827 50.6554 22.488C51.0714 22.8933 51.578 23.096 52.1754 23.096ZM58.3678 13.544H60.4638V16.44L60.3358 17.864H60.4638C60.6984 17.48 61.0398 17.1707 61.4878 16.936C61.9358 16.7013 62.4211 16.584 62.9438 16.584C63.9358 16.584 64.6931 16.8827 65.2158 17.48C65.7491 18.0667 66.0158 18.8827 66.0158 19.928V25H63.9198V20.184C63.9198 19.6613 63.7758 19.256 63.4878 18.968C63.2104 18.68 62.8371 18.536 62.3678 18.536C61.8131 18.536 61.3544 18.76 60.9918 19.208C60.6398 19.656 60.4638 20.2053 60.4638 20.856V25H58.3678V13.544ZM71.1385 25.128C70.7332 25.128 70.3598 25.0693 70.0185 24.952C69.6772 24.824 69.3998 24.6533 69.1865 24.44C68.6852 23.96 68.4345 23.2773 68.4345 22.392V18.632H67.0105V16.84H68.4345V14.536H70.5305V16.84H72.5305V18.632H70.5305V22.008C70.5305 22.424 70.6212 22.7227 70.8025 22.904C70.9518 23.0747 71.2078 23.16 71.5705 23.16C71.7732 23.16 71.9385 23.1333 72.0665 23.08C72.2052 23.0267 72.3812 22.936 72.5945 22.808V24.856C72.1358 25.0373 71.6505 25.128 71.1385 25.128ZM75.5361 15.944C75.1628 15.944 74.8428 15.8107 74.5761 15.544C74.3095 15.2773 74.1761 14.9573 74.1761 14.584C74.1761 14.2107 74.3095 13.896 74.5761 13.64C74.8428 13.3733 75.1628 13.24 75.5361 13.24C75.9095 13.24 76.2241 13.3733 76.4801 13.64C76.7468 13.896 76.8801 14.2107 76.8801 14.584C76.8801 14.9573 76.7468 15.2773 76.4801 15.544C76.2241 15.8107 75.9095 15.944 75.5361 15.944ZM74.4801 16.84H76.5761V25H74.4801V16.84ZM78.774 16.84H80.742V17.864H80.87C81.1153 17.4693 81.462 17.16 81.91 16.936C82.358 16.7013 82.8433 16.584 83.366 16.584C84.3473 16.584 85.094 16.8827 85.606 17.48C86.118 18.0773 86.374 18.8933 86.374 19.928V25H84.278V20.184C84.278 19.6613 84.1447 19.256 83.878 18.968C83.6113 18.68 83.238 18.536 82.758 18.536C82.1927 18.536 81.734 18.7547 81.382 19.192C81.0407 19.6293 80.87 20.1787 80.87 20.84V25H78.774V16.84ZM92.034 28.712C90.9993 28.712 90.1407 28.4773 89.458 28.008C88.7753 27.5493 88.3167 26.9947 88.082 26.344L90.05 25.544C90.2207 25.9493 90.482 26.2693 90.834 26.504C91.186 26.7387 91.586 26.856 92.034 26.856C92.6953 26.856 93.218 26.6533 93.602 26.248C93.9967 25.8427 94.194 25.2667 94.194 24.52V23.88H94.066C93.81 24.2427 93.474 24.52 93.058 24.712C92.642 24.904 92.1673 25 91.634 25C90.962 25 90.3327 24.8293 89.746 24.488C89.17 24.136 88.706 23.6453 88.354 23.016C88.002 22.376 87.826 21.6347 87.826 20.792C87.826 19.9493 88.002 19.2133 88.354 18.584C88.706 17.944 89.17 17.4533 89.746 17.112C90.3327 16.76 90.962 16.584 91.634 16.584C92.1673 16.584 92.642 16.68 93.058 16.872C93.474 17.064 93.81 17.3413 94.066 17.704H94.194V16.84H96.21V24.44C96.21 25.3147 96.0393 26.072 95.698 26.712C95.3567 27.352 94.8713 27.8427 94.242 28.184C93.6127 28.536 92.8767 28.712 92.034 28.712ZM92.066 23.096C92.6527 23.096 93.154 22.8933 93.57 22.488C93.986 22.072 94.194 21.5067 94.194 20.792C94.194 20.056 93.986 19.4907 93.57 19.096C93.1647 18.6907 92.6633 18.488 92.066 18.488C91.4687 18.488 90.962 18.6907 90.546 19.096C90.13 19.5013 89.922 20.0667 89.922 20.792C89.922 21.5173 90.13 22.0827 90.546 22.488C90.962 22.8933 91.4687 23.096 92.066 23.096Z" fill="white"/>
<path d="M20 32C26.6274 32 32 26.6274 32 20C32 13.3726 26.6274 8 20 8C13.3726 8 8 13.3726 8 20C8 26.6274 13.3726 32 20 32Z" fill="#CE4069"/>
<path d="M12.2993 23.2138L13.2368 25.4994C13.3056 25.6682 13.431 25.8078 13.5914 25.8943C13.7518 25.9808 13.9374 26.0089 14.1162 25.9737C14.295 25.9384 14.4561 25.8421 14.5717 25.7012C14.6873 25.5603 14.7503 25.3836 14.75 25.2013V18.5488C14.7503 18.3665 14.6873 18.1898 14.5717 18.0489C14.4561 17.908 14.295 17.8117 14.1162 17.7764C13.9374 17.7412 13.7518 17.7692 13.5914 17.8557C13.431 17.9423 13.3056 18.0819 13.2368 18.2507L12.2993 20.5363C11.9468 21.394 11.9468 22.3561 12.2993 23.2138Z" fill="white"/>
<path d="M27.0312 25.1094V15.2656C27.0312 15.0046 26.9275 14.7542 26.7429 14.5696C26.5583 14.385 26.3079 14.2812 26.0469 14.2812H25.5781C25.3171 14.2812 25.0667 14.385 24.8821 14.5696C24.6975 14.7542 24.5938 15.0046 24.5938 15.2656V18.4681C24.5938 18.5512 24.5608 18.6308 24.502 18.6895C24.4433 18.7483 24.3637 18.7812 24.2806 18.7812C24.2396 18.7813 24.199 18.7731 24.1611 18.7574C24.1232 18.7416 24.0888 18.7185 24.0599 18.6894C24.0309 18.6603 24.0081 18.6258 23.9925 18.5878C23.977 18.5498 23.9691 18.5092 23.9694 18.4681V15.2656C23.9694 15.0046 23.8657 14.7542 23.6811 14.5696C23.4965 14.385 23.2461 14.2812 22.985 14.2812H22.5162C22.2552 14.2812 22.0048 14.385 21.8202 14.5696C21.6356 14.7542 21.5319 15.0046 21.5319 15.2656V18.4681C21.5319 18.5512 21.4989 18.6308 21.4402 18.6895C21.3814 18.7483 21.3018 18.7812 21.2188 18.7812C21.1357 18.7812 21.0561 18.7483 20.9973 18.6895C20.9386 18.6308 20.9056 18.5512 20.9056 18.4681V15.2656C20.9056 15.0046 20.8019 14.7542 20.6173 14.5696C20.4327 14.385 20.1823 14.2812 19.9213 14.2812H19.4525C19.1914 14.2812 18.941 14.385 18.7564 14.5696C18.5718 14.7542 18.4681 15.0046 18.4681 15.2656V18.4681C18.4684 18.5092 18.4605 18.5498 18.445 18.5878C18.4294 18.6258 18.4066 18.6603 18.3776 18.6894C18.3487 18.7185 18.3143 18.7416 18.2764 18.7574C18.2385 18.7731 18.1979 18.7813 18.1569 18.7812C18.0738 18.7812 17.9942 18.7483 17.9355 18.6895C17.8767 18.6308 17.8438 18.5512 17.8438 18.4681V15.2656C17.8438 15.0046 17.74 14.7542 17.5554 14.5696C17.3708 14.385 17.1204 14.2812 16.8594 14.2812H16.3906C16.1296 14.2812 15.8792 14.385 15.6946 14.5696C15.51 14.7542 15.4062 15.0046 15.4062 15.2656V25.1094C15.4062 25.3704 15.51 25.6208 15.6946 25.8054C15.8792 25.99 16.1296 26.0938 16.3906 26.0938H26.0469C26.3079 26.0938 26.5583 25.99 26.7429 25.8054C26.9275 25.6208 27.0312 25.3704 27.0312 25.1094Z" fill="white"/>
</svg>
