<svg width="380" height="360" viewBox="0 0 380 360" fill="none" xmlns="http://www.w3.org/2000/svg">
<rect width="380" height="360" fill="#D0003C"/>
<mask id="mask0_58_857" style="mask-type:alpha" maskUnits="userSpaceOnUse" x="0" y="0" width="380" height="360">
<rect width="380" height="360" fill="#D9D9D9"/>
</mask>
<g mask="url(#mask0_58_857)">
<path d="M190 460C245.228 460 290 415.228 290 360C290 304.772 245.228 260 190 260C134.772 260 90 304.772 90 360C90 415.228 134.772 460 190 460Z" fill="#D0003C"/>
<path d="M125.83 386.782L133.642 405.828C134.216 407.235 135.26 408.398 136.597 409.119C137.934 409.84 139.48 410.074 140.971 409.781C142.461 409.487 143.803 408.684 144.766 407.51C145.73 406.336 146.255 404.863 146.252 403.344V347.907C146.255 346.388 145.73 344.915 144.766 343.741C143.803 342.566 142.461 341.764 140.971 341.47C139.48 341.177 137.934 341.41 136.597 342.131C135.26 342.852 134.216 344.016 133.642 345.422L125.83 364.469C122.892 371.616 122.892 379.634 125.83 386.782Z" fill="#FB80A3"/>
<path d="M248.594 402.578V320.547C248.594 318.371 247.729 316.285 246.191 314.746C244.653 313.208 242.566 312.344 240.391 312.344H236.484C234.309 312.344 232.222 313.208 230.684 314.746C229.146 316.285 228.281 318.371 228.281 320.547V347.234C228.281 347.926 228.006 348.59 227.517 349.079C227.028 349.569 226.364 349.844 225.672 349.844C225.33 349.844 224.991 349.776 224.676 349.645C224.36 349.514 224.073 349.321 223.832 349.079C223.591 348.836 223.4 348.548 223.271 348.232C223.142 347.915 223.076 347.576 223.078 347.234V320.547C223.078 318.371 222.214 316.285 220.675 314.746C219.137 313.208 217.051 312.344 214.875 312.344H210.969C208.793 312.344 206.707 313.208 205.168 314.746C203.63 316.285 202.766 318.371 202.766 320.547V347.234C202.766 347.926 202.491 348.59 202.001 349.079C201.512 349.569 200.848 349.844 200.156 349.844C199.464 349.844 198.8 349.569 198.311 349.079C197.822 348.59 197.547 347.926 197.547 347.234V320.547C197.547 318.371 196.683 316.285 195.144 314.746C193.606 313.208 191.519 312.344 189.344 312.344H185.438C183.262 312.344 181.175 313.208 179.637 314.746C178.099 316.285 177.234 318.371 177.234 320.547V347.234C177.236 347.576 177.171 347.915 177.041 348.232C176.912 348.548 176.721 348.836 176.48 349.079C176.239 349.321 175.953 349.514 175.637 349.645C175.321 349.776 174.983 349.844 174.641 349.844C173.949 349.844 173.285 349.569 172.796 349.079C172.306 348.59 172.031 347.926 172.031 347.234V320.547C172.031 318.371 171.167 316.285 169.629 314.746C168.09 313.208 166.004 312.344 163.828 312.344H159.922C157.746 312.344 155.66 313.208 154.121 314.746C152.583 316.285 151.719 318.371 151.719 320.547V402.578C151.719 404.754 152.583 406.84 154.121 408.379C155.66 409.917 157.746 410.781 159.922 410.781H240.391C242.566 410.781 244.653 409.917 246.191 408.379C247.729 406.84 248.594 404.754 248.594 402.578Z" fill="#FB80A3"/>
<circle cx="190" cy="-20.0001" r="200" transform="rotate(-45 190 -20.0001)" fill="#FB80A3"/>
<circle cx="190.002" cy="-20.0002" r="75" transform="rotate(-45 190.002 -20.0002)" fill="#D0003C"/>
<rect x="39.7397" y="112.582" width="400" height="25" transform="rotate(-45 39.7397 112.582)" fill="#D0003C"/>
<circle cx="189.997" cy="-19.9945" r="50" transform="rotate(-45 189.997 -19.9945)" fill="#FB80A3"/>
</g>
</svg>
