<svg width="60" height="60" viewBox="0 0 60 60" fill="none" xmlns="http://www.w3.org/2000/svg">
<path d="M30 60C46.5685 60 60 46.5685 60 30C60 13.4315 46.5685 0 30 0C13.4315 0 0 13.4315 0 30C0 46.5685 13.4315 60 30 60Z" fill="#FF9C54"/>
<path d="M40.1533 19.9734C44.9626 23.3906 47.7611 29.7094 45.6376 35.4422C43.6408 40.8469 38.058 44.2265 32.433 44.3859C33.4428 44.0292 34.3499 43.4307 35.0752 42.6428C35.8006 41.8549 36.322 40.9014 36.5941 39.8656C36.8662 38.8298 36.8807 37.7431 36.6363 36.7004C36.3919 35.6577 35.896 34.6907 35.1919 33.8837C34.4878 33.0767 33.5969 32.4544 32.5969 32.0709C31.597 31.6874 30.5184 31.5544 29.4553 31.6836C28.3921 31.8128 27.3768 32.2003 26.4978 32.8121C25.6188 33.4239 24.903 34.2416 24.4126 35.1937C22.0689 39.6937 25.772 44.1797 29.8126 45.975C34.3923 48.0187 39.6845 46.5094 43.3595 43.35C37.0314 52.0312 24.2205 53.5734 17.1892 44.9109C12.408 39.0187 12.2955 30.3797 16.6408 24.1406C15.5955 27.5203 16.4064 30.9375 19.2189 32.8125C16.4064 27.1875 18.2814 22.9265 22.097 19.1531C23.9345 17.3344 26.2736 16.6406 28.1908 15.0515C30.3001 13.3078 30.5767 10.4109 30.1736 7.8656C31.8393 8.73753 33.2144 10.0766 34.1303 11.7185C35.0462 13.3604 35.4631 15.234 35.3298 17.1094C30.0001 17.1328 28.0455 24.5484 32.7423 27.1875C37.3173 29.775 42.6283 24.6281 40.1533 19.9734Z" fill="white"/>
</svg>
