<svg width="100" height="40" viewBox="0 0 100 40" fill="none" xmlns="http://www.w3.org/2000/svg">
<rect width="100" height="40" rx="8" fill="#FF9C54"/>
<path d="M52.312 13.544H59.576V15.592H54.472V18.376H59.064V20.424H54.472V25H52.312V13.544ZM62.2236 15.944C61.8503 15.944 61.5303 15.8107 61.2636 15.544C60.997 15.2773 60.8636 14.9573 60.8636 14.584C60.8636 14.2107 60.997 13.896 61.2636 13.64C61.5303 13.3733 61.8503 13.24 62.2236 13.24C62.597 13.24 62.9116 13.3733 63.1676 13.64C63.4343 13.896 63.5676 14.2107 63.5676 14.584C63.5676 14.9573 63.4343 15.2773 63.1676 15.544C62.9116 15.8107 62.597 15.944 62.2236 15.944ZM61.1676 16.84H63.2636V25H61.1676V16.84ZM65.4615 16.84H67.4295V17.928H67.5575C67.7602 17.544 68.0748 17.2293 68.5015 16.984C68.9282 16.728 69.3975 16.6 69.9095 16.6C70.2828 16.6 70.6242 16.6587 70.9335 16.776V18.872C70.6455 18.7653 70.4002 18.6907 70.1975 18.648C70.0055 18.5947 69.7975 18.568 69.5735 18.568C68.9548 18.568 68.4642 18.792 68.1015 19.24C67.7388 19.688 67.5575 20.2533 67.5575 20.936V25H65.4615V16.84ZM75.6293 25.256C74.8186 25.256 74.0879 25.0693 73.4373 24.696C72.7866 24.3227 72.2746 23.8107 71.9013 23.16C71.5386 22.4987 71.3573 21.7573 71.3573 20.936C71.3573 20.1573 71.5386 19.4373 71.9013 18.776C72.2639 18.104 72.7653 17.5707 73.4053 17.176C74.0453 16.7813 74.7599 16.584 75.5493 16.584C76.3919 16.584 77.1173 16.7653 77.7253 17.128C78.3333 17.4907 78.7919 17.9867 79.1013 18.616C79.4213 19.2453 79.5813 19.944 79.5813 20.712C79.5813 20.9573 79.5653 21.192 79.5333 21.416H73.4053C73.5119 22.0667 73.7679 22.5627 74.1733 22.904C74.5893 23.2347 75.0853 23.4 75.6613 23.4C76.1413 23.4 76.5519 23.2987 76.8933 23.096C77.2453 22.8827 77.5226 22.6 77.7253 22.248L79.4213 23.08C78.5893 24.5307 77.3253 25.256 75.6293 25.256ZM77.5653 19.928C77.5439 19.672 77.4479 19.4213 77.2773 19.176C77.1173 18.92 76.8879 18.712 76.5893 18.552C76.3013 18.3813 75.9599 18.296 75.5653 18.296C75.0639 18.296 74.6319 18.4453 74.2693 18.744C73.9173 19.032 73.6613 19.4267 73.5013 19.928H77.5653Z" fill="white"/>
<path d="M20 32C26.6274 32 32 26.6274 32 20C32 13.3726 26.6274 8 20 8C13.3726 8 8 13.3726 8 20C8 26.6274 13.3726 32 20 32Z" fill="#FF9C54"/>
<path d="M24.0612 15.9894C25.985 17.3562 27.1044 19.8837 26.255 22.1769C25.4562 24.3387 23.2231 25.6906 20.9731 25.7544C21.377 25.6117 21.7399 25.3723 22.03 25.0571C22.3201 24.7419 22.5287 24.3606 22.6376 23.9462C22.7464 23.5319 22.7522 23.0972 22.6544 22.6802C22.5567 22.2631 22.3583 21.8763 22.0767 21.5535C21.795 21.2307 21.4387 20.9817 21.0387 20.8283C20.6387 20.6749 20.2073 20.6218 19.782 20.6734C19.3568 20.7251 18.9506 20.8801 18.599 21.1248C18.2475 21.3696 17.9611 21.6966 17.765 22.0775C16.8275 23.8775 18.3087 25.6719 19.925 26.39C21.7569 27.2075 23.8737 26.6037 25.3437 25.34C22.8125 28.8125 17.6881 29.4294 14.8756 25.9644C12.9631 23.6075 12.9181 20.1519 14.6562 17.6562C14.2381 19.0081 14.5625 20.375 15.6875 21.125C14.5625 18.875 15.3125 17.1706 16.8387 15.6612C17.5737 14.9337 18.5094 14.6562 19.2762 14.0206C20.12 13.3231 20.2306 12.1644 20.0694 11.1462C20.7356 11.495 21.2857 12.0306 21.652 12.6874C22.0184 13.3442 22.1851 14.0936 22.1319 14.8437C20 14.8531 19.2181 17.8194 21.0969 18.875C22.9269 19.91 25.0512 17.8512 24.0612 15.9894Z" fill="white"/>
</svg>
