<svg width="380" height="360" viewBox="0 0 380 360" fill="none" xmlns="http://www.w3.org/2000/svg">
<rect width="380" height="360" fill="#FF6B00"/>
<mask id="mask0_58_709" style="mask-type:alpha" maskUnits="userSpaceOnUse" x="0" y="0" width="380" height="360">
<rect width="380" height="360" fill="#D9D9D9"/>
</mask>
<g mask="url(#mask0_58_709)">
<path d="M222.778 327.472C238.618 338.747 247.835 359.595 240.841 378.511C234.264 396.343 215.877 407.494 197.351 408.02C200.676 406.843 203.664 404.868 206.053 402.269C208.442 399.669 210.16 396.523 211.056 393.105C211.952 389.688 212 386.102 211.195 382.662C210.39 379.222 208.756 376.031 206.437 373.369C204.118 370.706 201.184 368.652 197.891 367.387C194.597 366.122 191.045 365.683 187.543 366.109C184.042 366.536 180.698 367.814 177.803 369.833C174.908 371.852 172.55 374.549 170.935 377.691C163.216 392.538 175.412 407.34 188.72 413.263C203.804 420.006 221.234 415.026 233.338 404.602C212.496 433.245 170.302 438.334 147.144 409.752C131.397 390.311 131.026 361.807 145.338 341.222C141.895 352.373 144.566 363.648 153.829 369.834C144.566 351.275 150.741 337.216 163.308 324.766C169.36 318.765 177.064 316.476 183.379 311.233C190.326 305.479 191.237 295.921 189.909 287.523C195.395 290.4 199.924 294.818 202.941 300.235C205.957 305.653 207.33 311.835 206.892 318.022C189.338 318.1 182.9 342.567 198.37 351.275C213.438 359.812 230.93 342.83 222.778 327.472Z" fill="#FFB27A"/>
<circle cx="190" cy="-20.0001" r="200" transform="rotate(-45 190 -20.0001)" fill="#FFB27A"/>
<circle cx="190.001" cy="-20.0001" r="75" transform="rotate(-45 190.001 -20.0001)" fill="#FF6B00"/>
<rect x="39.7397" y="112.582" width="400" height="25" transform="rotate(-45 39.7397 112.582)" fill="#FF6B00"/>
<circle cx="189.997" cy="-19.9945" r="50" transform="rotate(-45 189.997 -19.9945)" fill="#FFB27A"/>
</g>
</svg>
