<svg width="60" height="60" viewBox="0 0 60 60" fill="none" xmlns="http://www.w3.org/2000/svg">
<path d="M30 60C46.5685 60 60 46.5685 60 30C60 13.4315 46.5685 0 30 0C13.4315 0 0 13.4315 0 30C0 46.5685 13.4315 60 30 60Z" fill="#92AADE"/>
<path d="M45.9376 35.6625C43.9641 39 41.4985 40.4437 38.3204 40.8187C37.547 40.9031 36.7548 40.8187 35.9766 40.9359C35.4188 41.0062 35.0391 41.6062 35.5079 41.8734C37.786 43.125 35.7235 43.7156 35.1001 44.2172C32.7346 46.0661 29.8473 47.1239 26.8472 47.2408C23.8472 47.3577 20.8864 46.5278 18.3841 44.8686C15.8819 43.2095 13.9651 40.8051 12.9051 37.9961C11.8452 35.1871 11.6958 32.1158 12.4782 29.2172C13.2331 26.3193 14.8895 23.7364 17.2083 21.8415C19.527 19.9466 22.3881 18.8377 25.3782 18.675C29.2688 18.5016 33.1782 18.5203 37.097 18.6281C42.1079 18.75 46.697 17.8125 50.3766 13.7391C51.0563 14.8687 50.7704 15.8625 50.6063 16.7812C50.0162 20.0741 48.2994 23.0592 45.7502 25.2254C43.2009 27.3915 39.9778 28.6038 36.6329 28.6547C35.2267 28.6875 33.8204 28.6547 32.4142 28.6922C31.9454 28.6922 31.411 28.8 31.4063 29.3953C31.4063 29.8641 31.8751 29.9953 32.2641 29.9719C37.4204 29.7141 42.7829 31.1156 47.4704 27.75C47.8126 27.5016 48.2204 27.0141 48.6657 27.5156C49.0313 27.9234 48.7641 28.4016 48.5345 28.8094C46.4532 32.5266 43.3548 34.7672 39.0563 35.1562C37.8188 35.2687 36.5626 35.1562 35.3063 35.2266C34.5845 35.2641 33.3657 34.8891 33.3282 35.8594C33.286 36.975 34.5282 36.525 35.2032 36.5156C38.6063 36.4781 42.0329 36.9469 45.9376 35.6625Z" fill="#FDFDFE"/>
</svg>
