<svg width="380" height="360" viewBox="0 0 380 360" fill="none" xmlns="http://www.w3.org/2000/svg">
<rect width="380" height="360" fill="#6495FF"/>
<mask id="mask0_58_873" style="mask-type:alpha" maskUnits="userSpaceOnUse" x="0" y="0" width="380" height="360">
<rect width="380" height="360" fill="#D9D9D9"/>
</mask>
<g mask="url(#mask0_58_873)">
<path d="M190 460C245.228 460 290 415.228 290 360C290 304.772 245.228 260 190 260C134.772 260 90 304.772 90 360C90 415.228 134.772 460 190 460Z" fill="#6495FF"/>
<path d="M243.124 378.875C236.546 390 228.327 394.812 217.734 396.062C215.156 396.344 212.515 396.062 209.921 396.453C208.062 396.687 206.796 398.687 208.359 399.578C215.952 403.75 209.077 405.719 206.999 407.391C199.114 413.553 189.49 417.079 179.49 417.469C169.49 417.859 159.62 415.093 151.279 409.562C142.939 404.031 136.549 396.017 133.016 386.654C129.483 377.29 128.985 367.053 131.593 357.391C134.109 347.731 139.631 339.121 147.36 332.805C155.089 326.488 164.626 322.792 174.593 322.25C187.562 321.672 200.593 321.734 213.656 322.094C230.359 322.5 245.656 319.375 257.921 305.797C260.187 309.562 259.234 312.875 258.687 315.937C256.72 326.913 250.997 336.864 242.5 344.084C234.002 351.305 223.258 355.346 212.109 355.516C207.421 355.625 202.734 355.515 198.046 355.64C196.484 355.64 194.702 356 194.687 357.984C194.687 359.547 196.249 359.984 197.546 359.906C214.734 359.047 232.609 363.719 248.234 352.5C249.374 351.672 250.734 350.047 252.218 351.719C253.437 353.078 252.546 354.672 251.781 356.031C244.843 368.422 234.515 375.891 220.187 377.187C216.062 377.562 211.874 377.187 207.687 377.422C205.281 377.547 201.218 376.297 201.093 379.531C200.952 383.25 205.093 381.75 207.343 381.719C218.687 381.594 230.109 383.156 243.124 378.875Z" fill="#CCDCFF"/>
<circle cx="190" cy="-20.0001" r="200" transform="rotate(-45 190 -20.0001)" fill="#CCDCFF"/>
<circle cx="190.002" cy="-20.0002" r="75" transform="rotate(-45 190.002 -20.0002)" fill="#6495FF"/>
<rect x="39.7397" y="112.582" width="400" height="25" transform="rotate(-45 39.7397 112.582)" fill="#6495FF"/>
<circle cx="189.997" cy="-19.9945" r="50" transform="rotate(-45 189.997 -19.9945)" fill="#CCDCFF"/>
</g>
</svg>
