<svg width="100" height="40" viewBox="0 0 100 40" fill="none" xmlns="http://www.w3.org/2000/svg">
<rect width="100" height="40" rx="8" fill="#92AADE"/>
<path d="M43.312 13.544H50.576V15.592H45.472V18.376H50.064V20.424H45.472V25H43.312V13.544ZM52.1959 13.544H54.2919V25H52.1959V13.544ZM58.8961 24.616L55.4561 16.84H57.8401L59.9521 21.912H60.0801L62.1121 16.84H64.4481L59.4081 28.456H57.1521L58.8961 24.616ZM66.7861 15.944C66.4128 15.944 66.0928 15.8107 65.8261 15.544C65.5595 15.2773 65.4261 14.9573 65.4261 14.584C65.4261 14.2107 65.5595 13.896 65.8261 13.64C66.0928 13.3733 66.4128 13.24 66.7861 13.24C67.1595 13.24 67.4741 13.3733 67.7301 13.64C67.9968 13.896 68.1301 14.2107 68.1301 14.584C68.1301 14.9573 67.9968 15.2773 67.7301 15.544C67.4741 15.8107 67.1595 15.944 66.7861 15.944ZM65.7301 16.84H67.8261V25H65.7301V16.84ZM70.024 16.84H71.992V17.864H72.12C72.3653 17.4693 72.712 17.16 73.16 16.936C73.608 16.7013 74.0933 16.584 74.616 16.584C75.5973 16.584 76.344 16.8827 76.856 17.48C77.368 18.0773 77.624 18.8933 77.624 19.928V25H75.528V20.184C75.528 19.6613 75.3947 19.256 75.128 18.968C74.8613 18.68 74.488 18.536 74.008 18.536C73.4427 18.536 72.984 18.7547 72.632 19.192C72.2907 19.6293 72.12 20.1787 72.12 20.84V25H70.024V16.84ZM83.284 28.712C82.2493 28.712 81.3907 28.4773 80.708 28.008C80.0253 27.5493 79.5667 26.9947 79.332 26.344L81.3 25.544C81.4707 25.9493 81.732 26.2693 82.084 26.504C82.436 26.7387 82.836 26.856 83.284 26.856C83.9453 26.856 84.468 26.6533 84.852 26.248C85.2467 25.8427 85.444 25.2667 85.444 24.52V23.88H85.316C85.06 24.2427 84.724 24.52 84.308 24.712C83.892 24.904 83.4173 25 82.884 25C82.212 25 81.5827 24.8293 80.996 24.488C80.42 24.136 79.956 23.6453 79.604 23.016C79.252 22.376 79.076 21.6347 79.076 20.792C79.076 19.9493 79.252 19.2133 79.604 18.584C79.956 17.944 80.42 17.4533 80.996 17.112C81.5827 16.76 82.212 16.584 82.884 16.584C83.4173 16.584 83.892 16.68 84.308 16.872C84.724 17.064 85.06 17.3413 85.316 17.704H85.444V16.84H87.46V24.44C87.46 25.3147 87.2893 26.072 86.948 26.712C86.6067 27.352 86.1213 27.8427 85.492 28.184C84.8627 28.536 84.1267 28.712 83.284 28.712ZM83.316 23.096C83.9027 23.096 84.404 22.8933 84.82 22.488C85.236 22.072 85.444 21.5067 85.444 20.792C85.444 20.056 85.236 19.4907 84.82 19.096C84.4147 18.6907 83.9133 18.488 83.316 18.488C82.7187 18.488 82.212 18.6907 81.796 19.096C81.38 19.5013 81.172 20.0667 81.172 20.792C81.172 21.5173 81.38 22.0827 81.796 22.488C82.212 22.8933 82.7187 23.096 83.316 23.096Z" fill="white"/>
<path d="M20 32C26.6274 32 32 26.6274 32 20C32 13.3726 26.6274 8 20 8C13.3726 8 8 13.3726 8 20C8 26.6274 13.3726 32 20 32Z" fill="#92AADE"/>
<path d="M26.3749 22.265C25.5856 23.6 24.5993 24.1775 23.3281 24.3275C23.0187 24.3612 22.7018 24.3275 22.3906 24.3744C22.1674 24.4025 22.0156 24.6425 22.2031 24.7494C23.1143 25.25 22.2893 25.4862 22.0399 25.6869C21.0937 26.4264 19.9388 26.8495 18.7388 26.8963C17.5388 26.9431 16.3545 26.6111 15.3536 25.9474C14.3527 25.2838 13.5859 24.322 13.1619 23.1984C12.738 22.0748 12.6782 20.8463 12.9912 19.6869C13.2931 18.5277 13.9557 17.4946 14.8832 16.7366C15.8107 15.9786 16.9551 15.5351 18.1512 15.47C19.7074 15.4006 21.2712 15.4081 22.8387 15.4512C24.8431 15.5 26.6787 15.125 28.1506 13.4956C28.4224 13.9475 28.3081 14.345 28.2424 14.7125C28.0064 16.0296 27.3197 17.2237 26.3 18.0901C25.2803 18.9566 23.991 19.4415 22.6531 19.4619C22.0906 19.475 21.5281 19.4619 20.9656 19.4769C20.7781 19.4769 20.5643 19.52 20.5624 19.7581C20.5624 19.9456 20.7499 19.9981 20.9056 19.9887C22.9681 19.8856 25.1131 20.4462 26.9881 19.1C27.1249 19.0006 27.2881 18.8056 27.4662 19.0062C27.6124 19.1694 27.5056 19.3606 27.4137 19.5237C26.5812 21.0106 25.3418 21.9069 23.6224 22.0625C23.1274 22.1075 22.6249 22.0625 22.1224 22.0906C21.8337 22.1056 21.3462 21.9556 21.3312 22.3437C21.3143 22.79 21.8112 22.61 22.0812 22.6062C23.4424 22.5912 24.8131 22.7787 26.3749 22.265Z" fill="#FDFDFE"/>
</svg>
