<svg width="60" height="60" viewBox="0 0 60 60" fill="none" xmlns="http://www.w3.org/2000/svg">
<path d="M30 60C46.5685 60 60 46.5685 60 30C60 13.4315 46.5685 0 30 0C13.4315 0 0 13.4315 0 30C0 46.5685 13.4315 60 30 60Z" fill="#5269AC"/>
<path d="M46.9924 29.5312C46.9924 13.9453 27.6565 5.71874 16.4065 16.5328C5.08147 27.4453 12.8721 47.0906 28.594 47.5687C36.7971 47.5687 40.5658 46.8797 46.369 45.3937C44.6156 44.6761 42.9948 43.67 41.5737 42.4172C43.291 40.7395 44.6551 38.7351 45.5858 36.522C46.5164 34.309 46.9947 31.932 46.9924 29.5312ZM21.6799 30.9375C20.6397 30.9355 19.6349 30.5597 18.8488 29.8785C18.0627 29.1974 17.5476 28.2563 17.3975 27.227C17.2475 26.1977 17.4725 25.1488 18.0314 24.2716C18.5904 23.3943 19.4461 22.7473 20.4424 22.4484C20.4109 22.6595 20.3937 22.8725 20.3908 23.0859C20.3893 23.7616 20.5459 24.4282 20.8483 25.0324C21.1507 25.6366 21.5904 26.1616 22.1322 26.5653C22.674 26.9691 23.3028 27.2403 23.9682 27.3573C24.6337 27.4743 25.3173 27.4338 25.9643 27.2391C25.8116 28.2665 25.2951 29.205 24.5088 29.8837C23.7225 30.5625 22.7186 30.9364 21.6799 30.9375ZM36.1596 30.9375C35.1206 30.9374 34.1162 30.5638 33.3297 29.8849C32.5433 29.2059 32.027 28.2669 31.8752 27.2391C32.5222 27.4338 33.2058 27.4743 33.8713 27.3573C34.5367 27.2403 35.1655 26.9691 35.7073 26.5653C36.2491 26.1616 36.6888 25.6366 36.9912 25.0324C37.2936 24.4282 37.4502 23.7616 37.4487 23.0859C37.4458 22.8725 37.4286 22.6595 37.3971 22.4484C38.3934 22.7473 39.2491 23.3943 39.8081 24.2716C40.367 25.1488 40.592 26.1977 40.4419 27.227C40.2919 28.2563 39.7768 29.1974 38.9907 29.8785C38.2046 30.5597 37.1998 30.9355 36.1596 30.9375Z" fill="white"/>
</svg>
