<svg width="380" height="360" viewBox="0 0 380 360" fill="none" xmlns="http://www.w3.org/2000/svg">
<rect width="380" height="360" fill="#092062"/>
<mask id="mask0_58_988" style="mask-type:alpha" maskUnits="userSpaceOnUse" x="0" y="0" width="380" height="360">
<rect width="380" height="360" fill="#D9D9D9"/>
</mask>
<g mask="url(#mask0_58_988)">
<path d="M190 460C245.228 460 290 415.228 290 360C290 304.772 245.228 260 190 260C134.772 260 90 304.772 90 360C90 415.228 134.772 460 190 460Z" fill="#092062"/>
<path d="M246.641 358.437C246.641 306.484 182.188 279.062 144.688 315.109C106.938 351.484 132.907 416.968 185.313 418.562C212.657 418.562 225.219 416.265 244.563 411.312C238.719 408.92 233.316 405.566 228.579 401.39C234.303 395.798 238.85 389.117 241.953 381.74C245.055 374.363 246.649 366.44 246.641 358.437ZM162.266 363.125C158.799 363.118 155.45 361.865 152.829 359.595C150.209 357.324 148.492 354.187 147.992 350.756C147.492 347.325 148.242 343.829 150.105 340.905C151.968 337.981 154.82 335.824 158.141 334.828C158.036 335.531 157.979 336.241 157.969 336.953C157.964 339.205 158.486 341.427 159.494 343.441C160.502 345.455 161.968 347.205 163.774 348.551C165.58 349.897 167.676 350.801 169.894 351.191C172.112 351.581 174.391 351.446 176.548 350.797C176.039 354.221 174.317 357.35 171.696 359.612C169.075 361.875 165.729 363.121 162.266 363.125ZM210.532 363.125C207.069 363.124 203.721 361.879 201.099 359.616C198.478 357.353 196.757 354.223 196.251 350.797C198.407 351.446 200.686 351.581 202.904 351.191C205.122 350.801 207.218 349.897 209.024 348.551C210.83 347.205 212.296 345.455 213.304 343.441C214.312 341.427 214.834 339.205 214.829 336.953C214.819 336.241 214.762 335.531 214.657 334.828C217.978 335.824 220.83 337.981 222.694 340.905C224.557 343.829 225.307 347.325 224.806 350.756C224.306 354.187 222.589 357.324 219.969 359.595C217.349 361.865 213.999 363.118 210.532 363.125Z" fill="#5068AD"/>
<circle cx="190" cy="-20.0001" r="200" transform="rotate(-45 190 -20.0001)" fill="#5068AD"/>
<circle cx="190.002" cy="-20.0001" r="75" transform="rotate(-45 190.002 -20.0001)" fill="#092062"/>
<rect x="39.7397" y="112.582" width="400" height="25" transform="rotate(-45 39.7397 112.582)" fill="#092062"/>
<circle cx="189.997" cy="-19.9945" r="50" transform="rotate(-45 189.997 -19.9945)" fill="#5068AD"/>
</g>
</svg>
