<svg width="100" height="40" viewBox="0 0 100 40" fill="none" xmlns="http://www.w3.org/2000/svg">
<rect width="100" height="40" rx="8" fill="#5269AC"/>
<path d="M48.784 25.256C47.6853 25.256 46.672 25 45.744 24.488C44.8267 23.9653 44.096 23.2507 43.552 22.344C43.008 21.4267 42.736 20.4027 42.736 19.272C42.736 18.1413 43.008 17.1227 43.552 16.216C44.096 15.2987 44.8267 14.584 45.744 14.072C46.672 13.5493 47.6853 13.288 48.784 13.288C49.68 13.288 50.496 13.448 51.232 13.768C51.9787 14.0773 52.6187 14.52 53.152 15.096L51.664 16.552C51.28 16.1467 50.8533 15.8427 50.384 15.64C49.9253 15.4373 49.3867 15.336 48.768 15.336C48.064 15.336 47.4187 15.5013 46.832 15.832C46.2453 16.152 45.776 16.616 45.424 17.224C45.0827 17.8213 44.912 18.504 44.912 19.272C44.912 20.04 45.088 20.728 45.44 21.336C45.792 21.9333 46.2613 22.3973 46.848 22.728C47.4453 23.048 48.096 23.208 48.8 23.208C49.8667 23.208 50.7413 22.8933 51.424 22.264C51.6373 22.072 51.824 21.8267 51.984 21.528C52.144 21.2293 52.2613 20.904 52.336 20.552H48.736V18.712H54.352C54.4267 19.0107 54.464 19.3467 54.464 19.72C54.464 20.4773 54.3467 21.1813 54.112 21.832C53.888 22.4827 53.5413 23.0533 53.072 23.544C52.56 24.0987 51.9413 24.5253 51.216 24.824C50.4907 25.112 49.68 25.256 48.784 25.256ZM56.2428 13.544H58.3388V16.44L58.2108 17.864H58.3388C58.5734 17.48 58.9148 17.1707 59.3628 16.936C59.8108 16.7013 60.2961 16.584 60.8188 16.584C61.8108 16.584 62.5681 16.8827 63.0908 17.48C63.6241 18.0667 63.8908 18.8827 63.8908 19.928V25H61.7948V20.184C61.7948 19.6613 61.6508 19.256 61.3628 18.968C61.0854 18.68 60.7121 18.536 60.2428 18.536C59.6881 18.536 59.2294 18.76 58.8668 19.208C58.5148 19.656 58.3388 20.2053 58.3388 20.856V25H56.2428V13.544ZM69.7718 25.256C68.9291 25.256 68.1771 25.0693 67.5158 24.696C66.8544 24.312 66.3371 23.7947 65.9638 23.144C65.6011 22.4827 65.4198 21.7413 65.4198 20.92C65.4198 20.1093 65.6011 19.3733 65.9638 18.712C66.3371 18.0507 66.8544 17.5333 67.5158 17.16C68.1771 16.776 68.9291 16.584 69.7718 16.584C70.6038 16.584 71.3504 16.776 72.0118 17.16C72.6731 17.5333 73.1851 18.0507 73.5478 18.712C73.9211 19.3733 74.1078 20.1093 74.1078 20.92C74.1078 21.7413 73.9211 22.4827 73.5478 23.144C73.1851 23.7947 72.6731 24.312 72.0118 24.696C71.3504 25.0693 70.6038 25.256 69.7718 25.256ZM69.7718 23.32C70.1771 23.32 70.5504 23.224 70.8918 23.032C71.2331 22.84 71.5051 22.5627 71.7078 22.2C71.9104 21.8373 72.0118 21.4107 72.0118 20.92C72.0118 20.44 71.9104 20.0187 71.7078 19.656C71.5051 19.2933 71.2331 19.016 70.8918 18.824C70.5504 18.632 70.1771 18.536 69.7718 18.536C69.3664 18.536 68.9931 18.632 68.6518 18.824C68.3104 19.016 68.0331 19.2933 67.8198 19.656C67.6171 20.0187 67.5158 20.44 67.5158 20.92C67.5158 21.4 67.6171 21.8267 67.8198 22.2C68.0331 22.5627 68.3104 22.84 68.6518 23.032C68.9931 23.224 69.3664 23.32 69.7718 23.32ZM78.7374 25.256C77.7454 25.256 76.94 25.0533 76.3214 24.648C75.7134 24.2427 75.2867 23.7147 75.0414 23.064L76.9134 22.248C77.084 22.632 77.324 22.9253 77.6334 23.128C77.9534 23.32 78.3214 23.416 78.7374 23.416C79.1214 23.416 79.4414 23.3573 79.6974 23.24C79.9534 23.112 80.0814 22.9093 80.0814 22.632C80.0814 22.3653 79.964 22.168 79.7294 22.04C79.4947 21.9013 79.1427 21.7787 78.6734 21.672L77.7134 21.464C77.052 21.304 76.5027 21.016 76.0654 20.6C75.628 20.1733 75.4094 19.6453 75.4094 19.016C75.4094 18.5467 75.548 18.1253 75.8254 17.752C76.1134 17.3787 76.4974 17.0907 76.9774 16.888C77.468 16.6853 78.0067 16.584 78.5934 16.584C80.2787 16.584 81.404 17.176 81.9694 18.36L80.1774 19.144C79.8574 18.568 79.3454 18.28 78.6414 18.28C78.2787 18.28 77.9907 18.3493 77.7774 18.488C77.564 18.616 77.4574 18.7813 77.4574 18.984C77.4574 19.368 77.82 19.656 78.5454 19.848L79.7454 20.136C80.556 20.3387 81.164 20.648 81.5694 21.064C81.9854 21.48 82.1934 21.992 82.1934 22.6C82.1934 23.1227 82.0387 23.5867 81.7294 23.992C81.4307 24.3867 81.0147 24.696 80.4814 24.92C79.9587 25.144 79.3774 25.256 78.7374 25.256ZM87.1854 25.128C86.78 25.128 86.4067 25.0693 86.0654 24.952C85.724 24.824 85.4467 24.6533 85.2334 24.44C84.732 23.96 84.4814 23.2773 84.4814 22.392V18.632H83.0574V16.84H84.4814V14.536H86.5774V16.84H88.5774V18.632H86.5774V22.008C86.5774 22.424 86.668 22.7227 86.8494 22.904C86.9987 23.0747 87.2547 23.16 87.6174 23.16C87.82 23.16 87.9854 23.1333 88.1134 23.08C88.252 23.0267 88.428 22.936 88.6414 22.808V24.856C88.1827 25.0373 87.6974 25.128 87.1854 25.128Z" fill="white"/>
<path d="M20 32C26.6274 32 32 26.6274 32 20C32 13.3726 26.6274 8 20 8C13.3726 8 8 13.3726 8 20C8 26.6274 13.3726 32 20 32Z" fill="#5269AC"/>
<path d="M26.797 19.8125C26.797 13.5781 19.0626 10.2875 14.5626 14.6131C10.0326 18.9781 13.1488 26.8363 19.4376 27.0275C22.7188 27.0275 24.2263 26.7519 26.5476 26.1575C25.8462 25.8705 25.1979 25.468 24.6295 24.9669C25.3164 24.2958 25.8621 23.4941 26.2343 22.6088C26.6066 21.7236 26.7979 20.7728 26.797 19.8125ZM16.672 20.375C16.2559 20.3742 15.854 20.2239 15.5395 19.9514C15.2251 19.679 15.019 19.3026 14.959 18.8908C14.899 18.4791 14.989 18.0595 15.2126 17.7086C15.4362 17.3578 15.7784 17.0989 16.177 16.9794C16.1644 17.0638 16.1575 17.149 16.1563 17.2344C16.1557 17.5047 16.2184 17.7713 16.3393 18.013C16.4603 18.2547 16.6362 18.4647 16.8529 18.6262C17.0696 18.7876 17.3211 18.8961 17.5873 18.9429C17.8535 18.9897 18.1269 18.9735 18.3857 18.8956C18.3246 19.3066 18.118 19.682 17.8035 19.9535C17.489 20.225 17.0875 20.3746 16.672 20.375ZM22.4638 20.375C22.0482 20.375 21.6465 20.2255 21.3319 19.954C21.0173 19.6824 20.8108 19.3068 20.7501 18.8956C21.0089 18.9735 21.2823 18.9897 21.5485 18.9429C21.8147 18.8961 22.0662 18.7876 22.2829 18.6262C22.4996 18.4647 22.6755 18.2547 22.7965 18.013C22.9174 17.7713 22.9801 17.5047 22.9795 17.2344C22.9783 17.149 22.9714 17.0638 22.9588 16.9794C23.3574 17.0989 23.6996 17.3578 23.9232 17.7086C24.1468 18.0595 24.2368 18.4791 24.1768 18.8908C24.1168 19.3026 23.9107 19.679 23.5963 19.9514C23.2818 20.2239 22.8799 20.3742 22.4638 20.375Z" fill="white"/>
</svg>
