<?xml version="1.0" encoding="iso-8859-1"?>
<!-- Uploaded to: SVG Repo, www.svgrepo.com, Generator: SVG Repo Mixer Tools -->
<svg  version="1.1" id="Layer_1" xmlns="http://www.w3.org/2000/svg" xmlns:xlink="http://www.w3.org/1999/xlink" 
	 viewBox="0 0 512 512" xml:space="preserve">
<g>
	<g>
		<path d="M81.702,405.787c-4.512,0-8.17,3.658-8.17,8.17v10.894c0,4.512,3.658,8.17,8.17,8.17s8.17-3.658,8.17-8.17v-10.894
			C89.872,409.445,86.214,405.787,81.702,405.787z"/>
	</g>
</g>
<g>
	<g>
		<path d="M114.383,427.574c-4.512,0-8.17,3.658-8.17,8.17v10.894c0,4.512,3.658,8.17,8.17,8.17s8.17-3.658,8.17-8.17v-10.894
			C122.553,431.233,118.895,427.574,114.383,427.574z"/>
	</g>
</g>
<g>
	<g>
		<path d="M157.616,387.064c-10.562-23.484-33.573-38.469-59.574-38.469c-26.001,0-49.011,14.984-59.574,38.469
			C14.984,397.627,0,420.637,0,446.638C0,482.679,29.321,512,65.362,512h65.362c36.04,0,65.362-29.321,65.362-65.362
			C196.085,420.637,181.101,397.627,157.616,387.064z M130.723,495.66H65.362c-27.03,0-49.021-21.991-49.021-49.021
			c0-20.396,12.294-38.34,31.322-45.714c2.142-0.83,3.836-2.524,4.666-4.666c7.374-19.028,25.318-31.322,45.714-31.322
			s38.34,12.295,45.714,31.322c0.83,2.142,2.524,3.836,4.666,4.666c19.028,7.374,31.322,25.318,31.322,45.714
			C179.745,473.669,157.754,495.66,130.723,495.66z"/>
	</g>
</g>
<g>
	<g>
		<path d="M377.464,332.255c-4.512,0-8.17,3.658-8.17,8.17v10.894c0,4.512,3.658,8.17,8.17,8.17c4.512,0,8.17-3.658,8.17-8.17
			v-10.894C385.634,335.913,381.976,332.255,377.464,332.255z"/>
	</g>
</g>
<g>
	<g>
		<path d="M410.145,354.043c-4.512,0-8.17,3.658-8.17,8.17v10.894c0,4.512,3.658,8.17,8.17,8.17c4.512,0,8.17-3.658,8.17-8.17
			v-10.894C418.315,357.701,414.657,354.043,410.145,354.043z"/>
	</g>
</g>
<g>
	<g>
		<path d="M439.557,310.468c-4.512,0-8.17,3.658-8.17,8.17v10.894c0,4.512,3.658,8.17,8.17,8.17s8.17-3.658,8.17-8.17v-10.894
			C447.728,314.126,444.07,310.468,439.557,310.468z"/>
	</g>
</g>
<g>
	<g>
		<path d="M473.531,289.022c-10.562-23.484-33.573-38.469-59.574-38.469s-49.011,14.984-59.574,38.469
			c-23.484,10.563-38.469,33.573-38.469,59.574c0,36.04,29.321,65.362,65.362,65.362h65.362c36.04,0,65.362-29.321,65.362-65.362
			C512,322.595,497.016,299.584,473.531,289.022z M446.638,397.617h-65.362c-27.03,0-49.021-21.991-49.021-49.021
			c0-20.396,12.295-38.34,31.322-45.714c2.142-0.83,3.836-2.524,4.666-4.666c7.374-19.028,25.318-31.322,45.714-31.322
			s38.34,12.295,45.714,31.322c0.83,2.142,2.524,3.836,4.666,4.666c19.028,7.374,31.322,25.318,31.322,45.714
			C495.66,375.626,473.669,397.617,446.638,397.617z"/>
	</g>
</g>
<g>
	<g>
		<path d="M171.574,261.447c-4.512,0-8.17,3.658-8.17,8.17v21.787c0,10.652-6.831,19.733-16.34,23.105v-55.786
			c0-4.512-3.658-8.17-8.17-8.17s-8.17,3.658-8.17,8.17v55.786c-9.509-3.373-16.34-12.454-16.34-23.105v-21.787
			c0-4.512-3.658-8.17-8.17-8.17s-8.17,3.658-8.17,8.17v21.787c0,22.526,18.325,40.851,40.851,40.851s40.851-18.325,40.851-40.851
			v-21.787C179.745,265.105,176.087,261.447,171.574,261.447z"/>
	</g>
</g>
<g>
	<g>
		<path d="M272.34,326.809c-4.512,0-8.17,3.658-8.17,8.17v21.787c0,10.652-6.831,19.733-16.34,23.105v-55.786
			c0-4.512-3.658-8.17-8.17-8.17c-4.512,0-8.17,3.658-8.17,8.17v55.786c-9.509-3.373-16.34-12.454-16.34-23.105v-21.787
			c0-4.512-3.658-8.17-8.17-8.17c-4.512,0-8.17,3.658-8.17,8.17v21.787c0,22.526,18.325,40.851,40.851,40.851
			s40.851-18.325,40.851-40.851v-21.787C280.511,330.467,276.853,326.809,272.34,326.809z"/>
	</g>
</g>
<g>
	<g>
		<path d="M503.83,217.872h-80.371l-10.83-48.736c-3.448-15.514-18.596-27.667-34.489-27.667h-14.175
			c-9.333-13.194-24.968-21.787-40.293-21.787H188.329c-15.325,0-30.961,8.593-40.293,21.787h-14.175
			c-15.892,0-31.041,12.153-34.489,27.667l-10.83,48.736H8.17c-4.512,0-8.17,3.658-8.17,8.17c0,4.512,3.658,8.17,8.17,8.17h495.66
			c4.512,0,8.17-3.658,8.17-8.17C512,221.53,508.342,217.872,503.83,217.872z M351.319,217.872h-19.478v-57.339
			c0-4.512-3.658-8.17-8.17-8.17s-8.17,3.658-8.17,8.17v57.339H264.17v-57.339c0-4.512-3.658-8.17-8.17-8.17
			c-4.512,0-8.17,3.658-8.17,8.17v57.339H105.28l10.043-45.191c1.76-7.922,10.423-14.871,18.538-14.871h10.48v35.551
			c0,4.512,3.658,8.17,8.17,8.17c4.512,0,8.17-3.658,8.17-8.17v-41.423c4.564-6.989,11.811-12.339,19.478-14.655v55.93
			c0,4.512,3.658,8.17,8.17,8.17s8.17-3.658,8.17-8.17v-57.191h127.172c10.385,0,21.474,6.461,27.648,15.916V217.872z
			 M367.66,217.872V157.81h10.48c8.115,0,16.777,6.949,18.538,14.871l10.043,45.191H367.66z"/>
	</g>
</g>
<g>
	<g>
		<path d="M256,0c-25.529,0-46.298,20.769-46.298,46.298c0,25.529,20.769,46.298,46.298,46.298s46.298-20.769,46.298-46.298
			C302.298,20.769,281.529,0,256,0z M256,76.255c-16.519,0-29.957-13.438-29.957-29.957c0-16.519,13.438-29.957,29.957-29.957
			s29.957,13.438,29.957,29.957C285.957,62.817,272.519,76.255,256,76.255z"/>
	</g>
</g>
<g>
	<g>
		<path d="M476.596,32.681h-95.319c-19.521,0-35.404,15.883-35.404,35.404s15.883,35.404,35.404,35.404h95.319
			c19.521,0,35.404-15.883,35.404-35.404S496.117,32.681,476.596,32.681z M476.596,87.149h-95.319
			c-10.511,0-19.064-8.553-19.064-19.064c0-10.511,8.553-19.064,19.064-19.064h95.319c10.511,0,19.064,8.553,19.064,19.064
			C495.66,78.596,487.107,87.149,476.596,87.149z"/>
	</g>
</g>
<g>
	<g>
		<path d="M76.255,0H35.404C15.883,0,0,15.883,0,35.404c0,19.521,15.883,35.404,35.404,35.404h40.851
			c19.521,0,35.404-15.883,35.404-35.404C111.66,15.883,95.777,0,76.255,0z M76.255,54.468H35.404
			c-10.511,0-19.064-8.553-19.064-19.064c0-10.511,8.553-19.064,19.064-19.064h40.851c10.511,0,19.064,8.553,19.064,19.064
			C95.319,45.916,86.767,54.468,76.255,54.468z"/>
	</g>
</g>
<g>
	<g>
		<path d="M40.851,250.553c-4.512,0-8.17,3.658-8.17,8.17v65.362c0,4.512,3.658,8.17,8.17,8.17s8.17-3.658,8.17-8.17v-65.362
			C49.021,254.211,45.363,250.553,40.851,250.553z"/>
	</g>
</g>
<g>
	<g>
		<path d="M73.532,283.234c-4.512,0-8.17,3.658-8.17,8.17v32.681c0,4.512,3.658,8.17,8.17,8.17s8.17-3.658,8.17-8.17v-32.681
			C81.702,286.892,78.044,283.234,73.532,283.234z"/>
	</g>
</g>
<g>
	<g>
		<path d="M305.021,250.553c-4.512,0-8.17,3.658-8.17,8.17v32.681c0,4.512,3.658,8.17,8.17,8.17c4.512,0,8.17-3.658,8.17-8.17
			v-32.681C313.191,254.211,309.533,250.553,305.021,250.553z"/>
	</g>
</g>
<g>
	<g>
		<path d="M288.681,462.979c-4.512,0-8.17,3.658-8.17,8.17v32.681c0,4.512,3.658,8.17,8.17,8.17s8.17-3.658,8.17-8.17v-32.681
			C296.851,466.637,293.193,462.979,288.681,462.979z"/>
	</g>
</g>
<g>
	<g>
		<path d="M223.319,462.979c-4.512,0-8.17,3.658-8.17,8.17v32.681c0,4.512,3.658,8.17,8.17,8.17s8.17-3.658,8.17-8.17v-32.681
			C231.489,466.637,227.831,462.979,223.319,462.979z"/>
	</g>
</g>
<g>
	<g>
		<path d="M256,430.298c-4.512,0-8.17,3.658-8.17,8.17v65.362c0,4.512,3.658,8.17,8.17,8.17c4.512,0,8.17-3.658,8.17-8.17v-65.362
			C264.17,433.956,260.512,430.298,256,430.298z"/>
	</g>
</g>
<g>
	<g>
		<path d="M321.362,462.979c-4.512,0-8.17,3.658-8.17,8.17v32.681c0,4.512,3.658,8.17,8.17,8.17s8.17-3.658,8.17-8.17v-32.681
			C329.532,466.637,325.874,462.979,321.362,462.979z"/>
	</g>
</g>
<g>
	<g>
		<path d="M471.149,430.298c-4.512,0-8.17,3.658-8.17,8.17v32.681c0,4.512,3.658,8.17,8.17,8.17s8.17-3.658,8.17-8.17v-32.681
			C479.319,433.956,475.661,430.298,471.149,430.298z"/>
	</g>
</g>
<g>
	<g>
		<path d="M438.468,430.298c-4.512,0-8.17,3.658-8.17,8.17v32.681c0,4.512,3.658,8.17,8.17,8.17s8.17-3.658,8.17-8.17v-32.681
			C446.638,433.956,442.98,430.298,438.468,430.298z"/>
	</g>
</g>
</svg>