<svg width="380" height="360" viewBox="0 0 380 360" fill="none" xmlns="http://www.w3.org/2000/svg">
<rect width="380" height="360" fill="#0FB100"/>
<mask id="mask0_58_782" style="mask-type:alpha" maskUnits="userSpaceOnUse" x="0" y="0" width="380" height="360">
<rect width="380" height="360" fill="#D9D9D9"/>
</mask>
<g mask="url(#mask0_58_782)">
<path d="M190 460C245.228 460 290 415.228 290 360C290 304.772 245.228 260 190 260C134.772 260 90 304.772 90 360C90 415.228 134.772 460 190 460Z" fill="#0FB100"/>
<path d="M245.877 301.203C241.643 297.484 224.721 301.562 219.908 302.14C203.956 303.886 188.239 307.355 173.033 312.484C157.33 318.031 144.518 326.031 137.096 341.547C132.576 351.235 130.825 361.986 132.035 372.608C133.246 383.23 137.371 393.311 143.955 401.734C147.377 398.093 152.283 394.422 154.986 390.234C158.596 384.656 156.627 373.515 156.893 366.515C156.971 364.453 157.736 335.906 159.127 335.812C160.814 335.703 165.174 363.718 166.736 374.156C166.795 374.488 166.942 374.799 167.162 375.055C167.382 375.31 167.667 375.502 167.987 375.609C168.307 375.716 168.65 375.735 168.98 375.664C169.31 375.592 169.614 375.433 169.861 375.203C173.58 371.526 177.314 367.88 181.064 364.265C183.627 361.781 184.908 360.812 185.596 357.578C186.283 354.343 185.768 349.937 185.986 346.515C186.111 344.484 187.549 318.765 189.393 318.64C191.236 318.515 195.096 338.687 196.533 346.234C196.602 346.487 196.734 346.719 196.917 346.908C197.099 347.096 197.326 347.236 197.577 347.314C197.828 347.392 198.094 347.405 198.351 347.353C198.608 347.301 198.848 347.185 199.049 347.015C206.643 339.656 230.299 316.656 231.408 317.687C232.518 318.718 212.877 345.125 206.58 353.625C206.438 353.846 206.355 354.099 206.337 354.362C206.32 354.624 206.368 354.886 206.479 355.124C206.59 355.363 206.758 355.569 206.97 355.725C207.182 355.881 207.429 355.981 207.689 356.015C215.361 356.437 235.814 357.765 235.986 359.453C236.158 361.14 210.643 366.14 208.799 366.5C205.674 367.14 202.189 367.359 199.064 368.172C195.064 369.218 194.377 370.203 191.861 373.703C188.736 377.869 185.611 382.036 182.486 386.203C182.276 386.481 182.147 386.811 182.112 387.158C182.078 387.505 182.14 387.855 182.292 388.168C182.444 388.482 182.68 388.747 182.973 388.936C183.267 389.124 183.607 389.227 183.955 389.234C194.518 389.406 222.846 390.047 223.018 391.734C223.096 393.14 194.893 397.64 192.861 397.984C186.408 399.093 175.502 398.656 170.33 402.062C166.346 404.687 162.674 411.718 159.643 415.437C168.555 420.697 178.715 423.471 189.064 423.471C199.414 423.471 209.573 420.697 218.486 415.437C233.486 406.484 240.361 392.875 244.018 376.375C247.308 360.378 248.776 344.061 248.393 327.734C248.393 321.797 248.174 315.843 247.58 309.937C247.346 307.953 247.549 302.672 245.877 301.203Z" fill="#95E18E"/>
<circle cx="190" cy="-20.0001" r="200" transform="rotate(-45 190 -20.0001)" fill="#95E18F"/>
<circle cx="190.002" cy="-20.0002" r="75" transform="rotate(-45 190.002 -20.0002)" fill="#0FB100"/>
<rect x="39.7397" y="112.582" width="400" height="25" transform="rotate(-45 39.7397 112.582)" fill="#0FB100"/>
<circle cx="189.997" cy="-19.9945" r="50" transform="rotate(-45 189.997 -19.9945)" fill="#95E18F"/>
</g>
</svg>
