<svg width="100" height="40" viewBox="0 0 100 40" fill="none" xmlns="http://www.w3.org/2000/svg">
<rect width="100" height="40" rx="8" fill="#63BB5B"/>
<path d="M49.784 25.256C48.6853 25.256 47.672 25 46.744 24.488C45.8267 23.9653 45.096 23.2507 44.552 22.344C44.008 21.4267 43.736 20.4027 43.736 19.272C43.736 18.1413 44.008 17.1227 44.552 16.216C45.096 15.2987 45.8267 14.584 46.744 14.072C47.672 13.5493 48.6853 13.288 49.784 13.288C50.68 13.288 51.496 13.448 52.232 13.768C52.9787 14.0773 53.6187 14.52 54.152 15.096L52.664 16.552C52.28 16.1467 51.8533 15.8427 51.384 15.64C50.9253 15.4373 50.3867 15.336 49.768 15.336C49.064 15.336 48.4187 15.5013 47.832 15.832C47.2453 16.152 46.776 16.616 46.424 17.224C46.0827 17.8213 45.912 18.504 45.912 19.272C45.912 20.04 46.088 20.728 46.44 21.336C46.792 21.9333 47.2613 22.3973 47.848 22.728C48.4453 23.048 49.096 23.208 49.8 23.208C50.8667 23.208 51.7413 22.8933 52.424 22.264C52.6373 22.072 52.824 21.8267 52.984 21.528C53.144 21.2293 53.2613 20.904 53.336 20.552H49.736V18.712H55.352C55.4267 19.0107 55.464 19.3467 55.464 19.72C55.464 20.4773 55.3467 21.1813 55.112 21.832C54.888 22.4827 54.5413 23.0533 54.072 23.544C53.56 24.0987 52.9413 24.5253 52.216 24.824C51.4907 25.112 50.68 25.256 49.784 25.256ZM56.9303 16.84H58.8983V17.928H59.0263C59.2289 17.544 59.5436 17.2293 59.9703 16.984C60.3969 16.728 60.8663 16.6 61.3783 16.6C61.7516 16.6 62.0929 16.6587 62.4023 16.776V18.872C62.1143 18.7653 61.8689 18.6907 61.6663 18.648C61.4743 18.5947 61.2663 18.568 61.0423 18.568C60.4236 18.568 59.9329 18.792 59.5703 19.24C59.2076 19.688 59.0263 20.2533 59.0263 20.936V25H56.9303V16.84ZM66.0044 25.256C65.1404 25.256 64.431 25.0053 63.8764 24.504C63.3217 23.992 63.0444 23.3253 63.0444 22.504C63.0444 21.96 63.1884 21.48 63.4764 21.064C63.7644 20.648 64.159 20.328 64.6604 20.104C65.1617 19.88 65.7164 19.768 66.3244 19.768C67.167 19.768 67.887 19.8907 68.4844 20.136V19.784C68.4844 19.336 68.3137 18.9733 67.9724 18.696C67.6417 18.4187 67.1937 18.28 66.6284 18.28C66.2444 18.28 65.871 18.3707 65.5084 18.552C65.1564 18.7227 64.863 18.952 64.6284 19.24L63.2844 18.184C63.679 17.672 64.175 17.2773 64.7724 17C65.3697 16.7227 66.0204 16.584 66.7244 16.584C67.9724 16.584 68.9217 16.872 69.5724 17.448C70.223 18.024 70.5484 18.8667 70.5484 19.976V25H68.4844V24.168H68.3564C68.111 24.488 67.7857 24.7493 67.3804 24.952C66.9857 25.1547 66.527 25.256 66.0044 25.256ZM66.5004 23.624C67.1084 23.624 67.5884 23.432 67.9404 23.048C68.303 22.6533 68.4844 22.1947 68.4844 21.672C67.9404 21.416 67.3697 21.288 66.7724 21.288C65.6844 21.288 65.1404 21.6933 65.1404 22.504C65.1404 22.8347 65.2577 23.1067 65.4924 23.32C65.727 23.5227 66.063 23.624 66.5004 23.624ZM75.503 25.256C74.511 25.256 73.7057 25.0533 73.087 24.648C72.479 24.2427 72.0523 23.7147 71.807 23.064L73.679 22.248C73.8497 22.632 74.0897 22.9253 74.399 23.128C74.719 23.32 75.087 23.416 75.503 23.416C75.887 23.416 76.207 23.3573 76.463 23.24C76.719 23.112 76.847 22.9093 76.847 22.632C76.847 22.3653 76.7297 22.168 76.495 22.04C76.2603 21.9013 75.9083 21.7787 75.439 21.672L74.479 21.464C73.8177 21.304 73.2683 21.016 72.831 20.6C72.3937 20.1733 72.175 19.6453 72.175 19.016C72.175 18.5467 72.3137 18.1253 72.591 17.752C72.879 17.3787 73.263 17.0907 73.743 16.888C74.2337 16.6853 74.7723 16.584 75.359 16.584C77.0443 16.584 78.1697 17.176 78.735 18.36L76.943 19.144C76.623 18.568 76.111 18.28 75.407 18.28C75.0443 18.28 74.7563 18.3493 74.543 18.488C74.3297 18.616 74.223 18.7813 74.223 18.984C74.223 19.368 74.5857 19.656 75.311 19.848L76.511 20.136C77.3217 20.3387 77.9297 20.648 78.335 21.064C78.751 21.48 78.959 21.992 78.959 22.6C78.959 23.1227 78.8043 23.5867 78.495 23.992C78.1963 24.3867 77.7803 24.696 77.247 24.92C76.7243 25.144 76.143 25.256 75.503 25.256ZM83.5811 25.256C82.5891 25.256 81.7838 25.0533 81.1651 24.648C80.5571 24.2427 80.1305 23.7147 79.8851 23.064L81.7571 22.248C81.9278 22.632 82.1678 22.9253 82.4771 23.128C82.7971 23.32 83.1651 23.416 83.5811 23.416C83.9651 23.416 84.2851 23.3573 84.5411 23.24C84.7971 23.112 84.9251 22.9093 84.9251 22.632C84.9251 22.3653 84.8078 22.168 84.5731 22.04C84.3385 21.9013 83.9865 21.7787 83.5171 21.672L82.5571 21.464C81.8958 21.304 81.3465 21.016 80.9091 20.6C80.4718 20.1733 80.2531 19.6453 80.2531 19.016C80.2531 18.5467 80.3918 18.1253 80.6691 17.752C80.9571 17.3787 81.3411 17.0907 81.8211 16.888C82.3118 16.6853 82.8505 16.584 83.4371 16.584C85.1225 16.584 86.2478 17.176 86.8131 18.36L85.0211 19.144C84.7011 18.568 84.1891 18.28 83.4851 18.28C83.1225 18.28 82.8345 18.3493 82.6211 18.488C82.4078 18.616 82.3011 18.7813 82.3011 18.984C82.3011 19.368 82.6638 19.656 83.3891 19.848L84.5891 20.136C85.3998 20.3387 86.0078 20.648 86.4131 21.064C86.8291 21.48 87.0371 21.992 87.0371 22.6C87.0371 23.1227 86.8825 23.5867 86.5731 23.992C86.2745 24.3867 85.8585 24.696 85.3251 24.92C84.8025 25.144 84.2211 25.256 83.5811 25.256Z" fill="white"/>
<path d="M20 32C26.6274 32 32 26.6274 32 20C32 13.3726 26.6274 8 20 8C13.3726 8 8 13.3726 8 20C8 26.6274 13.3726 32 20 32Z" fill="#63BB5B"/>
<path d="M26.705 12.9443C26.1969 12.4981 24.1662 12.9875 23.5887 13.0568C21.6744 13.2664 19.7884 13.6825 17.9637 14.2981C16.0794 14.9637 14.5419 15.9237 13.6512 17.7856C13.1089 18.9482 12.8987 20.2383 13.044 21.513C13.1893 22.7876 13.6843 23.9973 14.4744 25.0081C14.885 24.5712 15.4737 24.1306 15.7981 23.6281C16.2312 22.9587 15.995 21.6218 16.0269 20.7818C16.0362 20.5343 16.1281 17.1087 16.295 17.0975C16.4975 17.0843 17.0206 20.4462 17.2081 21.6987C17.2151 21.7386 17.2328 21.7759 17.2592 21.8065C17.2856 21.8372 17.3198 21.8602 17.3582 21.8731C17.3966 21.886 17.4378 21.8882 17.4774 21.8796C17.517 21.8711 17.5535 21.852 17.5831 21.8243C18.0294 21.3831 18.4775 20.9456 18.9275 20.5118C19.235 20.2137 19.3887 20.0975 19.4712 19.7093C19.5537 19.3212 19.4919 18.7925 19.5181 18.3818C19.5331 18.1381 19.7056 15.0518 19.9269 15.0368C20.1481 15.0218 20.6112 17.4425 20.7837 18.3481C20.792 18.3785 20.8079 18.4063 20.8298 18.4289C20.8517 18.4516 20.8789 18.4683 20.909 18.4777C20.9391 18.487 20.971 18.4886 21.0019 18.4824C21.0328 18.4761 21.0616 18.4622 21.0856 18.4418C21.9969 17.5587 24.8356 14.7987 24.9687 14.9225C25.1019 15.0462 22.745 18.215 21.9894 19.235C21.9724 19.2615 21.9624 19.2919 21.9602 19.3234C21.9581 19.3548 21.964 19.3863 21.9772 19.4149C21.9905 19.4435 22.0108 19.4683 22.0362 19.487C22.0615 19.5057 22.0912 19.5177 22.1225 19.5218C23.0431 19.5725 25.4975 19.7318 25.5181 19.9343C25.5387 20.1368 22.4769 20.7368 22.2556 20.78C21.8806 20.8568 21.4625 20.8831 21.0875 20.9806C20.6075 21.1062 20.525 21.2243 20.2231 21.6443C19.8481 22.1443 19.4731 22.6443 19.0981 23.1443C19.0729 23.1777 19.0573 23.2174 19.0532 23.259C19.0491 23.3006 19.0566 23.3426 19.0748 23.3802C19.0931 23.4178 19.1214 23.4497 19.1566 23.4723C19.1918 23.4948 19.2325 23.5072 19.2744 23.5081C20.5419 23.5287 23.9412 23.6056 23.9619 23.8081C23.9712 23.9768 20.5869 24.5168 20.3431 24.5581C19.5687 24.6912 18.26 24.6387 17.6394 25.0475C17.1612 25.3625 16.7206 26.2062 16.3569 26.6525C17.4264 27.2836 18.6456 27.6166 19.8875 27.6166C21.1294 27.6166 22.3486 27.2836 23.4181 26.6525C25.2181 25.5781 26.0431 23.945 26.4819 21.965C26.8768 20.0454 27.0529 18.0873 27.0069 16.1281C27.0069 15.4156 26.9806 14.7012 26.9094 13.9925C26.8812 13.7543 26.9056 13.1206 26.705 12.9443Z" fill="white"/>
</svg>
