<svg width="60" height="60" viewBox="0 0 60 60" fill="none" xmlns="http://www.w3.org/2000/svg">
<path d="M30 60C46.5685 60 60 46.5685 60 30C60 13.4315 46.5685 0 30 0C13.4315 0 0 13.4315 0 30C0 46.5685 13.4315 60 30 60Z" fill="#63BB5B"/>
<path d="M46.7626 12.3609C45.4923 11.2453 40.4157 12.4687 38.972 12.6422C34.1862 13.166 29.4712 14.2064 24.9095 15.7453C20.1985 17.4094 16.3548 19.8094 14.1282 24.4641C12.7723 27.3707 12.2469 30.5958 12.6101 33.7825C12.9733 36.9692 14.2109 39.9933 16.186 42.5203C17.2126 41.4281 18.6845 40.3266 19.4954 39.0703C20.5782 37.3969 19.9876 34.0547 20.0673 31.9547C20.0907 31.3359 20.3204 22.7719 20.7376 22.7437C21.2438 22.7109 22.5516 31.1156 23.0204 34.2469C23.0379 34.3466 23.0821 34.4397 23.1481 34.5164C23.2142 34.5932 23.2997 34.6506 23.3957 34.6828C23.4917 34.715 23.5946 34.7206 23.6936 34.6992C23.7925 34.6777 23.8838 34.63 23.9579 34.5609C25.0735 33.4578 26.1938 32.3641 27.3188 31.2797C28.0876 30.5344 28.472 30.2437 28.6782 29.2734C28.8845 28.3031 28.7298 26.9812 28.7954 25.9547C28.8329 25.3453 29.2641 17.6297 29.8173 17.5922C30.3704 17.5547 31.5282 23.6062 31.9595 25.8703C31.9802 25.9463 32.0198 26.0158 32.0745 26.0724C32.1293 26.129 32.1974 26.1709 32.2726 26.1943C32.3478 26.2177 32.4277 26.2217 32.5048 26.206C32.582 26.1904 32.654 26.1555 32.7141 26.1047C34.9923 23.8969 42.0891 16.9969 42.422 17.3062C42.7548 17.6156 36.8626 25.5375 34.9735 28.0875C34.9311 28.1539 34.906 28.2299 34.9007 28.3086C34.8954 28.3872 34.91 28.4659 34.9432 28.5374C34.9764 28.6089 35.0271 28.6708 35.0905 28.7176C35.154 28.7643 35.2282 28.7942 35.3063 28.8047C37.6079 28.9312 43.7438 29.3297 43.7954 29.8359C43.847 30.3422 36.1923 31.8422 35.6391 31.95C34.7016 32.1422 33.6563 32.2078 32.7188 32.4516C31.5188 32.7656 31.3126 33.0609 30.5579 34.1109C29.6204 35.3609 28.6829 36.6109 27.7454 37.8609C27.6823 37.9443 27.6435 38.0435 27.6332 38.1475C27.6229 38.2516 27.6416 38.3565 27.6872 38.4506C27.7328 38.5447 27.8035 38.6243 27.8916 38.6807C27.9796 38.7372 28.0815 38.7682 28.186 38.7703C31.3548 38.8219 39.8532 39.0141 39.9048 39.5203C39.9282 39.9422 31.4673 41.2922 30.8579 41.3953C28.922 41.7281 25.6501 41.5969 24.0985 42.6187C22.9032 43.4062 21.8016 45.5156 20.8923 46.6312C23.5661 48.2092 26.6141 49.0415 29.7188 49.0415C32.8236 49.0415 35.8715 48.2092 38.5454 46.6312C43.0454 43.9453 45.1079 39.8625 46.2048 34.9125C47.192 30.1136 47.6323 25.2183 47.5173 20.3203C47.5173 18.5391 47.4516 16.7531 47.2735 14.9812C47.2032 14.3859 47.2641 12.8016 46.7626 12.3609Z" fill="white"/>
</svg>
