<svg width="380" height="360" viewBox="0 0 380 360" fill="none" xmlns="http://www.w3.org/2000/svg">
<rect width="380" height="360" fill="#E7C770"/>
<mask id="mask0_58_827" style="mask-type:alpha" maskUnits="userSpaceOnUse" x="0" y="0" width="380" height="360">
<rect width="380" height="360" fill="#D9D9D9"/>
</mask>
<g mask="url(#mask0_58_827)">
<path d="M190 460C245.228 460 290 415.228 290 360C290 304.772 245.228 260 190 260C134.772 260 90 304.772 90 360C90 415.228 134.772 460 190 460Z" fill="#E7C770"/>
<path d="M238.438 313.125L254.062 361.562L233.75 386.562L219.688 364.688L238.438 313.125ZM205.625 417.812L227.5 392.812L211.875 370.938L163.438 403.75L205.625 417.812ZM171.25 313.125L127.5 360L129.062 392.812L152.5 400.625L210.312 361.562L227.5 313.125H171.25Z" fill="#E9DFC2"/>
<circle cx="190" cy="-20.0001" r="200" transform="rotate(-45 190 -20.0001)" fill="#E9DFC2"/>
<circle cx="190.002" cy="-20.0002" r="75" transform="rotate(-45 190.002 -20.0002)" fill="#E7C770"/>
<rect x="39.7397" y="112.582" width="400" height="25" transform="rotate(-45 39.7397 112.582)" fill="#E7C770"/>
<circle cx="189.997" cy="-19.9945" r="50" transform="rotate(-45 189.997 -19.9945)" fill="#E9DFC2"/>
</g>
</svg>
