<svg width="100" height="40" viewBox="0 0 100 40" fill="none" xmlns="http://www.w3.org/2000/svg">
<rect width="100" height="40" rx="8" fill="#C7B78B"/>
<path d="M20 32C26.6274 32 32 26.6274 32 20C32 13.3726 26.6274 8 20 8C13.3726 8 8 13.3726 8 20C8 26.6274 13.3726 32 20 32Z" fill="#C7B78B"/>
<path d="M25.8125 14.375L27.6875 20.1875L25.25 23.1875L23.5625 20.5625L25.8125 14.375ZM21.875 26.9375L24.5 23.9375L22.625 21.3125L16.8125 25.25L21.875 26.9375ZM17.75 14.375L12.5 20L12.6875 23.9375L15.5 24.875L22.4375 20.1875L24.5 14.375H17.75Z" fill="white"/>
<path d="M42.784 25.256C41.6853 25.256 40.672 25 39.744 24.488C38.8267 23.9653 38.096 23.2507 37.552 22.344C37.008 21.4267 36.736 20.4027 36.736 19.272C36.736 18.1413 37.008 17.1227 37.552 16.216C38.096 15.2987 38.8267 14.584 39.744 14.072C40.672 13.5493 41.6853 13.288 42.784 13.288C43.68 13.288 44.496 13.448 45.232 13.768C45.9787 14.0773 46.6187 14.52 47.152 15.096L45.664 16.552C45.28 16.1467 44.8533 15.8427 44.384 15.64C43.9253 15.4373 43.3867 15.336 42.768 15.336C42.064 15.336 41.4187 15.5013 40.832 15.832C40.2453 16.152 39.776 16.616 39.424 17.224C39.0827 17.8213 38.912 18.504 38.912 19.272C38.912 20.04 39.088 20.728 39.44 21.336C39.792 21.9333 40.2613 22.3973 40.848 22.728C41.4453 23.048 42.096 23.208 42.8 23.208C43.8667 23.208 44.7413 22.8933 45.424 22.264C45.6373 22.072 45.824 21.8267 45.984 21.528C46.144 21.2293 46.2613 20.904 46.336 20.552H42.736V18.712H48.352C48.4267 19.0107 48.464 19.3467 48.464 19.72C48.464 20.4773 48.3467 21.1813 48.112 21.832C47.888 22.4827 47.5413 23.0533 47.072 23.544C46.56 24.0987 45.9413 24.5253 45.216 24.824C44.4907 25.112 43.68 25.256 42.784 25.256ZM49.9303 16.84H51.8983V17.928H52.0263C52.2289 17.544 52.5436 17.2293 52.9703 16.984C53.3969 16.728 53.8663 16.6 54.3783 16.6C54.7516 16.6 55.0929 16.6587 55.4023 16.776V18.872C55.1143 18.7653 54.8689 18.6907 54.6663 18.648C54.4743 18.5947 54.2663 18.568 54.0423 18.568C53.4236 18.568 52.9329 18.792 52.5703 19.24C52.2076 19.688 52.0263 20.2533 52.0263 20.936V25H49.9303V16.84ZM60.178 25.256C59.3353 25.256 58.5833 25.0693 57.922 24.696C57.2607 24.312 56.7433 23.7947 56.37 23.144C56.0073 22.4827 55.826 21.7413 55.826 20.92C55.826 20.1093 56.0073 19.3733 56.37 18.712C56.7433 18.0507 57.2607 17.5333 57.922 17.16C58.5833 16.776 59.3353 16.584 60.178 16.584C61.01 16.584 61.7567 16.776 62.418 17.16C63.0793 17.5333 63.5913 18.0507 63.954 18.712C64.3273 19.3733 64.514 20.1093 64.514 20.92C64.514 21.7413 64.3273 22.4827 63.954 23.144C63.5913 23.7947 63.0793 24.312 62.418 24.696C61.7567 25.0693 61.01 25.256 60.178 25.256ZM60.178 23.32C60.5833 23.32 60.9567 23.224 61.298 23.032C61.6393 22.84 61.9113 22.5627 62.114 22.2C62.3167 21.8373 62.418 21.4107 62.418 20.92C62.418 20.44 62.3167 20.0187 62.114 19.656C61.9113 19.2933 61.6393 19.016 61.298 18.824C60.9567 18.632 60.5833 18.536 60.178 18.536C59.7727 18.536 59.3993 18.632 59.058 18.824C58.7167 19.016 58.4393 19.2933 58.226 19.656C58.0233 20.0187 57.922 20.44 57.922 20.92C57.922 21.4 58.0233 21.8267 58.226 22.2C58.4393 22.5627 58.7167 22.84 59.058 23.032C59.3993 23.224 59.7727 23.32 60.178 23.32ZM68.9836 25.256C68.0023 25.256 67.2556 24.952 66.7436 24.344C66.2316 23.736 65.9756 22.888 65.9756 21.8V16.84H68.0716V21.544C68.0716 22.0987 68.205 22.536 68.4716 22.856C68.7383 23.1653 69.0903 23.32 69.5276 23.32C70.125 23.32 70.5996 23.1013 70.9516 22.664C71.3036 22.2267 71.4796 21.672 71.4796 21V16.84H73.5756V25H71.6076V23.976H71.4796C71.2343 24.3707 70.8876 24.6853 70.4396 24.92C70.0023 25.144 69.517 25.256 68.9836 25.256ZM75.6178 16.84H77.5858V17.864H77.7138C77.9591 17.4693 78.3058 17.16 78.7538 16.936C79.2018 16.7013 79.6871 16.584 80.2098 16.584C81.1911 16.584 81.9378 16.8827 82.4498 17.48C82.9618 18.0773 83.2178 18.8933 83.2178 19.928V25H81.1218V20.184C81.1218 19.6613 80.9884 19.256 80.7218 18.968C80.4551 18.68 80.0818 18.536 79.6018 18.536C79.0364 18.536 78.5778 18.7547 78.2258 19.192C77.8844 19.6293 77.7138 20.1787 77.7138 20.84V25H75.6178V16.84ZM88.6999 25.256C87.9639 25.256 87.2919 25.0747 86.6839 24.712C86.0865 24.3387 85.6119 23.8267 85.2599 23.176C84.9185 22.5147 84.7479 21.7627 84.7479 20.92C84.7479 20.088 84.9185 19.3413 85.2599 18.68C85.6119 18.0187 86.0865 17.5067 86.6839 17.144C87.2919 16.7707 87.9639 16.584 88.6999 16.584C89.2545 16.584 89.7452 16.7067 90.1719 16.952C90.5985 17.1867 90.9239 17.48 91.1479 17.832H91.2759L91.1479 16.68V13.544H93.2279V25H91.2759V24.024H91.1479C90.9345 24.376 90.6092 24.6693 90.1719 24.904C89.7452 25.1387 89.2545 25.256 88.6999 25.256ZM89.0519 23.32C89.4465 23.32 89.8145 23.2187 90.1559 23.016C90.4972 22.8133 90.7692 22.5307 90.9719 22.168C91.1745 21.8053 91.2759 21.3893 91.2759 20.92C91.2759 20.4507 91.1745 20.0347 90.9719 19.672C90.7692 19.3093 90.4972 19.032 90.1559 18.84C89.8145 18.6373 89.4465 18.536 89.0519 18.536C88.6679 18.536 88.3052 18.6373 87.9639 18.84C87.6225 19.032 87.3505 19.3093 87.1479 19.672C86.9452 20.0347 86.8439 20.4507 86.8439 20.92C86.8439 21.3893 86.9452 21.8053 87.1479 22.168C87.3505 22.5307 87.6225 22.8133 87.9639 23.016C88.3052 23.2187 88.6679 23.32 89.0519 23.32Z" fill="white"/>
</svg>
