<svg width="100" height="40" viewBox="0 0 100 40" fill="none" xmlns="http://www.w3.org/2000/svg">
<rect width="100" height="40" rx="8" fill="#74CEC0"/>
<path d="M20 32C26.6274 32 32 26.6274 32 20C32 13.3726 26.6274 8 20 8C13.3726 8 8 13.3726 8 20C8 26.6274 13.3726 32 20 32Z" fill="#74CEC0"/>
<path d="M19.2745 20.0487L15.1345 22.3812L11.1426 20L15.0801 17.7219L19.2745 20.0487ZM24.8751 17.6187L20.7257 19.9512L24.9126 22.2856L28.8501 20.0075L24.8751 17.6187ZM19.522 14.6019L15.5845 12.3256L15.5001 16.9756L19.5951 19.3962L19.522 14.6019ZM24.5001 23.0244L20.4051 20.6037L20.4782 25.3981L24.4157 27.6744L24.5001 23.0244ZM24.4363 16.8875V12.3312L20.3751 14.5962L20.3245 19.3475L24.4363 16.8875ZM19.6251 25.4037L19.6757 20.6525L15.5638 23.1125V27.6687L19.6251 25.4037Z" fill="white"/>
<path d="M55.312 13.544H57.472V25H55.312V13.544ZM63.6296 25.256C62.8083 25.256 62.0723 25.0747 61.4216 24.712C60.771 24.3387 60.259 23.8213 59.8856 23.16C59.523 22.4987 59.3416 21.752 59.3416 20.92C59.3416 20.088 59.523 19.3467 59.8856 18.696C60.259 18.0347 60.771 17.5173 61.4216 17.144C62.0723 16.7707 62.8083 16.584 63.6296 16.584C64.5363 16.584 65.315 16.7813 65.9656 17.176C66.6163 17.56 67.0856 18.1093 67.3736 18.824L65.4536 19.624C65.1123 18.8987 64.5043 18.536 63.6296 18.536C62.9896 18.536 62.4616 18.7547 62.0456 19.192C61.6403 19.6293 61.4376 20.2053 61.4376 20.92C61.4376 21.6453 61.6403 22.2267 62.0456 22.664C62.4616 23.1013 62.9896 23.32 63.6296 23.32C64.515 23.32 65.155 22.936 65.5496 22.168L67.4536 23C67.1016 23.7147 66.6003 24.2693 65.9496 24.664C65.299 25.0587 64.5256 25.256 63.6296 25.256ZM72.7074 25.256C71.8967 25.256 71.166 25.0693 70.5154 24.696C69.8647 24.3227 69.3527 23.8107 68.9794 23.16C68.6167 22.4987 68.4354 21.7573 68.4354 20.936C68.4354 20.1573 68.6167 19.4373 68.9794 18.776C69.342 18.104 69.8434 17.5707 70.4834 17.176C71.1234 16.7813 71.838 16.584 72.6274 16.584C73.47 16.584 74.1954 16.7653 74.8034 17.128C75.4114 17.4907 75.87 17.9867 76.1794 18.616C76.4994 19.2453 76.6594 19.944 76.6594 20.712C76.6594 20.9573 76.6434 21.192 76.6114 21.416H70.4834C70.59 22.0667 70.846 22.5627 71.2514 22.904C71.6674 23.2347 72.1634 23.4 72.7394 23.4C73.2194 23.4 73.63 23.2987 73.9714 23.096C74.3234 22.8827 74.6007 22.6 74.8034 22.248L76.4994 23.08C75.6674 24.5307 74.4034 25.256 72.7074 25.256ZM74.6434 19.928C74.622 19.672 74.526 19.4213 74.3554 19.176C74.1954 18.92 73.966 18.712 73.6674 18.552C73.3794 18.3813 73.038 18.296 72.6434 18.296C72.142 18.296 71.71 18.4453 71.3474 18.744C70.9954 19.032 70.7394 19.4267 70.5794 19.928H74.6434Z" fill="white"/>
</svg>
