<svg width="380" height="360" viewBox="0 0 380 360" fill="none" xmlns="http://www.w3.org/2000/svg">
<rect width="380" height="360" fill="#00CEAE"/>
<mask id="mask0_58_812" style="mask-type:alpha" maskUnits="userSpaceOnUse" x="0" y="0" width="380" height="360">
<rect width="380" height="360" fill="#D9D9D9"/>
</mask>
<g mask="url(#mask0_58_812)">
<path d="M190 460C245.228 460 290 415.228 290 360C290 304.772 245.228 260 190 260C134.772 260 90 304.772 90 360C90 415.228 134.772 460 190 460Z" fill="#00CEAE"/>
<path d="M183.954 360.407L149.454 379.844L116.188 360L149 341.016L183.954 360.407ZM230.625 340.157L196.047 359.594L230.938 379.047L263.75 360.063L230.625 340.157ZM186.016 315.016L153.204 296.047L152.5 334.797L186.625 354.969L186.016 315.016ZM227.5 385.204L193.375 365.032L193.985 404.985L226.797 423.954L227.5 385.204ZM226.969 334.063V296.094L193.125 314.969L192.704 354.563L226.969 334.063ZM186.875 405.032L187.297 365.438L153.032 385.938V423.907L186.875 405.032Z" fill="#B2FFF3"/>
<circle cx="190" cy="-20.0001" r="200" transform="rotate(-45 190 -20.0001)" fill="#B3FFF3"/>
<circle cx="190.002" cy="-20.0002" r="75" transform="rotate(-45 190.002 -20.0002)" fill="#00CEAE"/>
<rect x="39.7397" y="112.582" width="400" height="25" transform="rotate(-45 39.7397 112.582)" fill="#00CEAE"/>
<circle cx="189.997" cy="-19.9945" r="50" transform="rotate(-45 189.997 -19.9945)" fill="#B3FFF3"/>
</g>
</svg>
