<svg width="60" height="60" viewBox="0 0 60 60" fill="none" xmlns="http://www.w3.org/2000/svg">
<path d="M30 60C46.5685 60 60 46.5685 60 30C60 13.4315 46.5685 0 30 0C13.4315 0 0 13.4315 0 30C0 46.5685 13.4315 60 30 60Z" fill="#74CEC0"/>
<path d="M28.1859 30.1219L17.8359 35.9531L7.8562 30L17.7 24.3047L28.1859 30.1219ZM42.1875 24.0469L31.814 29.8781L42.2812 35.7141L52.125 30.0187L42.1875 24.0469ZM28.8046 16.5047L18.9609 10.8141L18.75 22.4391L28.9875 28.4906L28.8046 16.5047ZM41.25 37.5609L31.0125 31.5094L31.1953 43.4953L41.039 49.1859L41.25 37.5609ZM41.0906 22.2187V10.8281L30.9375 16.4906L30.8109 28.3687L41.0906 22.2187ZM29.0625 43.5094L29.189 31.6312L18.9093 37.7812V49.1719L29.0625 43.5094Z" fill="white"/>
</svg>
