<svg width="118" height="36" viewBox="0 0 118 36" fill="none" xmlns="http://www.w3.org/2000/svg">
<path d="M2.75897 9.21048L15.4574 0.485323L28.1558 9.21048V26.7895L15.4574 35.5147L2.75897 26.7895V9.21048Z" fill="#EF2B34" stroke="#665F5F" stroke-width="0.8"/>
<rect x="4.56763" y="10.8" width="21.7796" height="14.4" fill="#D7D7D7"/>
<rect x="6.38257" y="12" width="18.1497" height="12" fill="#717171"/>
<ellipse cx="15.4576" cy="18" rx="4.83991" ry="4.8" fill="#D9D9D9"/>
<ellipse cx="15.4574" cy="18" rx="1.81497" ry="1.8" fill="#717171"/>
<rect x="10.6178" y="17.7" width="9.67982" height="0.6" fill="#717171"/>
<ellipse cx="15.4573" cy="18" rx="1.20998" ry="1.2" fill="#D9D9D9"/>
<path d="M10.6176 9.49999C11.5618 9.49999 12.33 8.74043 12.33 7.79999C12.33 6.85955 11.5618 6.09999 10.6176 6.09999C9.67337 6.09999 8.9051 6.85955 8.9051 7.79999C8.9051 8.74043 9.67337 9.49999 10.6176 9.49999Z" fill="#34E0FB" stroke="#BEBBBB" stroke-width="0.4"/>
<ellipse cx="10.0123" cy="7.49996" rx="0.604989" ry="0.6" fill="#E6F9F6"/>
<path d="M15.1552 8.60001C15.5982 8.60001 15.9601 8.2434 15.9601 7.80001C15.9601 7.35663 15.5982 7.00001 15.1552 7.00001C14.7121 7.00001 14.3502 7.35663 14.3502 7.80001C14.3502 8.2434 14.7121 8.60001 15.1552 8.60001Z" fill="#FF0000" stroke="black" stroke-width="0.4"/>
<path d="M18.1799 8.60001C18.623 8.60001 18.9849 8.2434 18.9849 7.80001C18.9849 7.35663 18.623 7.00001 18.1799 7.00001C17.7369 7.00001 17.375 7.35663 17.375 7.80001C17.375 8.2434 17.7369 8.60001 18.1799 8.60001Z" fill="#FFE600" stroke="black" stroke-width="0.4"/>
<path d="M21.2047 8.60001C21.6477 8.60001 22.0097 8.2434 22.0097 7.80001C22.0097 7.35663 21.6477 7.00001 21.2047 7.00001C20.7617 7.00001 20.3997 7.35663 20.3997 7.80001C20.3997 8.2434 20.7617 8.60001 21.2047 8.60001Z" fill="#00D909" stroke="black" stroke-width="0.4"/>
<path d="M36.2554 10.68H41.2954C42.202 10.68 43.0287 10.8733 43.7754 11.26C44.522 11.6333 45.1087 12.1667 45.5354 12.86C45.962 13.54 46.1754 14.32 46.1754 15.2C46.1754 16.08 45.962 16.8667 45.5354 17.56C45.1087 18.2533 44.522 18.7933 43.7754 19.18C43.0287 19.5533 42.202 19.74 41.2954 19.74H38.9554V25H36.2554V10.68ZM41.3754 17.18C42.042 17.18 42.562 16.9867 42.9354 16.6C43.322 16.2133 43.5154 15.7467 43.5154 15.2C43.5154 14.6533 43.322 14.1933 42.9354 13.82C42.562 13.4333 42.042 13.24 41.3754 13.24H38.9554V17.18H41.3754ZM52.2793 25.32C51.2259 25.32 50.2859 25.0867 49.4593 24.62C48.6326 24.14 47.9859 23.4933 47.5193 22.68C47.0659 21.8533 46.8393 20.9267 46.8393 19.9C46.8393 18.8867 47.0659 17.9667 47.5193 17.14C47.9859 16.3133 48.6326 15.6667 49.4593 15.2C50.2859 14.72 51.2259 14.48 52.2793 14.48C53.3193 14.48 54.2526 14.72 55.0793 15.2C55.9059 15.6667 56.5459 16.3133 56.9993 17.14C57.4659 17.9667 57.6993 18.8867 57.6993 19.9C57.6993 20.9267 57.4659 21.8533 56.9993 22.68C56.5459 23.4933 55.9059 24.14 55.0793 24.62C54.2526 25.0867 53.3193 25.32 52.2793 25.32ZM52.2793 22.9C52.7859 22.9 53.2526 22.78 53.6793 22.54C54.1059 22.3 54.4459 21.9533 54.6993 21.5C54.9526 21.0467 55.0793 20.5133 55.0793 19.9C55.0793 19.3 54.9526 18.7733 54.6993 18.32C54.4459 17.8667 54.1059 17.52 53.6793 17.28C53.2526 17.04 52.7859 16.92 52.2793 16.92C51.7726 16.92 51.3059 17.04 50.8793 17.28C50.4526 17.52 50.1059 17.8667 49.8393 18.32C49.5859 18.7733 49.4593 19.3 49.4593 19.9C49.4593 20.5 49.5859 21.0333 49.8393 21.5C50.1059 21.9533 50.4526 22.3 50.8793 22.54C51.3059 22.78 51.7726 22.9 52.2793 22.9ZM59.6063 10.68H62.2263V18.48H62.3663L66.0263 14.8H69.2463V14.96L65.3863 18.74L69.4263 24.84V25H66.3263L63.5463 20.54L62.2263 21.84V25H59.6063V10.68ZM75.2652 25.32C74.2519 25.32 73.3385 25.0867 72.5252 24.62C71.7119 24.1533 71.0719 23.5133 70.6052 22.7C70.1519 21.8733 69.9252 20.9467 69.9252 19.92C69.9252 18.9467 70.1519 18.0467 70.6052 17.22C71.0585 16.38 71.6852 15.7133 72.4852 15.22C73.2852 14.7267 74.1785 14.48 75.1652 14.48C76.2185 14.48 77.1252 14.7067 77.8852 15.16C78.6452 15.6133 79.2185 16.2333 79.6052 17.02C80.0052 17.8067 80.2052 18.68 80.2052 19.64C80.2052 19.9467 80.1852 20.24 80.1452 20.52H72.4852C72.6185 21.3333 72.9385 21.9533 73.4452 22.38C73.9652 22.7933 74.5852 23 75.3052 23C75.9052 23 76.4185 22.8733 76.8452 22.62C77.2852 22.3533 77.6319 22 77.8852 21.56L80.0052 22.6C78.9652 24.4133 77.3852 25.32 75.2652 25.32ZM77.6852 18.66C77.6585 18.34 77.5385 18.0267 77.3252 17.72C77.1252 17.4 76.8385 17.14 76.4652 16.94C76.1052 16.7267 75.6785 16.62 75.1852 16.62C74.5585 16.62 74.0185 16.8067 73.5652 17.18C73.1252 17.54 72.8052 18.0333 72.6052 18.66H77.6852ZM74.9252 10.12H77.9852L76.1852 12.84H74.0852L74.9252 10.12ZM86.7011 25.32C85.7811 25.32 84.9411 25.0933 84.1811 24.64C83.4345 24.1733 82.8411 23.5333 82.4011 22.72C81.9745 21.8933 81.7611 20.9533 81.7611 19.9C81.7611 18.86 81.9745 17.9267 82.4011 17.1C82.8411 16.2733 83.4345 15.6333 84.1811 15.18C84.9411 14.7133 85.7811 14.48 86.7011 14.48C87.3945 14.48 88.0078 14.6333 88.5411 14.94C89.0745 15.2333 89.4811 15.6 89.7611 16.04H89.9211L89.7611 14.6V10.68H92.3611V25H89.9211V23.78H89.7611C89.4945 24.22 89.0878 24.5867 88.5411 24.88C88.0078 25.1733 87.3945 25.32 86.7011 25.32ZM87.1411 22.9C87.6345 22.9 88.0945 22.7733 88.5211 22.52C88.9478 22.2667 89.2878 21.9133 89.5411 21.46C89.7945 21.0067 89.9211 20.4867 89.9211 19.9C89.9211 19.3133 89.7945 18.7933 89.5411 18.34C89.2878 17.8867 88.9478 17.54 88.5211 17.3C88.0945 17.0467 87.6345 16.92 87.1411 16.92C86.6611 16.92 86.2078 17.0467 85.7811 17.3C85.3545 17.54 85.0145 17.8867 84.7611 18.34C84.5078 18.7933 84.3811 19.3133 84.3811 19.9C84.3811 20.4867 84.5078 21.0067 84.7611 21.46C85.0145 21.9133 85.3545 22.2667 85.7811 22.52C86.2078 22.7733 86.6611 22.9 87.1411 22.9ZM99.6207 25.32C98.6073 25.32 97.694 25.0867 96.8807 24.62C96.0673 24.1533 95.4273 23.5133 94.9607 22.7C94.5073 21.8733 94.2807 20.9467 94.2807 19.92C94.2807 18.9467 94.5073 18.0467 94.9607 17.22C95.414 16.38 96.0407 15.7133 96.8407 15.22C97.6407 14.7267 98.534 14.48 99.5207 14.48C100.574 14.48 101.481 14.7067 102.241 15.16C103.001 15.6133 103.574 16.2333 103.961 17.02C104.361 17.8067 104.561 18.68 104.561 19.64C104.561 19.9467 104.541 20.24 104.501 20.52H96.8407C96.974 21.3333 97.294 21.9533 97.8007 22.38C98.3207 22.7933 98.9407 23 99.6607 23C100.261 23 100.774 22.8733 101.201 22.62C101.641 22.3533 101.987 22 102.241 21.56L104.361 22.6C103.321 24.4133 101.741 25.32 99.6207 25.32ZM102.041 18.66C102.014 18.34 101.894 18.0267 101.681 17.72C101.481 17.4 101.194 17.14 100.821 16.94C100.461 16.7267 100.034 16.62 99.5407 16.62C98.914 16.62 98.374 16.8067 97.9207 17.18C97.4807 17.54 97.1607 18.0333 96.9607 18.66H102.041ZM108.904 19.82L105.384 14.8H108.484L110.424 17.72H110.544L112.364 14.8H115.564L111.984 19.82L115.564 25H112.464L110.504 22.02H110.384L108.464 25H105.364L108.904 19.82Z" fill="white"/>
</svg>
