<svg width="160" height="48" viewBox="0 0 160 48" fill="none" xmlns="http://www.w3.org/2000/svg">
<path d="M3.67949 12.5237L20 1.21655L36.3205 12.5237V35.4763L20 46.7834L3.67949 35.4763V12.5237Z" fill="#EF2B34" stroke="#665F5F" stroke-width="2"/>
<rect x="5.59998" y="14.4" width="28.8" height="19.2" fill="#D7D7D7"/>
<rect x="8" y="16" width="24" height="16" fill="#717171"/>
<circle cx="20" cy="24" r="6.4" fill="#D9D9D9"/>
<circle cx="20" cy="24" r="2.4" fill="#717171"/>
<rect x="13.6" y="23.6" width="12.8" height="0.8" fill="#717171"/>
<circle cx="19.9999" cy="24" r="1.6" fill="#D9D9D9"/>
<circle cx="13.6" cy="10.4" r="2.5" fill="#34E0FB" stroke="#BEBBBB"/>
<circle cx="12.8" cy="10.0001" r="0.8" fill="#E6F9F6"/>
<circle cx="19.5999" cy="10.4" r="1.3" fill="#FF0000" stroke="black"/>
<circle cx="23.5999" cy="10.4" r="1.3" fill="#FFE600" stroke="black"/>
<circle cx="27.5999" cy="10.4" r="1.3" fill="#00D909" stroke="black"/>
<path d="M48.296 12.952H55.352C56.6213 12.952 57.7787 13.2227 58.824 13.764C59.8693 14.2867 60.6907 15.0333 61.288 16.004C61.8853 16.956 62.184 18.048 62.184 19.28C62.184 20.512 61.8853 21.6133 61.288 22.584C60.6907 23.5547 59.8693 24.3107 58.824 24.852C57.7787 25.3747 56.6213 25.636 55.352 25.636H52.076V33H48.296V12.952ZM55.464 22.052C56.3973 22.052 57.1253 21.7813 57.648 21.24C58.1893 20.6987 58.46 20.0453 58.46 19.28C58.46 18.5147 58.1893 17.8707 57.648 17.348C57.1253 16.8067 56.3973 16.536 55.464 16.536H52.076V22.052H55.464ZM70.7295 33.448C69.2548 33.448 67.9388 33.1213 66.7815 32.468C65.6241 31.796 64.7188 30.8907 64.0655 29.752C63.4308 28.5947 63.1135 27.2973 63.1135 25.86C63.1135 24.4413 63.4308 23.1533 64.0655 21.996C64.7188 20.8387 65.6241 19.9333 66.7815 19.28C67.9388 18.608 69.2548 18.272 70.7295 18.272C72.1855 18.272 73.4921 18.608 74.6495 19.28C75.8068 19.9333 76.7028 20.8387 77.3375 21.996C77.9908 23.1533 78.3175 24.4413 78.3175 25.86C78.3175 27.2973 77.9908 28.5947 77.3375 29.752C76.7028 30.8907 75.8068 31.796 74.6495 32.468C73.4921 33.1213 72.1855 33.448 70.7295 33.448ZM70.7295 30.06C71.4388 30.06 72.0921 29.892 72.6895 29.556C73.2868 29.22 73.7628 28.7347 74.1175 28.1C74.4721 27.4653 74.6495 26.7187 74.6495 25.86C74.6495 25.02 74.4721 24.2827 74.1175 23.648C73.7628 23.0133 73.2868 22.528 72.6895 22.192C72.0921 21.856 71.4388 21.688 70.7295 21.688C70.0201 21.688 69.3668 21.856 68.7695 22.192C68.1721 22.528 67.6868 23.0133 67.3135 23.648C66.9588 24.2827 66.7815 25.02 66.7815 25.86C66.7815 26.7 66.9588 27.4467 67.3135 28.1C67.6868 28.7347 68.1721 29.22 68.7695 29.556C69.3668 29.892 70.0201 30.06 70.7295 30.06ZM80.9873 12.952H84.6553V23.872H84.8513L89.9753 18.72H94.4833V18.944L89.0793 24.236L94.7353 32.776V33H90.3953L86.5033 26.756L84.6553 28.576V33H80.9873V12.952ZM102.91 33.448C101.491 33.448 100.212 33.1213 99.0738 32.468C97.9351 31.8147 97.0391 30.9187 96.3858 29.78C95.7511 28.6227 95.4338 27.3253 95.4338 25.888C95.4338 24.5253 95.7511 23.2653 96.3858 22.108C97.0204 20.932 97.8978 19.9987 99.0178 19.308C100.138 18.6173 101.388 18.272 102.77 18.272C104.244 18.272 105.514 18.5893 106.578 19.224C107.642 19.8587 108.444 20.7267 108.986 21.828C109.546 22.9293 109.826 24.152 109.826 25.496C109.826 25.9253 109.798 26.336 109.742 26.728H99.0178C99.2044 27.8667 99.6524 28.7347 100.362 29.332C101.09 29.9107 101.958 30.2 102.966 30.2C103.806 30.2 104.524 30.0227 105.122 29.668C105.738 29.2947 106.223 28.8 106.578 28.184L109.546 29.64C108.09 32.1787 105.878 33.448 102.91 33.448ZM106.298 24.124C106.26 23.676 106.092 23.2373 105.794 22.808C105.514 22.36 105.112 21.996 104.59 21.716C104.086 21.4173 103.488 21.268 102.798 21.268C101.92 21.268 101.164 21.5293 100.53 22.052C99.9138 22.556 99.4658 23.2467 99.1858 24.124H106.298ZM102.434 12.168H106.718L104.198 15.976H101.258L102.434 12.168ZM118.92 33.448C117.632 33.448 116.456 33.1307 115.392 32.496C114.347 31.8427 113.516 30.9467 112.9 29.808C112.303 28.6507 112.004 27.3347 112.004 25.86C112.004 24.404 112.303 23.0973 112.9 21.94C113.516 20.7827 114.347 19.8867 115.392 19.252C116.456 18.5987 117.632 18.272 118.92 18.272C119.891 18.272 120.749 18.4867 121.496 18.916C122.243 19.3267 122.812 19.84 123.204 20.456H123.428L123.204 18.44V12.952H126.844V33H123.428V31.292H123.204C122.831 31.908 122.261 32.4213 121.496 32.832C120.749 33.2427 119.891 33.448 118.92 33.448ZM119.536 30.06C120.227 30.06 120.871 29.8827 121.468 29.528C122.065 29.1733 122.541 28.6787 122.896 28.044C123.251 27.4093 123.428 26.6813 123.428 25.86C123.428 25.0387 123.251 24.3107 122.896 23.676C122.541 23.0413 122.065 22.556 121.468 22.22C120.871 21.8653 120.227 21.688 119.536 21.688C118.864 21.688 118.229 21.8653 117.632 22.22C117.035 22.556 116.559 23.0413 116.204 23.676C115.849 24.3107 115.672 25.0387 115.672 25.86C115.672 26.6813 115.849 27.4093 116.204 28.044C116.559 28.6787 117.035 29.1733 117.632 29.528C118.229 29.8827 118.864 30.06 119.536 30.06ZM137.007 33.448C135.589 33.448 134.31 33.1213 133.171 32.468C132.033 31.8147 131.137 30.9187 130.483 29.78C129.849 28.6227 129.531 27.3253 129.531 25.888C129.531 24.5253 129.849 23.2653 130.483 22.108C131.118 20.932 131.995 19.9987 133.115 19.308C134.235 18.6173 135.486 18.272 136.867 18.272C138.342 18.272 139.611 18.5893 140.675 19.224C141.739 19.8587 142.542 20.7267 143.083 21.828C143.643 22.9293 143.923 24.152 143.923 25.496C143.923 25.9253 143.895 26.336 143.839 26.728H133.115C133.302 27.8667 133.75 28.7347 134.459 29.332C135.187 29.9107 136.055 30.2 137.063 30.2C137.903 30.2 138.622 30.0227 139.219 29.668C139.835 29.2947 140.321 28.8 140.675 28.184L143.643 29.64C142.187 32.1787 139.975 33.448 137.007 33.448ZM140.395 24.124C140.358 23.676 140.19 23.2373 139.891 22.808C139.611 22.36 139.21 21.996 138.687 21.716C138.183 21.4173 137.586 21.268 136.895 21.268C136.018 21.268 135.262 21.5293 134.627 22.052C134.011 22.556 133.563 23.2467 133.283 24.124H140.395ZM150.004 25.748L145.076 18.72H149.416L152.132 22.808H152.3L154.848 18.72H159.328L154.316 25.748L159.328 33H154.988L152.244 28.828H152.076L149.388 33H145.048L150.004 25.748Z" fill="white"/>
</svg>
