<svg width="24" height="24" viewBox="0 0 24 24" fill="none" xmlns="http://www.w3.org/2000/svg">
<g clip-path="url(#clip0_43_877)">
<path d="M23.6917 22.2576L18.2838 16.8449C19.7423 15.0684 20.6134 12.7927 20.6134 10.3163C20.6134 4.62465 15.9984 0.00964355 10.3067 0.00964355C4.61501 0.00964355 0 4.62465 0 10.3163C0 16.008 4.61501 20.623 10.3067 20.623C12.7928 20.623 15.0734 19.7421 16.8548 18.2739L22.2626 23.6817C22.894 24.2592 23.4861 23.8873 23.6917 23.6817C24.1028 23.2755 24.1028 22.6638 23.6917 22.2576ZM2.01142 10.3163C2.01142 5.73558 5.72594 2.02106 10.3067 2.02106C14.8874 2.02106 18.6069 5.73558 18.6069 10.3163C18.6069 14.8971 14.8923 18.6116 10.3116 18.6116C5.73083 18.6116 2.01142 14.8971 2.01142 10.3163Z" fill="white"/>
</g>
<defs>
<clipPath id="clip0_43_877">
<rect width="24" height="24" fill="white"/>
</clipPath>
</defs>
</svg>
