<svg width="100" height="40" viewBox="0 0 100 40" fill="none" xmlns="http://www.w3.org/2000/svg">
<rect width="100" height="40" rx="8" fill="#9099A1"/>
<path d="M20 32C26.6274 32 32 26.6274 32 20C32 13.3726 26.6274 8 20 8C13.3726 8 8 13.3726 8 20C8 26.6274 13.3726 32 20 32Z" fill="#9099A1"/>
<path d="M20 27.5C18.5166 27.5 17.0666 27.0601 15.8332 26.236C14.5999 25.4119 13.6386 24.2406 13.0709 22.8701C12.5032 21.4997 12.3547 19.9917 12.6441 18.5368C12.9335 17.082 13.6478 15.7456 14.6967 14.6967C15.7456 13.6478 17.082 12.9335 18.5368 12.6441C19.9917 12.3547 21.4997 12.5032 22.8701 13.0709C24.2406 13.6386 25.4119 14.5999 26.236 15.8332C27.0601 17.0666 27.5 18.5166 27.5 20C27.5 21.9891 26.7098 23.8968 25.3033 25.3033C23.8968 26.7098 21.9891 27.5 20 27.5ZM20 15.5C19.11 15.5 18.24 15.7639 17.4999 16.2584C16.7599 16.7529 16.1831 17.4557 15.8425 18.2779C15.502 19.1002 15.4128 20.005 15.5865 20.8779C15.7601 21.7508 16.1887 22.5526 16.818 23.182C17.4474 23.8113 18.2492 24.2399 19.1221 24.4135C19.995 24.5872 20.8998 24.4981 21.7221 24.1575C22.5443 23.8169 23.2472 23.2401 23.7416 22.5001C24.2361 21.76 24.5 20.89 24.5 20C24.5 18.8065 24.0259 17.6619 23.182 16.818C22.3381 15.9741 21.1935 15.5 20 15.5Z" fill="white"/>
<path d="M38.312 13.544H40.824L45.432 21.224H45.56L45.432 19.016V13.544H47.576V25H45.304L40.44 16.888H40.312L40.44 19.096V25H38.312V13.544ZM53.803 25.256C52.9603 25.256 52.2083 25.0693 51.547 24.696C50.8857 24.312 50.3683 23.7947 49.995 23.144C49.6323 22.4827 49.451 21.7413 49.451 20.92C49.451 20.1093 49.6323 19.3733 49.995 18.712C50.3683 18.0507 50.8857 17.5333 51.547 17.16C52.2083 16.776 52.9603 16.584 53.803 16.584C54.635 16.584 55.3817 16.776 56.043 17.16C56.7043 17.5333 57.2163 18.0507 57.579 18.712C57.9523 19.3733 58.139 20.1093 58.139 20.92C58.139 21.7413 57.9523 22.4827 57.579 23.144C57.2163 23.7947 56.7043 24.312 56.043 24.696C55.3817 25.0693 54.635 25.256 53.803 25.256ZM53.803 23.32C54.2083 23.32 54.5817 23.224 54.923 23.032C55.2643 22.84 55.5363 22.5627 55.739 22.2C55.9417 21.8373 56.043 21.4107 56.043 20.92C56.043 20.44 55.9417 20.0187 55.739 19.656C55.5363 19.2933 55.2643 19.016 54.923 18.824C54.5817 18.632 54.2083 18.536 53.803 18.536C53.3977 18.536 53.0243 18.632 52.683 18.824C52.3417 19.016 52.0643 19.2933 51.851 19.656C51.6483 20.0187 51.547 20.44 51.547 20.92C51.547 21.4 51.6483 21.8267 51.851 22.2C52.0643 22.5627 52.3417 22.84 52.683 23.032C53.0243 23.224 53.3977 23.32 53.803 23.32ZM59.5865 16.84H61.5545V17.928H61.6825C61.8852 17.544 62.1998 17.2293 62.6265 16.984C63.0532 16.728 63.5225 16.6 64.0345 16.6C64.4078 16.6 64.7492 16.6587 65.0585 16.776V18.872C64.7705 18.7653 64.5252 18.6907 64.3225 18.648C64.1305 18.5947 63.9225 18.568 63.6985 18.568C63.0798 18.568 62.5892 18.792 62.2265 19.24C61.8638 19.688 61.6825 20.2533 61.6825 20.936V25H59.5865V16.84ZM66.4146 16.84H68.3826V17.864H68.5106C68.7666 17.4693 69.108 17.16 69.5346 16.936C69.972 16.7013 70.4573 16.584 70.9906 16.584C71.5666 16.584 72.068 16.7227 72.4946 17C72.9213 17.2667 73.2253 17.608 73.4066 18.024C73.6733 17.5973 74.036 17.2507 74.4946 16.984C74.964 16.7173 75.5133 16.584 76.1426 16.584C77.0706 16.584 77.7746 16.872 78.2546 17.448C78.7453 18.0133 78.9906 18.7813 78.9906 19.752V25H76.9106V20.136C76.9106 19.624 76.788 19.2293 76.5426 18.952C76.308 18.6747 75.9773 18.536 75.5506 18.536C75.0066 18.536 74.5693 18.7547 74.2386 19.192C73.9186 19.6187 73.7586 20.184 73.7586 20.888V25H71.6626V20.136C71.6626 19.624 71.5346 19.2293 71.2786 18.952C71.0333 18.6747 70.6813 18.536 70.2226 18.536C69.7106 18.536 69.2946 18.7547 68.9746 19.192C68.6653 19.6187 68.5106 20.184 68.5106 20.888V25H66.4146V16.84ZM83.4106 25.256C82.5466 25.256 81.8373 25.0053 81.2826 24.504C80.728 23.992 80.4506 23.3253 80.4506 22.504C80.4506 21.96 80.5946 21.48 80.8826 21.064C81.1706 20.648 81.5653 20.328 82.0666 20.104C82.568 19.88 83.1226 19.768 83.7306 19.768C84.5733 19.768 85.2933 19.8907 85.8906 20.136V19.784C85.8906 19.336 85.72 18.9733 85.3786 18.696C85.048 18.4187 84.6 18.28 84.0346 18.28C83.6506 18.28 83.2773 18.3707 82.9146 18.552C82.5626 18.7227 82.2693 18.952 82.0346 19.24L80.6906 18.184C81.0853 17.672 81.5813 17.2773 82.1786 17C82.776 16.7227 83.4266 16.584 84.1306 16.584C85.3786 16.584 86.328 16.872 86.9786 17.448C87.6293 18.024 87.9546 18.8667 87.9546 19.976V25H85.8906V24.168H85.7626C85.5173 24.488 85.192 24.7493 84.7866 24.952C84.392 25.1547 83.9333 25.256 83.4106 25.256ZM83.9066 23.624C84.5146 23.624 84.9946 23.432 85.3466 23.048C85.7093 22.6533 85.8906 22.1947 85.8906 21.672C85.3466 21.416 84.776 21.288 84.1786 21.288C83.0906 21.288 82.5466 21.6933 82.5466 22.504C82.5466 22.8347 82.664 23.1067 82.8986 23.32C83.1333 23.5227 83.4693 23.624 83.9066 23.624ZM89.8834 13.544H91.9794V25H89.8834V13.544Z" fill="white"/>
</svg>
