<svg width="380" height="360" viewBox="0 0 380 360" fill="none" xmlns="http://www.w3.org/2000/svg">
<rect width="380" height="360" fill="#6C7B89"/>
<mask id="mask0_58_842" style="mask-type:alpha" maskUnits="userSpaceOnUse" x="0" y="0" width="380" height="360">
<rect width="380" height="360" fill="#D9D9D9"/>
</mask>
<g mask="url(#mask0_58_842)">
<path d="M190 460C245.228 460 290 415.228 290 360C290 304.772 245.228 260 190 260C134.772 260 90 304.772 90 360C90 415.228 134.772 460 190 460Z" fill="#6C7B89"/>
<path d="M190 422.5C177.639 422.5 165.555 418.834 155.277 411.967C144.999 405.099 136.988 395.338 132.258 383.918C127.527 372.497 126.289 359.931 128.701 347.807C131.113 335.683 137.065 324.547 145.806 315.806C154.547 307.065 165.683 301.113 177.807 298.701C189.931 296.289 202.497 297.527 213.918 302.258C225.338 306.988 235.099 314.999 241.967 325.277C248.834 335.555 252.5 347.639 252.5 360C252.5 376.576 245.915 392.473 234.194 404.194C222.473 415.915 206.576 422.5 190 422.5ZM190 322.5C182.583 322.5 175.333 324.699 169.166 328.82C162.999 332.94 158.193 338.797 155.355 345.649C152.516 352.502 151.774 360.042 153.221 367.316C154.668 374.59 158.239 381.272 163.484 386.517C168.728 391.761 175.41 395.333 182.684 396.779C189.958 398.226 197.498 397.484 204.351 394.646C211.203 391.807 217.06 387.001 221.18 380.834C225.301 374.667 227.5 367.417 227.5 360C227.5 350.054 223.549 340.516 216.517 333.484C209.484 326.451 199.946 322.5 190 322.5Z" fill="#C4CBD0"/>
<circle cx="190" cy="-20.0001" r="200" transform="rotate(-45 190 -20.0001)" fill="#C4CBD0"/>
<circle cx="190.002" cy="-20.0002" r="75" transform="rotate(-45 190.002 -20.0002)" fill="#6C7B89"/>
<rect x="39.7397" y="112.582" width="400" height="25" transform="rotate(-45 39.7397 112.582)" fill="#6C7B89"/>
<circle cx="189.997" cy="-19.9945" r="50" transform="rotate(-45 189.997 -19.9945)" fill="#C4CBD0"/>
</g>
</svg>
