<svg width="60" height="60" viewBox="0 0 60 60" fill="none" xmlns="http://www.w3.org/2000/svg">
<path d="M30 60C46.5685 60 60 46.5685 60 30C60 13.4315 46.5685 0 30 0C13.4315 0 0 13.4315 0 30C0 46.5685 13.4315 60 30 60Z" fill="#9099A1"/>
<path d="M30 48.75C26.2916 48.75 22.6665 47.6503 19.5831 45.5901C16.4996 43.5298 14.0964 40.6014 12.6773 37.1753C11.2581 33.7492 10.8868 29.9792 11.6103 26.3421C12.3338 22.7049 14.1195 19.364 16.7418 16.7418C19.364 14.1195 22.7049 12.3338 26.3421 11.6103C29.9792 10.8868 33.7492 11.2581 37.1753 12.6773C40.6014 14.0964 43.5298 16.4996 45.5901 19.5831C47.6503 22.6665 48.75 26.2916 48.75 30C48.75 34.9728 46.7746 39.742 43.2583 43.2583C39.742 46.7746 34.9728 48.75 30 48.75ZM30 18.75C27.775 18.75 25.5999 19.4098 23.7498 20.646C21.8998 21.8821 20.4578 23.6392 19.6064 25.6948C18.7549 27.7505 18.5321 30.0125 18.9662 32.1948C19.4003 34.3771 20.4717 36.3816 22.0451 37.955C23.6184 39.5283 25.623 40.5998 27.8052 41.0338C29.9875 41.4679 32.2495 41.2451 34.3052 40.3937C36.3609 39.5422 38.1179 38.1002 39.354 36.2502C40.5902 34.4001 41.25 32.225 41.25 30C41.25 27.0163 40.0647 24.1548 37.955 22.0451C35.8452 19.9353 32.9837 18.75 30 18.75Z" fill="white"/>
</svg>
