<svg width="380" height="360" viewBox="0 0 380 360" fill="none" xmlns="http://www.w3.org/2000/svg">
<rect width="380" height="360" fill="#6E00A0"/>
<mask id="mask0_58_924" style="mask-type:alpha" maskUnits="userSpaceOnUse" x="0" y="0" width="380" height="360">
<rect width="380" height="360" fill="#D9D9D9"/>
</mask>
<g mask="url(#mask0_58_924)">
<path d="M190 260C134.772 260 90 304.772 90 360C90 415.228 134.772 460 190 460C245.228 460 290 415.228 290 360C290 304.772 245.228 260 190 260Z" fill="#6E009F"/>
<path d="M127.5 367.813C127.5 396.578 155.484 419.891 190 419.891C224.516 419.891 252.5 396.578 252.5 367.813C252.5 352.188 244.172 338.125 231.016 328.531C232.83 325.252 233.772 321.561 233.75 317.813C233.75 307.453 226.984 299.063 218.641 299.063C212.141 299.063 206.609 304.172 204.469 311.313C202.609 304.234 196.844 299.063 190 299.063C183.156 299.063 177.391 304.234 175.531 311.313C173.391 304.172 167.859 299.063 161.359 299.063C153.016 299.063 146.25 307.453 146.25 317.813C146.228 321.561 147.17 325.252 148.984 328.531C135.828 338.125 127.5 352.188 127.5 367.813ZM190 336.047C212.875 336.047 232.188 350.625 232.188 367.813C232.188 385 212.875 399.578 190 399.578C167.125 399.578 147.812 385 147.812 367.813C147.812 350.625 167.125 336.047 190 336.047Z" fill="#BC5FE6"/>
<circle cx="190" cy="-20.0001" r="200" transform="rotate(-45 190 -20.0001)" fill="#BC5FE6"/>
<circle cx="190.002" cy="-20.0001" r="75" transform="rotate(-45 190.002 -20.0001)" fill="#6E009F"/>
<rect x="39.7397" y="112.582" width="400" height="25" transform="rotate(-45 39.7397 112.582)" fill="#6E009F"/>
<circle cx="189.997" cy="-19.9945" r="50" transform="rotate(-45 189.997 -19.9945)" fill="#BC5FE6"/>
</g>
</svg>
