<svg width="60" height="60" viewBox="0 0 60 60" fill="none" xmlns="http://www.w3.org/2000/svg">
<path d="M30 60C46.5685 60 60 46.5685 60 30C60 13.4315 46.5685 0 30 0C13.4315 0 0 13.4315 0 30C0 46.5685 13.4315 60 30 60Z" fill="#AB6AC8"/>
<path d="M48.75 27.6562C48.75 19.0266 40.3547 12.0328 30 12.0328C19.6453 12.0328 11.25 19.0266 11.25 27.6562C11.25 32.3437 13.7484 36.5625 17.6953 39.4406C17.1509 40.4245 16.8684 41.5318 16.875 42.6562C16.875 45.7641 18.9047 48.2812 21.4078 48.2812C23.3578 48.2812 25.0172 46.7484 25.6594 44.6062C26.2172 46.7297 27.9469 48.2812 30 48.2812C32.0531 48.2812 33.7828 46.7297 34.3406 44.6062C34.9828 46.7484 36.6422 48.2812 38.5922 48.2812C41.0953 48.2812 43.125 45.7641 43.125 42.6562C43.1316 41.5318 42.8491 40.4245 42.3047 39.4406C46.2516 36.5625 48.75 32.3437 48.75 27.6562ZM30 37.1859C23.1375 37.1859 17.3438 32.8125 17.3438 27.6562C17.3438 22.5 23.1375 18.1266 30 18.1266C36.8625 18.1266 42.6562 22.5 42.6562 27.6562C42.6562 32.8125 36.8625 37.1859 30 37.1859Z" fill="white"/>
</svg>
