<svg width="100" height="40" viewBox="0 0 100 40" fill="none" xmlns="http://www.w3.org/2000/svg">
<rect width="100" height="40" rx="8" fill="#AB6AC8"/>
<path d="M41.312 14.544H45.344C46.0693 14.544 46.7307 14.6987 47.328 15.008C47.9253 15.3067 48.3947 15.7333 48.736 16.288C49.0773 16.832 49.248 17.456 49.248 18.16C49.248 18.864 49.0773 19.4933 48.736 20.048C48.3947 20.6027 47.9253 21.0347 47.328 21.344C46.7307 21.6427 46.0693 21.792 45.344 21.792H43.472V26H41.312V14.544ZM45.408 19.744C45.9413 19.744 46.3573 19.5893 46.656 19.28C46.9653 18.9707 47.12 18.5973 47.12 18.16C47.12 17.7227 46.9653 17.3547 46.656 17.056C46.3573 16.7467 45.9413 16.592 45.408 16.592H43.472V19.744H45.408ZM54.1311 26.256C53.2885 26.256 52.5365 26.0693 51.8751 25.696C51.2138 25.312 50.6965 24.7947 50.3231 24.144C49.9605 23.4827 49.7791 22.7413 49.7791 21.92C49.7791 21.1093 49.9605 20.3733 50.3231 19.712C50.6965 19.0507 51.2138 18.5333 51.8751 18.16C52.5365 17.776 53.2885 17.584 54.1311 17.584C54.9631 17.584 55.7098 17.776 56.3711 18.16C57.0325 18.5333 57.5445 19.0507 57.9071 19.712C58.2805 20.3733 58.4671 21.1093 58.4671 21.92C58.4671 22.7413 58.2805 23.4827 57.9071 24.144C57.5445 24.7947 57.0325 25.312 56.3711 25.696C55.7098 26.0693 54.9631 26.256 54.1311 26.256ZM54.1311 24.32C54.5365 24.32 54.9098 24.224 55.2511 24.032C55.5925 23.84 55.8645 23.5627 56.0671 23.2C56.2698 22.8373 56.3711 22.4107 56.3711 21.92C56.3711 21.44 56.2698 21.0187 56.0671 20.656C55.8645 20.2933 55.5925 20.016 55.2511 19.824C54.9098 19.632 54.5365 19.536 54.1311 19.536C53.7258 19.536 53.3525 19.632 53.0111 19.824C52.6698 20.016 52.3925 20.2933 52.1791 20.656C51.9765 21.0187 51.8751 21.44 51.8751 21.92C51.8751 22.4 51.9765 22.8267 52.1791 23.2C52.3925 23.5627 52.6698 23.84 53.0111 24.032C53.3525 24.224 53.7258 24.32 54.1311 24.32ZM61.0986 16.944C60.7253 16.944 60.4053 16.8107 60.1386 16.544C59.872 16.2773 59.7386 15.9573 59.7386 15.584C59.7386 15.2107 59.872 14.896 60.1386 14.64C60.4053 14.3733 60.7253 14.24 61.0986 14.24C61.472 14.24 61.7866 14.3733 62.0426 14.64C62.3093 14.896 62.4426 15.2107 62.4426 15.584C62.4426 15.9573 62.3093 16.2773 62.0426 16.544C61.7866 16.8107 61.472 16.944 61.0986 16.944ZM60.0426 17.84H62.1386V26H60.0426V17.84ZM67.4405 26.256C66.4485 26.256 65.6432 26.0533 65.0245 25.648C64.4165 25.2427 63.9898 24.7147 63.7445 24.064L65.6165 23.248C65.7872 23.632 66.0272 23.9253 66.3365 24.128C66.6565 24.32 67.0245 24.416 67.4405 24.416C67.8245 24.416 68.1445 24.3573 68.4005 24.24C68.6565 24.112 68.7845 23.9093 68.7845 23.632C68.7845 23.3653 68.6672 23.168 68.4325 23.04C68.1978 22.9013 67.8458 22.7787 67.3765 22.672L66.4165 22.464C65.7552 22.304 65.2058 22.016 64.7685 21.6C64.3312 21.1733 64.1125 20.6453 64.1125 20.016C64.1125 19.5467 64.2512 19.1253 64.5285 18.752C64.8165 18.3787 65.2005 18.0907 65.6805 17.888C66.1712 17.6853 66.7098 17.584 67.2965 17.584C68.9818 17.584 70.1072 18.176 70.6725 19.36L68.8805 20.144C68.5605 19.568 68.0485 19.28 67.3445 19.28C66.9818 19.28 66.6938 19.3493 66.4805 19.488C66.2672 19.616 66.1605 19.7813 66.1605 19.984C66.1605 20.368 66.5232 20.656 67.2485 20.848L68.4485 21.136C69.2592 21.3387 69.8672 21.648 70.2725 22.064C70.6885 22.48 70.8965 22.992 70.8965 23.6C70.8965 24.1227 70.7418 24.5867 70.4325 24.992C70.1338 25.3867 69.7178 25.696 69.1845 25.92C68.6618 26.144 68.0805 26.256 67.4405 26.256ZM76.3968 26.256C75.5541 26.256 74.8021 26.0693 74.1408 25.696C73.4794 25.312 72.9621 24.7947 72.5888 24.144C72.2261 23.4827 72.0448 22.7413 72.0448 21.92C72.0448 21.1093 72.2261 20.3733 72.5888 19.712C72.9621 19.0507 73.4794 18.5333 74.1408 18.16C74.8021 17.776 75.5541 17.584 76.3968 17.584C77.2288 17.584 77.9754 17.776 78.6368 18.16C79.2981 18.5333 79.8101 19.0507 80.1728 19.712C80.5461 20.3733 80.7328 21.1093 80.7328 21.92C80.7328 22.7413 80.5461 23.4827 80.1728 24.144C79.8101 24.7947 79.2981 25.312 78.6368 25.696C77.9754 26.0693 77.2288 26.256 76.3968 26.256ZM76.3968 24.32C76.8021 24.32 77.1754 24.224 77.5168 24.032C77.8581 23.84 78.1301 23.5627 78.3328 23.2C78.5354 22.8373 78.6368 22.4107 78.6368 21.92C78.6368 21.44 78.5354 21.0187 78.3328 20.656C78.1301 20.2933 77.8581 20.016 77.5168 19.824C77.1754 19.632 76.8021 19.536 76.3968 19.536C75.9914 19.536 75.6181 19.632 75.2768 19.824C74.9354 20.016 74.6581 20.2933 74.4448 20.656C74.2421 21.0187 74.1408 21.44 74.1408 21.92C74.1408 22.4 74.2421 22.8267 74.4448 23.2C74.6581 23.5627 74.9354 23.84 75.2768 24.032C75.6181 24.224 75.9914 24.32 76.3968 24.32ZM82.1803 17.84H84.1483V18.864H84.2763C84.5216 18.4693 84.8683 18.16 85.3163 17.936C85.7643 17.7013 86.2496 17.584 86.7723 17.584C87.7536 17.584 88.5003 17.8827 89.0123 18.48C89.5243 19.0773 89.7803 19.8933 89.7803 20.928V26H87.6843V21.184C87.6843 20.6613 87.5509 20.256 87.2843 19.968C87.0176 19.68 86.6443 19.536 86.1643 19.536C85.5989 19.536 85.1403 19.7547 84.7883 20.192C84.4469 20.6293 84.2763 21.1787 84.2763 21.84V26H82.1803V17.84Z" fill="white"/>
<path d="M20 32C26.6274 32 32 26.6274 32 20C32 13.3726 26.6274 8 20 8C13.3726 8 8 13.3726 8 20C8 26.6274 13.3726 32 20 32Z" fill="#AB6AC8"/>
<path d="M27.5 19.0625C27.5 15.6106 24.1419 12.8131 20 12.8131C15.8581 12.8131 12.5 15.6106 12.5 19.0625C12.5 20.9375 13.4994 22.625 15.0781 23.7762C14.8604 24.1698 14.7474 24.6127 14.75 25.0625C14.75 26.3056 15.5619 27.3125 16.5631 27.3125C17.3431 27.3125 18.0069 26.6994 18.2638 25.8425C18.4869 26.6919 19.1788 27.3125 20 27.3125C20.8212 27.3125 21.5131 26.6919 21.7362 25.8425C21.9931 26.6994 22.6569 27.3125 23.4369 27.3125C24.4381 27.3125 25.25 26.3056 25.25 25.0625C25.2526 24.6127 25.1396 24.1698 24.9219 23.7762C26.5006 22.625 27.5 20.9375 27.5 19.0625ZM20 22.8744C17.255 22.8744 14.9375 21.125 14.9375 19.0625C14.9375 17 17.255 15.2506 20 15.2506C22.745 15.2506 25.0625 17 25.0625 19.0625C25.0625 21.125 22.745 22.8744 20 22.8744Z" fill="white"/>
</svg>
