<svg width="60" height="60" viewBox="0 0 60 60" fill="none" xmlns="http://www.w3.org/2000/svg">
<path d="M30 60C46.5685 60 60 46.5685 60 30C60 13.4315 46.5685 0 30 0C13.4315 0 0 13.4315 0 30C0 46.5685 13.4315 60 30 60Z" fill="#F97176"/>
<path d="M39.628 44.775C31.4015 49.1766 20.1843 47.1469 15.314 38.775C10.8609 31.1297 13.2843 20.3859 20.7374 15.5438C28.1905 10.7016 39.0655 12.8859 44.2218 19.9875C50.2359 28.2656 45.7312 40.6781 35.1234 41.6672C30.6609 42.0797 25.7484 40.0125 23.5921 35.9016C21.6702 32.1984 22.5937 26.8172 26.1046 24.3703C29.6155 21.9234 35.2968 22.3734 37.078 26.7188C37.8327 28.5656 37.5468 31.0828 36.1124 32.5453C34.903 33.75 32.0905 34.2188 30.7827 32.8125C30.314 32.2969 29.803 31.3359 30.7124 30.9703C31.0687 30.8297 31.978 31.4391 32.4046 31.4391C34.3687 31.4109 34.9921 28.9313 33.9843 27.4734C32.7609 25.7109 30.0562 25.8422 28.5187 27.0375C26.6437 28.5 26.4093 30.9234 27.2202 33.0375C28.7952 37.1203 33.9187 38.0438 37.4109 35.7094C40.8046 33.4359 41.3202 27.975 39.5999 24.5203C37.2562 19.7813 30.778 18.3891 26.1046 20.0813C21.4312 21.7734 18.7171 26.3063 18.6046 31.1344C18.5664 33.2927 19.0441 35.4288 19.998 37.3652C20.9519 39.3016 22.3545 40.9822 24.089 42.2672C28.6546 45.6047 34.3124 44.775 39.628 44.775Z" fill="#FEF5F5"/>
</svg>
