<svg width="380" height="360" viewBox="0 0 380 360" fill="none" xmlns="http://www.w3.org/2000/svg">
<rect width="380" height="360" fill="#C13E43"/>
<mask id="mask0_58_956" style="mask-type:alpha" maskUnits="userSpaceOnUse" x="0" y="0" width="380" height="360">
<rect width="380" height="360" fill="#D9D9D9"/>
</mask>
<g mask="url(#mask0_58_956)">
<path d="M190 460C245.228 460 290 415.228 290 360C290 304.772 245.228 260 190 260C134.772 260 90 304.772 90 360C90 415.228 134.772 460 190 460Z" fill="#C03E43"/>
<path d="M222.092 409.25C194.67 423.922 157.28 417.156 141.045 389.25C126.201 363.766 134.28 327.953 159.123 311.813C183.967 295.672 220.217 302.953 237.405 326.625C257.451 354.219 242.436 395.594 207.076 398.891C192.201 400.266 175.826 393.375 168.639 379.672C162.233 367.328 165.311 349.391 177.014 341.235C188.717 333.078 207.655 334.578 213.592 349.063C216.108 355.219 215.155 363.61 210.373 368.485C206.342 372.5 196.967 374.063 192.608 369.375C191.045 367.656 189.342 364.453 192.373 363.235C193.561 362.766 196.592 364.797 198.014 364.797C204.561 364.703 206.639 356.438 203.28 351.578C199.201 345.703 190.186 346.141 185.061 350.125C178.811 355 178.03 363.078 180.733 370.125C185.983 383.735 203.061 386.813 214.701 379.031C226.014 371.453 227.733 353.25 221.998 341.735C214.186 325.938 192.592 321.297 177.014 326.938C161.436 332.578 152.389 347.688 152.014 363.781C151.886 370.976 153.479 378.096 156.659 384.551C159.838 391.006 164.514 396.608 170.295 400.891C185.514 412.016 204.373 409.25 222.092 409.25Z" fill="#FF4A51"/>
<circle cx="190" cy="-20.0001" r="200" transform="rotate(-45 190 -20.0001)" fill="#FF4A51"/>
<circle cx="190.002" cy="-20.0001" r="75" transform="rotate(-45 190.002 -20.0001)" fill="#C03E43"/>
<rect x="39.7397" y="112.582" width="400" height="25" transform="rotate(-45 39.7397 112.582)" fill="#C03E43"/>
<circle cx="189.997" cy="-19.9945" r="50" transform="rotate(-45 189.997 -19.9945)" fill="#FF4A51"/>
</g>
</svg>
