<svg width="100" height="40" viewBox="0 0 100 40" fill="none" xmlns="http://www.w3.org/2000/svg">
<rect width="100" height="40" rx="8" fill="#F97176"/>
<path d="M37.312 13.544H41.344C42.0693 13.544 42.7307 13.6987 43.328 14.008C43.9253 14.3067 44.3947 14.7333 44.736 15.288C45.0773 15.832 45.248 16.456 45.248 17.16C45.248 17.864 45.0773 18.4933 44.736 19.048C44.3947 19.6027 43.9253 20.0347 43.328 20.344C42.7307 20.6427 42.0693 20.792 41.344 20.792H39.472V25H37.312V13.544ZM41.408 18.744C41.9413 18.744 42.3573 18.5893 42.656 18.28C42.9653 17.9707 43.12 17.5973 43.12 17.16C43.12 16.7227 42.9653 16.3547 42.656 16.056C42.3573 15.7467 41.9413 15.592 41.408 15.592H39.472V18.744H41.408ZM49.6593 25.256C48.6673 25.256 47.8619 25.0533 47.2433 24.648C46.6353 24.2427 46.2086 23.7147 45.9633 23.064L47.8353 22.248C48.0059 22.632 48.2459 22.9253 48.5553 23.128C48.8753 23.32 49.2433 23.416 49.6593 23.416C50.0433 23.416 50.3633 23.3573 50.6193 23.24C50.8753 23.112 51.0033 22.9093 51.0033 22.632C51.0033 22.3653 50.8859 22.168 50.6513 22.04C50.4166 21.9013 50.0646 21.7787 49.5953 21.672L48.6353 21.464C47.9739 21.304 47.4246 21.016 46.9873 20.6C46.5499 20.1733 46.3313 19.6453 46.3313 19.016C46.3313 18.5467 46.4699 18.1253 46.7473 17.752C47.0353 17.3787 47.4193 17.0907 47.8993 16.888C48.3899 16.6853 48.9286 16.584 49.5153 16.584C51.2006 16.584 52.3259 17.176 52.8913 18.36L51.0993 19.144C50.7793 18.568 50.2673 18.28 49.5633 18.28C49.2006 18.28 48.9126 18.3493 48.6993 18.488C48.4859 18.616 48.3793 18.7813 48.3793 18.984C48.3793 19.368 48.7419 19.656 49.4673 19.848L50.6673 20.136C51.4779 20.3387 52.0859 20.648 52.4913 21.064C52.9073 21.48 53.1153 21.992 53.1153 22.6C53.1153 23.1227 52.9606 23.5867 52.6513 23.992C52.3526 24.3867 51.9366 24.696 51.4033 24.92C50.8806 25.144 50.2993 25.256 49.6593 25.256ZM57.1774 24.616L53.7374 16.84H56.1214L58.2334 21.912H58.3614L60.3934 16.84H62.7294L57.6894 28.456H55.4334L57.1774 24.616ZM67.4109 25.256C66.5895 25.256 65.8535 25.0747 65.2029 24.712C64.5522 24.3387 64.0402 23.8213 63.6669 23.16C63.3042 22.4987 63.1229 21.752 63.1229 20.92C63.1229 20.088 63.3042 19.3467 63.6669 18.696C64.0402 18.0347 64.5522 17.5173 65.2029 17.144C65.8535 16.7707 66.5895 16.584 67.4109 16.584C68.3175 16.584 69.0962 16.7813 69.7469 17.176C70.3975 17.56 70.8669 18.1093 71.1549 18.824L69.2349 19.624C68.8935 18.8987 68.2855 18.536 67.4109 18.536C66.7709 18.536 66.2429 18.7547 65.8269 19.192C65.4215 19.6293 65.2189 20.2053 65.2189 20.92C65.2189 21.6453 65.4215 22.2267 65.8269 22.664C66.2429 23.1013 66.7709 23.32 67.4109 23.32C68.2962 23.32 68.9362 22.936 69.3309 22.168L71.2349 23C70.8829 23.7147 70.3815 24.2693 69.7309 24.664C69.0802 25.0587 68.3069 25.256 67.4109 25.256ZM72.7428 13.544H74.8388V16.44L74.7108 17.864H74.8388C75.0734 17.48 75.4148 17.1707 75.8628 16.936C76.3108 16.7013 76.7961 16.584 77.3188 16.584C78.3108 16.584 79.0681 16.8827 79.5908 17.48C80.1241 18.0667 80.3908 18.8827 80.3908 19.928V25H78.2948V20.184C78.2948 19.6613 78.1508 19.256 77.8628 18.968C77.5854 18.68 77.2121 18.536 76.7428 18.536C76.1881 18.536 75.7294 18.76 75.3668 19.208C75.0148 19.656 74.8388 20.2053 74.8388 20.856V25H72.7428V13.544ZM83.5518 15.944C83.1784 15.944 82.8584 15.8107 82.5918 15.544C82.3251 15.2773 82.1918 14.9573 82.1918 14.584C82.1918 14.2107 82.3251 13.896 82.5918 13.64C82.8584 13.3733 83.1784 13.24 83.5518 13.24C83.9251 13.24 84.2398 13.3733 84.4958 13.64C84.7624 13.896 84.8958 14.2107 84.8958 14.584C84.8958 14.9573 84.7624 15.2773 84.4958 15.544C84.2398 15.8107 83.9251 15.944 83.5518 15.944ZM82.4958 16.84H84.5918V25H82.4958V16.84ZM90.5515 25.256C89.7302 25.256 88.9942 25.0747 88.3435 24.712C87.6928 24.3387 87.1808 23.8213 86.8075 23.16C86.4448 22.4987 86.2635 21.752 86.2635 20.92C86.2635 20.088 86.4448 19.3467 86.8075 18.696C87.1808 18.0347 87.6928 17.5173 88.3435 17.144C88.9942 16.7707 89.7302 16.584 90.5515 16.584C91.4582 16.584 92.2368 16.7813 92.8875 17.176C93.5382 17.56 94.0075 18.1093 94.2955 18.824L92.3755 19.624C92.0342 18.8987 91.4262 18.536 90.5515 18.536C89.9115 18.536 89.3835 18.7547 88.9675 19.192C88.5622 19.6293 88.3595 20.2053 88.3595 20.92C88.3595 21.6453 88.5622 22.2267 88.9675 22.664C89.3835 23.1013 89.9115 23.32 90.5515 23.32C91.4368 23.32 92.0768 22.936 92.4715 22.168L94.3755 23C94.0235 23.7147 93.5222 24.2693 92.8715 24.664C92.2208 25.0587 91.4475 25.256 90.5515 25.256Z" fill="white"/>
<path d="M20 32C26.6274 32 32 26.6274 32 20C32 13.3726 26.6274 8 20 8C13.3726 8 8 13.3726 8 20C8 26.6274 13.3726 32 20 32Z" fill="#F97176"/>
<path d="M23.8513 25.91C20.5606 27.6706 16.0738 26.8587 14.1256 23.51C12.3444 20.4518 13.3138 16.1543 16.295 14.2175C19.2763 12.2806 23.6263 13.1543 25.6888 15.995C28.0944 19.3062 26.2925 24.2712 22.0494 24.6668C20.2644 24.8318 18.2994 24.005 17.4369 22.3606C16.6681 20.8793 17.0375 18.7268 18.4419 17.7481C19.8463 16.7693 22.1188 16.9493 22.8313 18.6875C23.1331 19.4262 23.0188 20.4331 22.445 21.0181C21.9613 21.5 20.8363 21.6875 20.3131 21.125C20.1256 20.9187 19.9213 20.5343 20.285 20.3881C20.4275 20.3318 20.7913 20.5756 20.9619 20.5756C21.7475 20.5643 21.9969 19.5725 21.5938 18.9893C21.1044 18.2843 20.0225 18.3368 19.4075 18.815C18.6575 19.4 18.5638 20.3693 18.8881 21.215C19.5181 22.8481 21.5675 23.2175 22.9644 22.2837C24.3219 21.3743 24.5281 19.19 23.84 17.8081C22.9025 15.9125 20.3113 15.3556 18.4419 16.0325C16.5725 16.7093 15.4869 18.5225 15.4419 20.4537C15.4266 21.317 15.6177 22.1715 15.9993 22.9461C16.3808 23.7206 16.9418 24.3929 17.6356 24.9068C19.4619 26.2418 21.725 25.91 23.8513 25.91Z" fill="#FEF5F5"/>
</svg>
