<svg width="60" height="60" viewBox="0 0 60 60" fill="none" xmlns="http://www.w3.org/2000/svg">
<path d="M30 60C46.5685 60 60 46.5685 60 30C60 13.4315 46.5685 0 30 0C13.4315 0 0 13.4315 0 30C0 46.5685 13.4315 60 30 60Z" fill="#C7B78B"/>
<path d="M44.5312 15.9375L49.2188 30.4688L43.125 37.9688L38.9062 31.4062L44.5312 15.9375ZM34.6875 47.3438L41.25 39.8438L36.5625 33.2812L22.0312 43.125L34.6875 47.3438ZM24.375 15.9375L11.25 30L11.7188 39.8438L18.75 42.1875L36.0938 30.4688L41.25 15.9375H24.375Z" fill="white"/>
</svg>
