<svg width="100" height="40" viewBox="0 0 100 40" fill="none" xmlns="http://www.w3.org/2000/svg">
<rect width="100" height="40" rx="8" fill="#D97746"/>
<path d="M48.312 13.544H52.488C53.2347 13.544 53.896 13.6987 54.472 14.008C55.0587 14.3173 55.512 14.7493 55.832 15.304C56.152 15.848 56.312 16.4667 56.312 17.16C56.312 17.896 56.0773 18.552 55.608 19.128C55.1493 19.6933 54.568 20.104 53.864 20.36L53.848 20.472L56.92 24.872V25H54.44L51.48 20.696H50.472V25H48.312V13.544ZM52.472 18.712C52.9627 18.712 53.3627 18.5627 53.672 18.264C53.9813 17.9653 54.136 17.5867 54.136 17.128C54.136 16.6907 53.9867 16.3173 53.688 16.008C53.4 15.6987 53.0053 15.544 52.504 15.544H50.472V18.712H52.472ZM61.9124 25.256C61.0697 25.256 60.3177 25.0693 59.6564 24.696C58.995 24.312 58.4777 23.7947 58.1044 23.144C57.7417 22.4827 57.5604 21.7413 57.5604 20.92C57.5604 20.1093 57.7417 19.3733 58.1044 18.712C58.4777 18.0507 58.995 17.5333 59.6564 17.16C60.3177 16.776 61.0697 16.584 61.9124 16.584C62.7444 16.584 63.491 16.776 64.1524 17.16C64.8137 17.5333 65.3257 18.0507 65.6884 18.712C66.0617 19.3733 66.2484 20.1093 66.2484 20.92C66.2484 21.7413 66.0617 22.4827 65.6884 23.144C65.3257 23.7947 64.8137 24.312 64.1524 24.696C63.491 25.0693 62.7444 25.256 61.9124 25.256ZM61.9124 23.32C62.3177 23.32 62.691 23.224 63.0324 23.032C63.3737 22.84 63.6457 22.5627 63.8484 22.2C64.051 21.8373 64.1524 21.4107 64.1524 20.92C64.1524 20.44 64.051 20.0187 63.8484 19.656C63.6457 19.2933 63.3737 19.016 63.0324 18.824C62.691 18.632 62.3177 18.536 61.9124 18.536C61.507 18.536 61.1337 18.632 60.7924 18.824C60.451 19.016 60.1737 19.2933 59.9604 19.656C59.7577 20.0187 59.6564 20.44 59.6564 20.92C59.6564 21.4 59.7577 21.8267 59.9604 22.2C60.1737 22.5627 60.451 22.84 60.7924 23.032C61.1337 23.224 61.507 23.32 61.9124 23.32ZM71.6921 25.256C70.8708 25.256 70.1348 25.0747 69.4841 24.712C68.8335 24.3387 68.3215 23.8213 67.9481 23.16C67.5855 22.4987 67.4041 21.752 67.4041 20.92C67.4041 20.088 67.5855 19.3467 67.9481 18.696C68.3215 18.0347 68.8335 17.5173 69.4841 17.144C70.1348 16.7707 70.8708 16.584 71.6921 16.584C72.5988 16.584 73.3775 16.7813 74.0281 17.176C74.6788 17.56 75.1481 18.1093 75.4361 18.824L73.5161 19.624C73.1748 18.8987 72.5668 18.536 71.6921 18.536C71.0521 18.536 70.5241 18.7547 70.1081 19.192C69.7028 19.6293 69.5001 20.2053 69.5001 20.92C69.5001 21.6453 69.7028 22.2267 70.1081 22.664C70.5241 23.1013 71.0521 23.32 71.6921 23.32C72.5775 23.32 73.2175 22.936 73.6121 22.168L75.5161 23C75.1641 23.7147 74.6628 24.2693 74.0121 24.664C73.3615 25.0587 72.5881 25.256 71.6921 25.256ZM77.024 13.544H79.12V19.784H79.232L82.16 16.84H84.736V16.968L81.648 19.992L84.88 24.872V25H82.4L80.176 21.432L79.12 22.472V25H77.024V13.544Z" fill="white"/>
<path d="M20 32C26.6274 32 32 26.6274 32 20C32 13.3726 26.6274 8 20 8C13.3726 8 8 13.3726 8 20C8 26.6274 13.3726 32 20 32Z" fill="#D97746"/>
<path d="M24.6875 14H19.0625L15.3125 24.5H28.4375L24.6875 14Z" fill="white"/>
<path d="M17 16.0625H14L11 24.5H14L17 16.0625Z" fill="white"/>
</svg>
