<?xml version="1.0" encoding="iso-8859-1"?>
<!-- Uploaded to: SVG Repo, www.svgrepo.com, Generator: SVG Repo Mixer Tools -->
<svg  version="1.1" id="Layer_1" xmlns="http://www.w3.org/2000/svg" xmlns:xlink="http://www.w3.org/1999/xlink" 
	 viewBox="0 0 512 512" xml:space="preserve">
<g>
	<g>
		<path d="M416.681,413.957H8.17c-4.513,0-8.17,3.658-8.17,8.17c0,4.512,3.657,8.17,8.17,8.17h408.511c4.513,0,8.17-3.658,8.17-8.17
			C424.851,417.616,421.194,413.957,416.681,413.957z"/>
	</g>
</g>
<g>
	<g>
		<path d="M503.83,446.638H226.043c-4.513,0-8.17,3.658-8.17,8.17c0,4.512,3.657,8.17,8.17,8.17H503.83
			c4.513,0,8.17-3.658,8.17-8.17C512,450.296,508.343,446.638,503.83,446.638z"/>
	</g>
</g>
<g>
	<g>
		<path d="M193.362,446.638H95.319c-4.513,0-8.17,3.658-8.17,8.17c0,4.512,3.657,8.17,8.17,8.17h98.043
			c4.513,0,8.17-3.658,8.17-8.17C201.532,450.296,197.875,446.638,193.362,446.638z"/>
	</g>
</g>
<g>
	<g>
		<path d="M503.83,479.319h-98.043c-4.513,0-8.17,3.658-8.17,8.17s3.657,8.17,8.17,8.17h98.043c4.513,0,8.17-3.658,8.17-8.17
			S508.343,479.319,503.83,479.319z"/>
	</g>
</g>
<g>
	<g>
		<path d="M324.085,103.489h-136.17c-19.522,0-35.404,15.883-35.404,35.404s15.882,35.404,35.404,35.404h81.702
			c4.513,0,8.17-3.658,8.17-8.17s-3.657-8.17-8.17-8.17h-81.702c-10.511,0-19.064-8.553-19.064-19.064
			c0-10.511,8.553-19.064,19.064-19.064h136.17c10.511,0,19.064,8.553,19.064,19.064c0,10.511-8.553,19.064-19.064,19.064h-21.787
			c-4.513,0-8.17,3.658-8.17,8.17s3.657,8.17,8.17,8.17h21.787c19.522,0,35.404-15.883,35.404-35.404
			S343.608,103.489,324.085,103.489z"/>
	</g>
</g>
<g>
	<g>
		<path d="M215.149,16.34h-81.702c-19.522,0-35.404,15.883-35.404,35.404s15.882,35.404,35.404,35.404h81.702
			c19.522,0,35.404-15.883,35.404-35.404S234.671,16.34,215.149,16.34z M215.149,70.809h-81.702
			c-10.511,0-19.064-8.553-19.064-19.064s8.553-19.064,19.064-19.064h81.702c10.511,0,19.064,8.553,19.064,19.064
			S225.66,70.809,215.149,70.809z"/>
	</g>
</g>
<g>
	<g>
		<path d="M182.468,348.051h-4.008l-24.132-140.363c-4.319-25.121-26.895-45.95-52.044-49.27l-2.74-15.935
			c-3.697-21.501-24.453-38.994-46.271-38.994H8.17c-4.513,0-8.17,3.658-8.17,8.17c0,4.512,3.657,8.17,8.17,8.17h45.104
			c13.982,0,27.797,11.642,30.166,25.422l3.827,22.26c0.675,3.921,4.074,6.786,8.053,6.786c19.887,0,39.536,16.558,42.906,36.158
			l23.656,137.595H8.17c-4.513,0-8.17,3.658-8.17,8.17c0,4.512,3.657,8.17,8.17,8.17h163.37c0.049,0,10.927,0,10.927,0
			c10.652,0,19.738,6.83,23.111,16.34H8.17c-4.513,0-8.17,3.658-8.17,8.17c0,4.512,3.657,8.17,8.17,8.17h206.979
			c4.513,0,8.17-3.658,8.17-8.17C223.319,366.376,204.994,348.051,182.468,348.051z"/>
	</g>
</g>
<g>
	<g>
		<path d="M329.532,364.391h10.878c0.049,0,163.419,0,163.419,0c4.513,0,8.17-3.658,8.17-8.17c0-4.512-3.657-8.17-8.17-8.17H350.12
			l23.655-137.595c3.369-19.6,23.018-36.158,42.906-36.158c3.978,0,7.377-2.865,8.053-6.786l3.827-22.259
			c2.369-13.78,16.184-25.422,30.166-25.422h45.104c4.513,0,8.17-3.658,8.17-8.17c0-4.512-3.657-8.17-8.17-8.17h-45.104
			c-21.817,0-42.573,17.493-46.271,38.994l-2.74,15.934c-25.149,3.319-47.726,24.149-52.044,49.27L333.54,348.051h-4.008
			c-22.526,0-40.851,18.325-40.851,40.851c0,4.512,3.657,8.17,8.17,8.17H503.83c4.513,0,8.17-3.658,8.17-8.17
			c0-4.512-3.657-8.17-8.17-8.17H306.421C309.794,371.222,318.88,364.391,329.532,364.391z"/>
	</g>
</g>
<g>
	<g>
		<path d="M313.27,315.915h-50.384l-7.37-42.866c-4.714-27.42-31.186-49.729-59.01-49.729h-13.694c-4.513,0-8.17,3.658-8.17,8.17
			s3.657,8.17,8.17,8.17h13.694c19.887,0,39.536,16.558,42.906,36.158l6.892,40.097H198.73c-4.512,0-8.169,3.658-8.169,8.17
			c0,4.512,3.657,8.17,8.17,8.17h57.212c0.097,0,57.327,0,57.327,0c4.513,0,8.17-3.658,8.17-8.17
			C321.44,319.573,317.783,315.915,313.27,315.915z"/>
	</g>
</g>
</svg>