<svg width="380" height="360" viewBox="0 0 380 360" fill="none" xmlns="http://www.w3.org/2000/svg">
<rect width="380" height="360" fill="#02698F"/>
<mask id="mask0_58_908" style="mask-type:alpha" maskUnits="userSpaceOnUse" x="0" y="0" width="380" height="360">
<rect width="380" height="360" fill="#D9D9D9"/>
</mask>
<g mask="url(#mask0_58_908)">
<path d="M190 460C245.228 460 290 415.228 290 360C290 304.772 245.228 260 190 260C134.772 260 90 304.772 90 360C90 415.228 134.772 460 190 460Z" fill="#02698F"/>
<path d="M221.25 360C221.25 366.181 219.417 372.223 215.983 377.362C212.55 382.501 207.669 386.506 201.959 388.871C196.249 391.237 189.965 391.855 183.903 390.65C177.842 389.444 172.273 386.468 167.903 382.097C163.533 377.727 160.556 372.159 159.35 366.097C158.145 360.035 158.764 353.751 161.129 348.041C163.494 342.331 167.499 337.45 172.638 334.017C177.777 330.583 183.819 328.75 190 328.75C198.288 328.75 206.237 332.043 212.097 337.903C217.958 343.764 221.25 351.712 221.25 360ZM223.984 301.141H156.016L122.031 360L156.016 418.859H223.984L257.969 360L223.984 301.141Z" fill="#48A5C8"/>
<circle cx="190" cy="-20.0001" r="200" transform="rotate(-45 190 -20.0001)" fill="#48A5C8"/>
<circle cx="190.002" cy="-20.0001" r="75" transform="rotate(-45 190.002 -20.0001)" fill="#02698F"/>
<rect x="39.7397" y="112.582" width="400" height="25" transform="rotate(-45 39.7397 112.582)" fill="#02698F"/>
<circle cx="189.997" cy="-19.9945" r="50" transform="rotate(-45 189.997 -19.9945)" fill="#48A5C8"/>
</g>
</svg>
