<svg width="100" height="40" viewBox="0 0 100 40" fill="none" xmlns="http://www.w3.org/2000/svg">
<rect width="100" height="40" rx="8" fill="#5A8EA1"/>
<path d="M50.768 25.256C49.7653 25.256 48.88 24.9733 48.112 24.408C47.344 23.8427 46.8053 23.0427 46.496 22.008L48.528 21.208C48.688 21.816 48.96 22.3013 49.344 22.664C49.728 23.0267 50.208 23.208 50.784 23.208C51.264 23.208 51.6747 23.0907 52.016 22.856C52.3573 22.6107 52.528 22.2747 52.528 21.848C52.528 21.4213 52.3627 21.0747 52.032 20.808C51.712 20.5307 51.136 20.2373 50.304 19.928L49.6 19.672C48.864 19.416 48.2347 19.0267 47.712 18.504C47.1893 17.9707 46.928 17.304 46.928 16.504C46.928 15.9067 47.0827 15.3627 47.392 14.872C47.7013 14.3813 48.1387 13.9973 48.704 13.72C49.2693 13.432 49.9093 13.288 50.624 13.288C51.6587 13.288 52.4747 13.5333 53.072 14.024C53.6693 14.504 54.08 15.0693 54.304 15.72L52.4 16.52C52.2827 16.168 52.0747 15.8747 51.776 15.64C51.488 15.3947 51.1147 15.272 50.656 15.272C50.1867 15.272 49.7973 15.384 49.488 15.608C49.1893 15.8213 49.04 16.104 49.04 16.456C49.04 16.7973 49.184 17.0907 49.472 17.336C49.76 17.5707 50.2347 17.8 50.896 18.024L51.616 18.264C52.608 18.6053 53.3653 19.0587 53.888 19.624C54.4213 20.1787 54.688 20.9093 54.688 21.816C54.688 22.5627 54.496 23.1973 54.112 23.72C53.728 24.232 53.232 24.616 52.624 24.872C52.0267 25.128 51.408 25.256 50.768 25.256ZM59.5916 25.128C59.1863 25.128 58.813 25.0693 58.4716 24.952C58.1303 24.824 57.853 24.6533 57.6396 24.44C57.1383 23.96 56.8876 23.2773 56.8876 22.392V18.632H55.4636V16.84H56.8876V14.536H58.9836V16.84H60.9836V18.632H58.9836V22.008C58.9836 22.424 59.0743 22.7227 59.2556 22.904C59.405 23.0747 59.661 23.16 60.0236 23.16C60.2263 23.16 60.3916 23.1333 60.5196 23.08C60.6583 23.0267 60.8343 22.936 61.0476 22.808V24.856C60.589 25.0373 60.1036 25.128 59.5916 25.128ZM66.2699 25.256C65.4592 25.256 64.7285 25.0693 64.0779 24.696C63.4272 24.3227 62.9152 23.8107 62.5419 23.16C62.1792 22.4987 61.9979 21.7573 61.9979 20.936C61.9979 20.1573 62.1792 19.4373 62.5419 18.776C62.9045 18.104 63.4059 17.5707 64.0459 17.176C64.6859 16.7813 65.4005 16.584 66.1899 16.584C67.0325 16.584 67.7579 16.7653 68.3659 17.128C68.9739 17.4907 69.4325 17.9867 69.7419 18.616C70.0619 19.2453 70.2219 19.944 70.2219 20.712C70.2219 20.9573 70.2059 21.192 70.1739 21.416H64.0459C64.1525 22.0667 64.4085 22.5627 64.8139 22.904C65.2299 23.2347 65.7259 23.4 66.3019 23.4C66.7819 23.4 67.1925 23.2987 67.5339 23.096C67.8859 22.8827 68.1632 22.6 68.3659 22.248L70.0619 23.08C69.2299 24.5307 67.9659 25.256 66.2699 25.256ZM68.2059 19.928C68.1845 19.672 68.0885 19.4213 67.9179 19.176C67.7579 18.92 67.5285 18.712 67.2299 18.552C66.9419 18.3813 66.6005 18.296 66.2059 18.296C65.7045 18.296 65.2725 18.4453 64.9099 18.744C64.5579 19.032 64.3019 19.4267 64.1419 19.928H68.2059ZM75.7386 25.256C74.928 25.256 74.1973 25.0693 73.5466 24.696C72.896 24.3227 72.384 23.8107 72.0106 23.16C71.648 22.4987 71.4666 21.7573 71.4666 20.936C71.4666 20.1573 71.648 19.4373 72.0106 18.776C72.3733 18.104 72.8746 17.5707 73.5146 17.176C74.1546 16.7813 74.8693 16.584 75.6586 16.584C76.5013 16.584 77.2266 16.7653 77.8346 17.128C78.4426 17.4907 78.9013 17.9867 79.2106 18.616C79.5306 19.2453 79.6906 19.944 79.6906 20.712C79.6906 20.9573 79.6746 21.192 79.6426 21.416H73.5146C73.6213 22.0667 73.8773 22.5627 74.2826 22.904C74.6986 23.2347 75.1946 23.4 75.7706 23.4C76.2506 23.4 76.6613 23.2987 77.0026 23.096C77.3546 22.8827 77.632 22.6 77.8346 22.248L79.5306 23.08C78.6986 24.5307 77.4346 25.256 75.7386 25.256ZM77.6746 19.928C77.6533 19.672 77.5573 19.4213 77.3866 19.176C77.2266 18.92 76.9973 18.712 76.6986 18.552C76.4106 18.3813 76.0693 18.296 75.6746 18.296C75.1733 18.296 74.7413 18.4453 74.3786 18.744C74.0266 19.032 73.7706 19.4267 73.6106 19.928H77.6746ZM81.3053 13.544H83.4013V25H81.3053V13.544Z" fill="white"/>
<path d="M20 32C26.6274 32 32 26.6274 32 20C32 13.3726 26.6274 8 20 8C13.3726 8 8 13.3726 8 20C8 26.6274 13.3726 32 20 32Z" fill="#5A8EA1"/>
<path d="M23.75 20C23.75 20.7417 23.5301 21.4667 23.118 22.0834C22.706 22.7001 22.1203 23.1807 21.4351 23.4646C20.7498 23.7484 19.9958 23.8227 19.2684 23.678C18.541 23.5333 17.8728 23.1761 17.3483 22.6517C16.8239 22.1272 16.4667 21.459 16.3221 20.7316C16.1774 20.0042 16.2516 19.2502 16.5355 18.565C16.8193 17.8797 17.2999 17.2941 17.9166 16.882C18.5333 16.4699 19.2583 16.25 20 16.25C20.9946 16.25 21.9484 16.6451 22.6517 17.3484C23.3549 18.0516 23.75 19.0055 23.75 20ZM24.0781 12.9369H15.9219L11.8438 20L15.9219 27.0631H24.0781L28.1562 20L24.0781 12.9369Z" fill="white"/>
</svg>
