<svg width="60" height="60" viewBox="0 0 60 60" fill="none" xmlns="http://www.w3.org/2000/svg">
<path d="M30 60C46.5685 60 60 46.5685 60 30C60 13.4315 46.5685 0 30 0C13.4315 0 0 13.4315 0 30C0 46.5685 13.4315 60 30 60Z" fill="#5A8EA1"/>
<path d="M39.375 30C39.375 31.8542 38.8252 33.6668 37.795 35.2085C36.7649 36.7502 35.3007 37.9518 33.5877 38.6614C31.8746 39.3709 29.9896 39.5566 28.171 39.1949C26.3525 38.8331 24.682 37.9402 23.3709 36.6291C22.0598 35.318 21.1669 33.6476 20.8051 31.829C20.4434 30.0104 20.6291 28.1254 21.3386 26.4123C22.0482 24.6993 23.2498 23.2351 24.7915 22.205C26.3332 21.1748 28.1458 20.625 30 20.625C32.4864 20.625 34.871 21.6127 36.6291 23.3709C38.3873 25.129 39.375 27.5136 39.375 30ZM40.1953 12.3422H19.8047L9.60938 30L19.8047 47.6578H40.1953L50.3906 30L40.1953 12.3422Z" fill="white"/>
</svg>
