<?xml version="1.0" encoding="iso-8859-1"?>
<!-- Uploaded to: SVG Repo, www.svgrepo.com, Generator: SVG Repo Mixer Tools -->
<svg  version="1.1" id="Layer_1" xmlns="http://www.w3.org/2000/svg" xmlns:xlink="http://www.w3.org/1999/xlink" 
	 viewBox="0 0 512 512" xml:space="preserve">
<g>
	<g>
		<path d="M330.349,0H172.391c-16.711,0-30.755,11.638-34.453,27.234H36.221c-19.522,0-35.404,15.882-35.404,35.404
			s15.882,35.404,35.404,35.404h131.813c4.513,0,8.17-3.657,8.17-8.17c0-4.513-3.657-8.17-8.17-8.17H36.221
			c-10.511,0-19.064-8.553-19.064-19.064s8.553-19.064,19.064-19.064h108.936c4.513,0,8.17-3.657,8.17-8.17
			c0-10.511,8.553-19.064,19.064-19.064h157.957c4.513,0,8.17-3.657,8.17-8.17S334.862,0,330.349,0z"/>
	</g>
</g>
<g>
	<g>
		<path d="M455.081,370.383c-4.513,0-8.17,3.657-8.17,8.17v10.894c0,4.513,3.657,8.17,8.17,8.17c4.513,0,8.17-3.657,8.17-8.17
			v-10.894C463.251,374.04,459.594,370.383,455.081,370.383z"/>
	</g>
</g>
<g>
	<g>
		<path d="M455.081,326.809c-4.513,0-8.17,3.657-8.17,8.17v10.894c0,4.513,3.657,8.17,8.17,8.17c4.513,0,8.17-3.657,8.17-8.17
			v-10.894C463.251,330.466,459.594,326.809,455.081,326.809z"/>
	</g>
</g>
<g>
	<g>
		<path d="M455.081,283.234c-4.513,0-8.17,3.657-8.17,8.17v10.894c0,4.513,3.657,8.17,8.17,8.17c4.513,0,8.17-3.657,8.17-8.17
			v-10.894C463.251,286.891,459.594,283.234,455.081,283.234z"/>
	</g>
</g>
<g>
	<g>
		<path d="M359.217,370.383c-4.513,0-8.17,3.657-8.17,8.17v10.894c0,4.513,3.657,8.17,8.17,8.17s8.17-3.657,8.17-8.17v-10.894
			C367.387,374.04,363.73,370.383,359.217,370.383z"/>
	</g>
</g>
<g>
	<g>
		<path d="M359.217,326.809c-4.513,0-8.17,3.657-8.17,8.17v10.894c0,4.513,3.657,8.17,8.17,8.17s8.17-3.657,8.17-8.17v-10.894
			C367.387,330.466,363.73,326.809,359.217,326.809z"/>
	</g>
</g>
<g>
	<g>
		<path d="M359.217,283.234c-4.513,0-8.17,3.657-8.17,8.17v10.894c0,4.513,3.657,8.17,8.17,8.17s8.17-3.657,8.17-8.17v-10.894
			C367.387,286.891,363.73,283.234,359.217,283.234z"/>
	</g>
</g>
<g>
	<g>
		<path d="M359.217,239.66c-4.513,0-8.17,3.657-8.17,8.17v10.894c0,4.513,3.657,8.17,8.17,8.17s8.17-3.657,8.17-8.17V247.83
			C367.387,243.317,363.73,239.66,359.217,239.66z"/>
	</g>
</g>
<g>
	<g>
		<path d="M56.919,419.404c-4.513,0-8.17,3.657-8.17,8.17v10.894c0,4.513,3.657,8.17,8.17,8.17c4.513,0,8.17-3.657,8.17-8.17
			v-10.894C65.089,423.061,61.432,419.404,56.919,419.404z"/>
	</g>
</g>
<g>
	<g>
		<path d="M56.919,326.809c-4.513,0-8.17,3.657-8.17,8.17v10.894c0,4.513,3.657,8.17,8.17,8.17c4.513,0,8.17-3.657,8.17-8.17
			v-10.894C65.089,330.466,61.432,326.809,56.919,326.809z"/>
	</g>
</g>
<g>
	<g>
		<path d="M56.919,283.234c-4.513,0-8.17,3.657-8.17,8.17v10.894c0,4.513,3.657,8.17,8.17,8.17c4.513,0,8.17-3.657,8.17-8.17
			v-10.894C65.089,286.891,61.432,283.234,56.919,283.234z"/>
	</g>
</g>
<g>
	<g>
		<path d="M56.919,239.66c-4.513,0-8.17,3.657-8.17,8.17v10.894c0,4.513,3.657,8.17,8.17,8.17c4.513,0,8.17-3.657,8.17-8.17V247.83
			C65.089,243.317,61.432,239.66,56.919,239.66z"/>
	</g>
</g>
<g>
	<g>
		<path d="M152.783,326.809c-4.513,0-8.17,3.657-8.17,8.17v10.894c0,4.513,3.657,8.17,8.17,8.17c4.513,0,8.17-3.657,8.17-8.17
			v-10.894C160.953,330.466,157.296,326.809,152.783,326.809z"/>
	</g>
</g>
<g>
	<g>
		<path d="M152.783,283.234c-4.513,0-8.17,3.657-8.17,8.17v10.894c0,4.513,3.657,8.17,8.17,8.17c4.513,0,8.17-3.657,8.17-8.17
			v-10.894C160.953,286.891,157.296,283.234,152.783,283.234z"/>
	</g>
</g>
<g>
	<g>
		<path d="M152.783,239.66c-4.513,0-8.17,3.657-8.17,8.17v10.894c0,4.513,3.657,8.17,8.17,8.17c4.513,0,8.17-3.657,8.17-8.17V247.83
			C160.953,243.317,157.296,239.66,152.783,239.66z"/>
	</g>
</g>
<g>
	<g>
		<path d="M152.783,196.085c-4.513,0-8.17,3.657-8.17,8.17v10.894c0,4.513,3.657,8.17,8.17,8.17c4.513,0,8.17-3.657,8.17-8.17
			v-10.894C160.953,199.742,157.296,196.085,152.783,196.085z"/>
	</g>
</g>
<g>
	<g>
		<path d="M152.783,152.511c-4.513,0-8.17,3.657-8.17,8.17v10.894c0,4.513,3.657,8.17,8.17,8.17c4.513,0,8.17-3.657,8.17-8.17
			v-10.894C160.953,156.168,157.296,152.511,152.783,152.511z"/>
	</g>
</g>
<g>
	<g>
		<path d="M475.779,87.149h-32.681c-4.513,0-8.17,3.657-8.17,8.17s3.657,8.17,8.17,8.17h32.681c10.511,0,19.064,8.553,19.064,19.064
			c0,10.511-8.553,19.064-19.064,19.064h-81.702c-10.511,0-19.064-8.553-19.064-19.064c0-10.511,8.553-19.064,19.064-19.064h16.34
			c4.513,0,8.17-3.657,8.17-8.17s-3.657-8.17-8.17-8.17h-16.34c-19.522,0-35.404,15.882-35.404,35.404
			c0,19.522,15.882,35.404,35.404,35.404h81.702c19.522,0,35.404-15.882,35.404-35.404S495.301,87.149,475.779,87.149z"/>
	</g>
</g>
<g>
	<g>
		<path d="M256.817,359.489c-4.513,0-8.17,3.657-8.17,8.17v10.894c0,4.513,3.657,8.17,8.17,8.17s8.17-3.657,8.17-8.17V367.66
			C264.987,363.146,261.33,359.489,256.817,359.489z"/>
	</g>
</g>
<g>
	<g>
		<path d="M256.817,315.915c-4.513,0-8.17,3.657-8.17,8.17v10.894c0,4.513,3.657,8.17,8.17,8.17s8.17-3.657,8.17-8.17v-10.894
			C264.987,319.572,261.33,315.915,256.817,315.915z"/>
	</g>
</g>
<g>
	<g>
		<path d="M256.817,272.34c-4.513,0-8.17,3.657-8.17,8.17v10.894c0,4.513,3.657,8.17,8.17,8.17s8.17-3.657,8.17-8.17v-10.894
			C264.987,275.997,261.33,272.34,256.817,272.34z"/>
	</g>
</g>
<g>
	<g>
		<path d="M256.817,228.766c-4.513,0-8.17,3.657-8.17,8.17v10.894c0,4.513,3.657,8.17,8.17,8.17s8.17-3.657,8.17-8.17v-10.894
			C264.987,232.423,261.33,228.766,256.817,228.766z"/>
	</g>
</g>
<g>
	<g>
		<path d="M256.817,185.192c-4.513,0-8.17,3.657-8.17,8.17v10.894c0,4.513,3.657,8.17,8.17,8.17s8.17-3.657,8.17-8.17v-10.894
			C264.987,188.848,261.33,185.192,256.817,185.192z"/>
	</g>
</g>
<g>
	<g>
		<path d="M280.238,119.83h-46.843c-4.513,0-8.17,3.657-8.17,8.17c0,4.513,3.657,8.17,8.17,8.17h46.843
			c4.513,0,8.17-3.657,8.17-8.17C288.409,123.487,284.752,119.83,280.238,119.83z"/>
	</g>
</g>
<g>
	<g>
		<path d="M503.013,239.66h-39.762v-24.511c0-4.513-3.657-8.17-8.17-8.17c-4.513,0-8.17,3.657-8.17,8.17v24.511h-31.591v-24.511
			c0-3.496-2.224-6.605-5.534-7.733l-88.696-30.237V89.872c0-4.513-3.657-8.17-8.17-8.17h-16.071
			c-0.787-3.856-2.125-7.513-3.917-10.894h102.78c19.522,0,35.404-15.882,35.404-35.404C431.115,15.882,415.233,0,395.711,0H363.03
			c-4.513,0-8.17,3.657-8.17,8.17s3.657,8.17,8.17,8.17h32.681c10.511,0,19.064,8.553,19.064,19.064
			c0,10.511-8.553,19.064-19.064,19.064H277.179c-5.998-3.463-12.953-5.447-20.362-5.447c-19.727,0-36.234,14.057-40.031,32.681
			h-16.071c-4.513,0-8.17,3.657-8.17,8.17v29.957h-87.694c-4.513,0-8.17,3.657-8.17,8.17v78.979H65.089v-24.511
			c0-4.513-3.657-8.17-8.17-8.17c-4.513,0-8.17,3.657-8.17,8.17v24.511H8.987c-4.513,0-8.17,3.657-8.17,8.17V503.83
			c0,4.513,3.657,8.17,8.17,8.17h494.026c4.513,0,8.17-3.657,8.17-8.17v-256C511.183,243.317,507.526,239.66,503.013,239.66z
			 M96.681,495.66H65.089v-24.511c0-4.513-3.657-8.17-8.17-8.17c-4.513,0-8.17,3.657-8.17,8.17v24.511H17.157v-92.596h79.523V495.66
			z M192.545,403.064h-2.723c-4.513,0-8.17,3.657-8.17,8.17c0,4.513,3.657,8.17,8.17,8.17h2.723v76.255h-79.523V334.979
			c0-4.513-3.657-8.17-8.17-8.17s-8.17,3.657-8.17,8.17v51.745H17.157V223.319h79.523v78.979c0,4.513,3.657,8.17,8.17,8.17
			s8.17-3.657,8.17-8.17V136.17h79.523V403.064z M304.749,495.66h-39.762v-24.511c0-4.513-3.657-8.17-8.17-8.17
			s-8.17,3.657-8.17,8.17v24.511h-39.762v-76.255h95.864V495.66z M304.749,177.57c-0.502,0.67-0.912,1.426-1.197,2.262
			c-0.905,2.654-0.365,5.449,1.197,7.536v215.696h-95.864V168.851h95.864V177.57z M304.749,152.511h-95.864V98.043h15.251
			c4.513,0,8.17-3.657,8.17-8.17c0-13.515,10.996-24.511,24.511-24.511c13.515,0,24.511,10.996,24.511,24.511
			c0,4.513,3.657,8.17,8.17,8.17h15.251V152.511z M494.843,495.66h-31.591v-24.511c0-4.513-3.657-8.17-8.17-8.17
			c-4.513,0-8.17,3.657-8.17,8.17v24.511h-31.591v-49.021h79.523V495.66z M494.843,430.298h-79.523v-40.851
			c0-4.513-3.657-8.17-8.17-8.17s-8.17,3.657-8.17,8.17V495.66h-77.889v-76.255h2.723c4.513,0,8.17-3.657,8.17-8.17
			c0-4.513-3.657-8.17-8.17-8.17h-2.723V194.442l77.889,26.553v135.77c0,4.513,3.657,8.17,8.17,8.17s8.17-3.657,8.17-8.17V256
			h79.523V430.298z"/>
	</g>
</g>
<g>
	<g>
		<circle cx="256.817" cy="89.872" r="8.17"/>
	</g>
</g>
</svg>