<svg width="18" height="16" viewBox="0 0 18 16" fill="current" xmlns="http://www.w3.org/2000/svg">
<path d="M10.9982 1.1535C10.4303 0.585551 9.50928 0.585551 8.94123 1.1535C8.37318 1.72145 8.37318 2.64247 8.94123 3.21052L12.2765 6.54579L2.21202 6.54638C1.40872 6.54638 0.757471 7.19772 0.757568 8.00102C0.757568 8.80432 1.40891 9.45547 2.21221 9.45547L12.2761 9.45489L8.94113 12.79C8.37308 13.3579 8.37308 14.2789 8.94113 14.847C9.22516 15.131 9.59733 15.2731 9.96959 15.2731C10.3419 15.2731 10.7141 15.131 10.9981 14.847L16.8162 9.0287C17.0893 8.75573 17.2425 8.38589 17.2425 8.00005C17.2425 7.61421 17.0892 7.24427 16.8164 6.97159L10.9982 1.1535Z" fill="current"/>
</svg>
