<svg width="60" height="60" viewBox="0 0 60 60" fill="none" xmlns="http://www.w3.org/2000/svg">
<path d="M30 60C46.5685 60 60 46.5685 60 30C60 13.4315 46.5685 0 30 0C13.4315 0 0 13.4315 0 30C0 46.5685 13.4315 60 30 60Z" fill="#4D90D5"/>
<path d="M43.3594 35.625C43.3594 39.1681 41.9519 42.5661 39.4465 45.0715C36.9411 47.5769 33.5431 48.9844 30 48.9844C26.4569 48.9844 23.0589 47.5769 20.5535 45.0715C18.0481 42.5661 16.6406 39.1681 16.6406 35.625C16.6406 28.2469 27.4219 11.9531 30 11.9531C32.5781 11.9531 43.3594 28.2469 43.3594 35.625ZM31.6406 40.0781C29.7758 40.0781 27.9874 39.3373 26.6688 38.0187C25.3502 36.7001 24.6094 34.9117 24.6094 33.0469C24.6086 32.1351 24.787 31.2321 25.1344 30.3891C23.9848 31.1496 23.0521 32.1954 22.4275 33.4241C21.8029 34.6529 21.5078 36.0227 21.5708 37.3997C21.6339 38.7766 22.0531 40.1137 22.7874 41.2802C23.5217 42.4467 24.5461 43.4028 25.7604 44.0551C26.9747 44.7074 28.3375 45.0335 29.7155 45.0016C31.0935 44.9697 32.4398 44.581 33.6226 43.8733C34.8055 43.1655 35.7845 42.1631 36.4641 40.9639C37.1437 39.7647 37.5006 38.4097 37.5 37.0312C37.5 36.9984 37.5 36.9703 37.5 36.9375C36.8582 37.9037 35.9873 38.6961 34.9649 39.244C33.9426 39.792 32.8006 40.0786 31.6406 40.0781Z" fill="white"/>
</svg>
