<svg width="100" height="40" viewBox="0 0 100 40" fill="none" xmlns="http://www.w3.org/2000/svg">
<rect width="100" height="40" rx="8" fill="#4D90D5"/>
<path d="M42.272 13.544H44.672L46.24 19.976L46.432 21.176H46.56L46.816 19.976L48.832 13.544H50.96L52.928 19.976L53.184 21.144H53.312L53.504 19.976L55.056 13.544H57.456L54.496 25H52.176L50.224 18.088L49.968 16.856H49.84L49.584 18.088L47.536 25H45.312L42.272 13.544ZM60.6294 25.256C59.7654 25.256 59.056 25.0053 58.5014 24.504C57.9467 23.992 57.6694 23.3253 57.6694 22.504C57.6694 21.96 57.8134 21.48 58.1014 21.064C58.3894 20.648 58.784 20.328 59.2854 20.104C59.7867 19.88 60.3414 19.768 60.9494 19.768C61.792 19.768 62.512 19.8907 63.1094 20.136V19.784C63.1094 19.336 62.9387 18.9733 62.5974 18.696C62.2667 18.4187 61.8187 18.28 61.2534 18.28C60.8694 18.28 60.496 18.3707 60.1334 18.552C59.7814 18.7227 59.488 18.952 59.2534 19.24L57.9094 18.184C58.304 17.672 58.8 17.2773 59.3974 17C59.9947 16.7227 60.6454 16.584 61.3494 16.584C62.5974 16.584 63.5467 16.872 64.1974 17.448C64.848 18.024 65.1734 18.8667 65.1734 19.976V25H63.1094V24.168H62.9814C62.736 24.488 62.4107 24.7493 62.0054 24.952C61.6107 25.1547 61.152 25.256 60.6294 25.256ZM61.1254 23.624C61.7334 23.624 62.2134 23.432 62.5654 23.048C62.928 22.6533 63.1094 22.1947 63.1094 21.672C62.5654 21.416 61.9947 21.288 61.3974 21.288C60.3094 21.288 59.7654 21.6933 59.7654 22.504C59.7654 22.8347 59.8827 23.1067 60.1174 23.32C60.352 23.5227 60.688 23.624 61.1254 23.624ZM70.4979 25.128C70.0925 25.128 69.7192 25.0693 69.3779 24.952C69.0365 24.824 68.7592 24.6533 68.5459 24.44C68.0445 23.96 67.7939 23.2773 67.7939 22.392V18.632H66.3699V16.84H67.7939V14.536H69.8899V16.84H71.8899V18.632H69.8899V22.008C69.8899 22.424 69.9805 22.7227 70.1619 22.904C70.3112 23.0747 70.5672 23.16 70.9299 23.16C71.1325 23.16 71.2979 23.1333 71.4259 23.08C71.5645 23.0267 71.7405 22.936 71.9539 22.808V24.856C71.4952 25.0373 71.0099 25.128 70.4979 25.128ZM77.1761 25.256C76.3655 25.256 75.6348 25.0693 74.9841 24.696C74.3335 24.3227 73.8215 23.8107 73.4481 23.16C73.0855 22.4987 72.9041 21.7573 72.9041 20.936C72.9041 20.1573 73.0855 19.4373 73.4481 18.776C73.8108 18.104 74.3121 17.5707 74.9521 17.176C75.5921 16.7813 76.3068 16.584 77.0961 16.584C77.9388 16.584 78.6641 16.7653 79.2721 17.128C79.8801 17.4907 80.3388 17.9867 80.6481 18.616C80.9681 19.2453 81.1281 19.944 81.1281 20.712C81.1281 20.9573 81.1121 21.192 81.0801 21.416H74.9521C75.0588 22.0667 75.3148 22.5627 75.7201 22.904C76.1361 23.2347 76.6321 23.4 77.2081 23.4C77.6881 23.4 78.0988 23.2987 78.4401 23.096C78.7921 22.8827 79.0695 22.6 79.2721 22.248L80.9681 23.08C80.1361 24.5307 78.8721 25.256 77.1761 25.256ZM79.1121 19.928C79.0908 19.672 78.9948 19.4213 78.8241 19.176C78.6641 18.92 78.4348 18.712 78.1361 18.552C77.8481 18.3813 77.5068 18.296 77.1121 18.296C76.6108 18.296 76.1788 18.4453 75.8161 18.744C75.4641 19.032 75.2081 19.4267 75.0481 19.928H79.1121ZM82.7428 16.84H84.7108V17.928H84.8388C85.0414 17.544 85.3561 17.2293 85.7828 16.984C86.2094 16.728 86.6788 16.6 87.1908 16.6C87.5641 16.6 87.9054 16.6587 88.2148 16.776V18.872C87.9268 18.7653 87.6814 18.6907 87.4788 18.648C87.2868 18.5947 87.0788 18.568 86.8548 18.568C86.2361 18.568 85.7454 18.792 85.3828 19.24C85.0201 19.688 84.8388 20.2533 84.8388 20.936V25H82.7428V16.84Z" fill="white"/>
<path d="M20 32C26.6274 32 32 26.6274 32 20C32 13.3726 26.6274 8 20 8C13.3726 8 8 13.3726 8 20C8 26.6274 13.3726 32 20 32Z" fill="#4D90D5"/>
<path d="M25.3438 22.25C25.3438 23.6673 24.7807 25.0265 23.7786 26.0286C22.7765 27.0307 21.4173 27.5938 20 27.5938C18.5827 27.5938 17.2235 27.0307 16.2214 26.0286C15.2193 25.0265 14.6563 23.6673 14.6562 22.25C14.6562 19.2987 18.9688 12.7812 20 12.7812C21.0312 12.7812 25.3438 19.2987 25.3438 22.25ZM20.6562 24.0312C19.9103 24.0312 19.195 23.7349 18.6675 23.2075C18.1401 22.68 17.8438 21.9647 17.8438 21.2188C17.8434 20.854 17.9148 20.4928 18.0537 20.1556C17.5939 20.4598 17.2209 20.8781 16.971 21.3697C16.7212 21.8612 16.6031 22.4091 16.6283 22.9599C16.6536 23.5106 16.8212 24.0455 17.115 24.5121C17.4087 24.9787 17.8184 25.3611 18.3042 25.622C18.7899 25.8829 19.335 26.0134 19.8862 26.0006C20.4374 25.9879 20.9759 25.8324 21.449 25.5493C21.9222 25.2662 22.3138 24.8652 22.5857 24.3856C22.8575 23.9059 23.0003 23.3639 23 22.8125C23 22.7994 23 22.7881 23 22.775C22.7433 23.1615 22.3949 23.4784 21.986 23.6976C21.577 23.9168 21.1202 24.0314 20.6562 24.0312Z" fill="white"/>
</svg>
