<svg width="380" height="360" viewBox="0 0 380 360" fill="none" xmlns="http://www.w3.org/2000/svg">
<rect width="380" height="360" fill="#006AD8"/>
<mask id="mask0_58_767" style="mask-type:alpha" maskUnits="userSpaceOnUse" x="0" y="0" width="380" height="360">
<rect width="380" height="360" fill="#D9D9D9"/>
</mask>
<g mask="url(#mask0_58_767)">
<path d="M190 460C245.228 460 290 415.228 290 360C290 304.772 245.228 260 190 260C134.772 260 90 304.772 90 360C90 415.228 134.772 460 190 460Z" fill="#006AD8"/>
<path d="M234.531 378.75C234.531 390.56 229.84 401.887 221.488 410.238C213.137 418.59 201.81 423.281 190 423.281C178.19 423.281 166.863 418.59 158.512 410.238C150.16 401.887 145.469 390.56 145.469 378.75C145.469 354.156 181.406 299.844 190 299.844C198.594 299.844 234.531 354.156 234.531 378.75ZM195.469 393.594C189.253 393.594 183.291 391.124 178.896 386.729C174.501 382.334 172.031 376.372 172.031 370.156C172.029 367.117 172.623 364.107 173.781 361.297C169.949 363.832 166.84 367.318 164.758 371.414C162.676 375.51 161.693 380.076 161.903 384.666C162.113 389.255 163.51 393.712 165.958 397.601C168.406 401.489 171.82 404.676 175.868 406.85C179.916 409.025 184.458 410.112 189.052 410.005C193.645 409.899 198.133 408.603 202.075 406.244C206.018 403.885 209.282 400.544 211.547 396.546C213.812 392.549 215.002 388.032 215 383.438C215 383.328 215 383.234 215 383.125C212.861 386.346 209.958 388.987 206.55 390.813C203.142 392.64 199.335 393.595 195.469 393.594Z" fill="#87B4E3"/>
<circle cx="190" cy="-20.0001" r="200" transform="rotate(-45 190 -20.0001)" fill="#87B4E4"/>
<circle cx="190.001" cy="-20.0002" r="75" transform="rotate(-45 190.001 -20.0002)" fill="#006AD8"/>
<rect x="39.7397" y="112.582" width="400" height="25" transform="rotate(-45 39.7397 112.582)" fill="#006AD8"/>
<circle cx="189.997" cy="-19.9945" r="50" transform="rotate(-45 189.997 -19.9945)" fill="#87B4E4"/>
</g>
</svg>
